<svg width="33" height="32" viewBox="0 0 33 32" fill="none" xmlns="http://www.w3.org/2000/svg">
<path d="M25.0271 3.12985L23.8977 6.28015H27.4961L27.9148 5.64003C27.0637 4.68666 26.0932 3.84192 25.0271 3.12985ZM11.0125 12.9024L7.91073 16.5392L5.29054 16.205L7.21895 12.4187L11.0125 12.9024ZM10.2735 17.6518L9.10228 26.8318L6.67624 26.5224L6.88054 24.9215C6.57813 25.3437 6.13143 25.7108 5.59858 25.9447C5.07647 25.3828 4.59698 24.7808 4.16502 24.1438C4.37661 24.2647 4.61617 24.3418 4.87706 24.375C6.07313 24.5276 7.09391 23.7848 7.32195 21.9975L7.33906 21.8631C7.56676 20.0771 6.88369 19.1157 5.6541 18.959C4.38921 18.7976 3.4795 19.6238 3.25565 21.3762L3.2385 21.5107C3.18928 21.8983 3.1865 22.2472 3.22454 22.5577C2.56347 21.269 2.08261 19.8729 1.81543 18.402C2.66369 17.3277 3.8961 16.8346 5.16798 16.9967C6.51595 17.1688 7.26395 17.8802 7.6565 18.8385L7.8475 17.342L10.2735 17.6518ZM30.2528 12.3873L30.2269 12.2452C29.7848 9.81252 28.4375 8.98522 25.7772 9.46855L25.4318 9.53107L26.7285 16.6684L27.1158 16.5979C29.7342 16.1222 30.6848 14.7662 30.2528 12.3873ZM31.7433 15.6829C31.7433 16.2608 31.7108 16.8311 31.6472 17.392C30.7892 18.0911 29.634 18.5905 28.1837 18.8538L23.9686 19.6197L21.8841 8.14815L21.8101 7.73955L22.0175 7.70181L26.0433 6.97022C27.1077 6.77674 28.0632 6.74777 28.9059 6.87452C30.6918 9.35292 31.7433 12.395 31.7433 15.6829ZM16.9297 8.80892C15.8106 8.47515 14.865 9.08659 14.4021 10.6378L14.3668 10.7568C13.9035 12.309 14.4226 13.2915 15.422 13.5897C16.4804 13.9056 17.5126 13.3859 17.9846 11.8039L18.0202 11.6849C18.4919 10.1042 18.0184 9.13396 16.9297 8.80892ZM21.3004 8.31426L21.2978 8.32333L21.1739 8.73789L18.8763 16.4393L16.7279 15.7983L17.1506 14.3814C16.5018 15.0325 15.396 15.4175 14.2922 15.0883C12.5175 14.5589 11.3711 12.7388 12.1457 10.1434L12.1811 10.0244C12.9466 7.45852 14.9471 6.41533 16.7815 6.96289C17.9745 7.3187 18.5458 8.07355 18.7569 8.9977L19.1524 7.67359L21.3004 8.31426ZM14.453 19.9378L14.8885 17.1433L11.2688 16.5797L9.35195 28.8855C10.4398 29.489 11.61 29.9618 12.8414 30.2824L13.8272 23.9552C14.2159 21.4597 15.8988 20.8269 18.5648 21.2694L19.0896 17.8997C16.9643 17.5938 15.5485 18.3181 14.453 19.9378ZM23.8589 22.3363C22.3241 22.0045 21.12 22.9223 20.6604 25.049L20.6251 25.2124C20.1649 27.3406 20.9621 28.6041 22.3325 28.9006C23.7842 29.2141 25.1137 28.4106 25.5827 26.2416L25.6179 26.0781C26.0866 23.9105 25.3515 22.6589 23.8589 22.3363ZM29.6661 21.2208L28.982 24.3848C26.7885 27.4866 23.4531 29.7237 19.588 30.4843C17.94 29.5016 16.9716 27.453 17.5845 24.6198L17.6198 24.4567C18.3804 20.9383 20.9538 19.333 23.4688 19.8767C25.1049 20.2305 25.949 21.1831 26.3279 22.4002L26.7204 20.5842L29.6661 21.2208ZM11.4592 1.51574C10.5114 1.86359 9.60795 2.30392 8.76039 2.826C9.93132 3.33344 10.4304 4.21452 10.1192 5.53074L12.9245 6.69922C13.6624 4.38389 12.8892 2.67341 11.4592 1.51574ZM9.16828 8.33078L11.8517 9.44863C10.6305 11.9204 8.05395 12.9143 4.94024 11.6173C4.0295 11.238 3.2511 10.7208 2.64065 10.0919C3.07787 8.99637 3.63976 7.96444 4.30921 7.01318C4.31132 8.15407 4.90362 8.98137 6.01343 9.44374C7.20113 9.93826 8.45306 9.64385 9.16828 8.33078Z" fill="black"/>
</svg>
