<svg width="325" height="100" viewBox="0 0 325 100" fill="none" xmlns="http://www.w3.org/2000/svg">
<path d="M188.96 30.8039L207.637 23.8613L188.96 16.72V7L220.949 19.8933V27.828L188.96 40.7226V30.8039Z" fill="black"/>
<path d="M12.3187 92.2972C5.56402 92.2972 0 88.9251 0 81.3865V80.9905C0 71.8651 7.948 68.6918 17.684 68.6918H22.2533V66.9065C22.2533 63.1372 20.664 60.9558 16.6907 60.9558C13.1133 60.9558 11.3253 62.9385 11.1267 65.7158H1.19202C1.98668 57.3851 8.54403 53.4172 17.2867 53.4172C26.228 53.4172 32.7854 57.1865 32.7854 66.5092V91.5038H22.652V87.1398C20.664 89.9171 17.2867 92.2972 12.3187 92.2972ZM22.2533 79.2052V75.6345H18.0813C12.9147 75.6345 10.332 77.0225 10.332 80.3958V80.7918C10.332 83.3705 11.9214 85.1558 15.4987 85.1558C19.0747 84.9572 22.2533 82.9745 22.2533 79.2052ZM56.4293 92.2972C46.0973 92.2972 38.5467 85.9491 38.5467 73.2545V72.6585C38.5467 59.9639 46.4946 53.2185 56.4293 53.2185C64.9733 53.2185 71.928 57.5838 72.7227 67.3025H62.788C62.192 63.7332 60.2054 61.3518 56.628 61.3518C52.2574 61.3518 49.0773 64.9225 49.0773 72.2625V73.4518C49.0773 80.9905 51.86 84.3625 56.628 84.3625C60.2054 84.3625 62.788 81.7838 63.384 77.6185H72.9213C72.3253 86.3465 66.5626 92.2972 56.4293 92.2972ZM95.3747 92.2972C85.0414 92.2972 77.492 85.9491 77.492 73.2545V72.6585C77.492 59.9639 85.4387 53.2185 95.3747 53.2185C103.917 53.2185 110.872 57.5838 111.667 67.3025H101.732C101.136 63.7332 99.1493 61.3518 95.5733 61.3518C91.2013 61.3518 88.0226 64.9225 88.0226 72.2625V73.4518C88.0226 80.9905 90.804 84.3625 95.5733 84.3625C99.1493 84.3625 101.732 81.7838 102.328 77.6185H111.865C111.269 86.3465 105.508 92.2972 95.3747 92.2972ZM134.517 92.2972C123.788 92.2972 116.436 85.9491 116.436 73.4518V72.6585C116.436 60.1625 124.185 53.2185 134.319 53.2185C143.657 53.2185 151.407 58.3772 151.407 70.8732V75.4359H126.967C127.364 82.1812 130.344 84.7598 134.716 84.7598C138.689 84.7598 140.876 82.5772 141.671 79.9985H151.407C150.215 86.9412 144.253 92.2972 134.517 92.2972ZM127.165 68.4932H141.075C140.876 62.9385 138.292 60.5585 134.12 60.5585C130.94 60.7572 127.96 62.5425 127.165 68.4932ZM157.764 54.2105H168.296V59.7651C170.084 56.1945 173.859 53.4172 179.621 53.4172C186.377 53.4172 190.947 57.5839 190.947 66.5092V91.5038H180.416V68.0972C180.416 63.7332 178.628 61.7492 174.852 61.7492C171.276 61.7492 168.296 63.9305 168.296 68.6918V91.5038H157.764V54.2105ZM210.22 42.9038V54.2105H217.373V61.9478H210.22V79.6025C210.22 82.3785 211.412 83.7678 213.996 83.7678C215.585 83.7678 216.579 83.5692 217.572 83.1719V91.3052C216.38 91.7025 214.195 92.0985 211.611 92.0985C203.464 92.0985 199.689 88.3305 199.689 80.7918V61.9478H195.319V54.2105H199.689V47.2678L210.22 42.9038ZM256.715 91.5038H246.383V85.9491C244.595 89.5198 241.019 92.2972 235.455 92.2972C228.699 92.2972 223.732 88.1318 223.732 79.4038V54.2105H234.263V78.0145C234.263 82.3785 236.051 84.3625 239.627 84.3625C243.204 84.3625 246.184 81.9825 246.184 77.4198V54.2105H256.715V91.5038ZM264.464 54.2105H274.995V61.1532C277.181 56.1945 280.757 53.8145 286.321 53.8145V64.1291C279.168 64.1291 274.995 66.3118 274.995 72.4612V91.7025H264.464V54.2105ZM307.581 92.2972C296.852 92.2972 289.5 85.9491 289.5 73.4518V72.6585C289.5 60.1625 297.249 53.2185 307.383 53.2185C316.721 53.2185 324.471 58.3772 324.471 70.8732V75.4359H300.229C300.627 82.1812 303.608 84.7598 307.979 84.7598C311.952 84.7598 314.139 82.5772 314.933 79.9985H324.669C323.08 86.9412 317.317 92.2972 307.581 92.2972ZM300.031 68.4932H314.139C313.94 62.9385 311.356 60.5585 307.184 60.5585C304.005 60.7572 301.024 62.5425 300.031 68.4932Z" fill="black"/>
</svg>
