<svg width="441" height="100" viewBox="0 0 441 100" fill="none" xmlns="http://www.w3.org/2000/svg">
<path d="M333.267 37.6969V68.9223H340.051V54.3035L350.051 68.9223H358.413L346.955 52.1995L357.304 37.6969H349.464L340.051 51.7329V37.6969H333.267ZM299.913 68.9223H306.231V54.0702C306.231 51.2636 306.057 48.3996 306.057 48.3996C306.057 48.3996 307.52 50.9102 309.151 53.3622L319.735 68.9223H325.757V37.6969H319.441V51.8529C319.441 54.6489 319.624 57.5236 319.624 57.5236C319.624 57.5236 318.157 55.0089 316.521 52.5462L306.407 37.6969H299.913V68.9223ZM284.213 56.7036L281.464 48.3996C280.707 46.1156 280.12 44.0129 280.12 44.0129C280.12 44.0129 279.533 46.1156 278.775 48.4569L276.024 56.7036H284.213ZM271.877 68.9223H265.028L276.141 37.6969H284.56L295.671 68.9223H288.364L286.2 62.5502H274.033L271.877 68.9223ZM239.077 68.9223V37.6969H249.895C255.337 37.6969 261.304 38.9236 261.304 45.7089C261.304 49.1596 259.311 51.6129 256.101 52.6063V52.6636C260.191 53.1902 262.764 55.8822 262.764 59.9169C262.764 66.4102 256.564 68.9223 251.011 68.9223H239.077ZM245.857 43.5395V50.3236H250.073C252.237 50.3236 254.104 49.3329 254.104 46.8223C254.104 44.2463 251.94 43.5395 249.784 43.5395H245.857ZM245.857 56.0596V63.0756H250.891C254.344 63.0756 255.861 61.8463 255.861 59.4503C255.861 56.9929 253.928 56.0596 250.891 56.0596H245.857ZM210.281 68.9223H232.033V62.9622H218.817L231.741 42.8463V37.6969H210.575V43.6556H223.201L210.281 63.7769V68.9223ZM206.275 68.9223H198.207L191.54 57.5796H189.377V68.9223H182.593V37.6969H191.948C201.361 37.6969 204.931 41.3796 204.931 47.6969C204.931 51.7329 202.651 54.8289 198.613 56.3489L206.275 68.9223ZM197.913 47.6969C197.913 44.6529 195.808 43.5395 192.18 43.5395H189.377V51.8529H192.18C195.984 51.8529 197.913 50.6223 197.913 47.6969ZM154.257 68.9223H174.548V62.9622H161.04V56.1169H172.501V50.2663H161.04V43.6556H174.371V37.6969H154.257V68.9223ZM131.111 68.9223L136.373 51.7889C137.311 48.8036 138.013 45.4156 138.013 45.4156H138.128C138.128 45.4156 138.188 48.8035 138.48 52.1995L139.881 68.9223H146.784L143.741 37.6969H134.68L129.944 53.1903C129.181 55.7089 128.364 58.9236 128.364 58.9236C128.364 58.9236 127.544 55.7089 126.727 53.1329L121.928 37.6969H112.688L109.648 68.9223H116.14L117.547 52.0796C117.837 48.8036 117.897 45.4156 117.897 45.4156H118.013C118.013 45.4156 118.771 48.8036 119.708 51.9089L124.968 68.9223H131.111ZM87.5466 68.9223L92.8106 51.7889C93.7439 48.8036 94.4466 45.4156 94.4466 45.4156H94.5639C94.5639 45.4156 94.6239 48.8035 94.9146 52.1995L96.32 68.9223H103.215L100.18 37.6969H91.1146L86.3747 53.1903C85.6173 55.7089 84.7999 58.9236 84.7999 58.9236C84.7999 58.9236 83.984 55.7089 83.16 53.1329L78.364 37.6969H69.1266L66.0867 68.9223H72.5746L73.9813 52.0796C74.2733 48.8036 74.3306 45.4156 74.3306 45.4156H74.4466C74.4466 45.4156 75.2079 48.8036 76.1413 51.9089L81.4066 68.9223H87.5466ZM45.2813 69.5063C35.8107 69.5063 29.2013 62.6089 29.2013 53.4823C29.2013 44.4769 36.22 37.1636 45.5173 37.1636C54.9933 37.1636 61.5973 44.0689 61.5973 53.1903C61.5973 62.2023 54.5813 69.5063 45.2813 69.5063ZM45.4013 63.1329C50.8946 63.1329 54.2306 58.6289 54.2306 53.3622C54.2306 47.8129 50.7799 43.5395 45.4013 43.5395C39.9039 43.5395 36.5706 48.0489 36.5706 53.3089C36.5706 58.8662 40.0199 63.1329 45.4013 63.1329ZM15.38 69.5063C6.89996 69.5063 0 62.9623 0 53.4823C0 44.4196 7.01733 37.1636 15.7867 37.1636C20.1173 37.1636 23.9173 38.9236 26.488 41.7289L22.1066 46.2889C20.3506 44.5956 18.188 43.6556 15.6707 43.6556C10.8773 43.6556 7.48665 47.9303 7.48665 53.3089C7.48665 58.8662 10.82 63.0129 15.7867 63.0129C18.6547 63.0129 20.8773 62.0262 22.6307 60.1502L26.84 64.4796C23.9746 67.7556 20.2333 69.5063 15.38 69.5063Z" fill="black"/>
<path d="M373.403 52.1112L391.403 21.0005H415.403C414.069 21.2232 412.513 21.6671 411.18 22.5565C409.625 23.6671 408.292 24.7778 407.18 26.1112C405.625 27.8898 404.513 29.8898 403.847 31.0005C401.18 35.6672 396.069 44.5565 396.069 44.5565C396.069 44.5565 390.736 53.4445 388.069 58.1112C386.959 60.1112 384.959 64.3338 384.736 68.5565C384.513 70.1111 384.959 71.6671 385.403 73.0005C385.625 73.2231 385.847 73.6672 386.069 74.1112V74.3338L373.403 52.3338V52.1112Z" fill="black"/>
<path d="M438.292 56.777C437.625 57.6664 437.18 58.5557 436.959 58.777C436.292 59.889 434.959 60.9997 433.403 61.6663C429.625 63.6663 424.959 63.889 422.736 63.889H391.403C389.18 63.889 384.513 63.6663 380.736 61.6663C379.403 60.9997 378.069 59.889 377.18 58.777C376.959 58.5557 376.736 58.1104 376.736 58.1104L389.18 79.6663H425.18L438.292 56.5557V56.777Z" fill="black"/>
<path d="M422.959 21.0005H415.403C414.069 21.2232 412.513 21.6671 410.959 22.5565C409.625 23.6671 408.292 24.7778 407.181 26.1112C408.736 27.8898 409.848 29.8898 410.515 31.0005C413.181 35.6672 418.292 44.5565 418.292 44.5565C418.292 44.5565 423.403 53.4445 426.069 58.1112C427.181 60.1112 429.403 64.3338 429.625 68.5565C429.625 69.8898 429.403 71.4445 428.959 72.5565L428.513 73.6671L440.959 52.3338V52.1112L422.959 21.0005Z" fill="black"/>
</svg>
