<svg width="436" height="100" viewBox="0 0 436 100" fill="none" xmlns="http://www.w3.org/2000/svg">
<path d="M53.3333 76.3333H0V23H53.3333V76.3333ZM7.59993 68.7293H45.7252V30.604H7.59993V68.7293ZM21.3866 63.48H12L31.7866 36.2347H41.1867L21.3866 63.48Z" fill="black"/>
<path d="M88.4666 68.3328H75.9733V31.4648H88.7198C92.3865 31.4648 95.5199 32.2022 98.1599 33.6782C100.8 35.1436 102.827 37.2488 104.24 39.9968C105.653 42.7462 106.36 46.0342 106.36 49.8622C106.36 53.7036 105.653 57.0035 104.227 59.7635C102.8 62.5235 100.76 64.6422 98.0799 66.1182C95.4132 67.5942 92.2133 68.3328 88.4666 68.3328ZM82.6533 62.5542H88.1466C90.7066 62.5542 92.8532 62.0861 94.5732 61.1501C96.2932 60.2021 97.5732 58.7915 98.4399 56.9195C99.3066 55.0355 99.7332 52.6836 99.7332 49.8622C99.7332 47.0422 99.3066 44.7022 98.4399 42.8422C97.5732 40.9702 96.2932 39.5715 94.6132 38.6475C92.9332 37.7115 90.84 37.2435 88.3466 37.2435H82.6533V62.5542ZM124.16 68.8729C121.387 68.8729 118.987 68.2968 116.973 67.1448C114.973 65.9808 113.427 64.3368 112.347 62.2115C111.267 60.0755 110.72 57.5622 110.72 54.6689C110.72 51.8249 111.267 49.3288 112.347 47.1808C113.44 45.0195 114.96 43.3395 116.92 42.1395C118.88 40.9275 121.173 40.3209 123.813 40.3209C125.52 40.3209 127.12 40.5981 128.64 41.1501C130.16 41.6901 131.507 42.5302 132.667 43.6702C133.84 44.8102 134.773 46.2622 135.44 48.0262C136.12 49.7782 136.453 51.8675 136.453 54.2915V56.2888H113.787V51.8969H130.2C130.186 50.6489 129.92 49.5382 129.4 48.5662C128.867 47.5822 128.133 46.8089 127.173 46.2449C126.24 45.6795 125.147 45.3982 123.907 45.3982C122.573 45.3982 121.4 45.7222 120.387 46.3702C119.387 47.0062 118.6 47.8462 118.04 48.8902C117.48 49.9222 117.2 51.0569 117.187 52.2929V56.1275C117.187 57.7355 117.48 59.1155 118.067 60.2675C118.653 61.4075 119.48 62.2836 120.533 62.8969C121.586 63.4969 122.827 63.7969 124.24 63.7969C125.187 63.7969 126.053 63.6649 126.813 63.4009C127.587 63.1249 128.253 62.7222 128.813 62.1942C129.387 61.6662 129.813 61.0115 130.093 60.2315L136.187 60.9155C135.8 62.5235 135.067 63.9288 133.987 65.1288C132.92 66.3168 131.546 67.2409 129.88 67.9009C128.213 68.5489 126.307 68.8729 124.16 68.8729ZM159.08 56.7035V40.6822H165.6V68.3328H159.28V63.4182H158.987C158.36 64.9662 157.347 66.2329 155.907 67.2169C154.493 68.2009 152.747 68.6929 150.68 68.6929C148.867 68.6929 147.253 68.2902 145.866 67.4862C144.493 66.6702 143.4 65.4888 142.627 63.9408C141.84 62.3795 141.453 60.4955 141.453 58.2875V40.6822H147.973V57.2795C147.973 59.0315 148.453 60.4235 149.413 61.4555C150.373 62.4875 151.64 63.0049 153.2 63.0049C154.16 63.0049 155.08 62.7702 155.987 62.3022C156.88 61.8342 157.626 61.1382 158.2 60.2142C158.786 59.2782 159.08 58.1075 159.08 56.7035ZM185.6 40.6822V45.7222H169.706V40.6822H185.6ZM173.627 34.0569H180.147V60.0155C180.147 60.8915 180.28 61.5635 180.546 62.0315C180.813 62.4875 181.173 62.8008 181.627 62.9688C182.067 63.1368 182.56 63.2209 183.093 63.2209C183.507 63.2209 183.88 63.1902 184.213 63.1302C184.56 63.0702 184.827 63.0168 185 62.9688L186.107 68.0622C185.76 68.1822 185.253 68.3155 184.613 68.4595C183.973 68.6035 183.187 68.6875 182.267 68.7115C180.64 68.7595 179.16 68.5128 177.853 67.9728C176.547 67.4208 175.507 66.5688 174.747 65.4168C173.987 64.2648 173.613 62.8249 173.627 61.0955V34.0569ZM212 47.9901L206.066 48.6382C205.893 48.0382 205.6 47.4742 205.173 46.9462C204.773 46.4182 204.213 45.9915 203.52 45.6675C202.827 45.3435 201.973 45.1822 200.96 45.1822C199.613 45.1822 198.466 45.4755 197.546 46.0649C196.626 46.6529 196.186 47.4142 196.2 48.3502C196.186 49.1542 196.48 49.8088 197.08 50.3128C197.693 50.8168 198.693 51.2302 200.107 51.5542L204.813 52.5636C207.44 53.1276 209.373 54.0209 210.653 55.2449C211.933 56.4689 212.587 58.0715 212.6 60.0515C212.587 61.7915 212.066 63.3289 211.066 64.6609C210.066 65.9809 208.68 67.0128 206.907 67.7568C205.133 68.5008 203.093 68.8729 200.787 68.8729C197.4 68.8729 194.68 68.1649 192.613 66.7489C190.547 65.3209 189.32 63.3342 188.92 60.7902L195.28 60.1782C195.56 61.4262 196.173 62.3675 197.107 63.0049C198.053 63.6409 199.267 63.9582 200.773 63.9582C202.32 63.9582 203.56 63.6409 204.493 63.0049C205.44 62.3675 205.92 61.5822 205.92 60.6462C205.92 59.8542 205.613 59.1995 205 58.6835C204.4 58.1675 203.467 57.7715 202.187 57.4955L197.48 56.5049C194.827 55.9529 192.853 55.0235 191.587 53.7155C190.32 52.3955 189.68 50.7262 189.693 48.7102C189.68 47.0062 190.147 45.5301 191.08 44.2821C192.027 43.0221 193.346 42.0502 195.026 41.3662C196.72 40.6702 198.666 40.3209 200.88 40.3209C204.12 40.3209 206.666 41.0115 208.533 42.3915C210.4 43.7715 211.56 45.6381 212 47.9901ZM229.52 68.8729C226.76 68.8729 224.387 68.2662 222.413 67.0542C220.44 65.8422 218.92 64.1688 217.853 62.0315C216.8 59.8835 216.28 57.4115 216.28 54.6155C216.28 51.8075 216.813 49.3288 217.893 47.1808C218.973 45.0195 220.493 43.3395 222.467 42.1395C224.453 40.9275 226.787 40.3209 229.493 40.3209C231.733 40.3209 233.72 40.7356 235.44 41.5636C237.187 42.3796 238.573 43.5382 239.6 45.0382C240.64 46.5262 241.226 48.2662 241.373 50.2582H235.133C234.893 48.9262 234.293 47.8169 233.333 46.9289C232.4 46.0289 231.146 45.5782 229.573 45.5782C228.24 45.5782 227.08 45.9382 226.066 46.6582C225.053 47.3662 224.266 48.3862 223.706 49.7182C223.16 51.0502 222.88 52.6475 222.88 54.5075C222.88 56.3915 223.16 58.0115 223.706 59.3675C224.266 60.7115 225.04 61.7502 226.026 62.4822C227.04 63.2022 228.226 63.5622 229.573 63.5622C230.533 63.5622 231.4 63.3822 232.147 63.0222C232.92 62.6502 233.56 62.1155 234.08 61.4195C234.6 60.7235 234.947 59.8782 235.133 58.8822H241.373C241.213 60.8382 240.64 62.5715 239.64 64.0849C238.64 65.5849 237.293 66.7609 235.573 67.6129C233.853 68.4529 231.84 68.8729 229.52 68.8729ZM252.733 52.1315V68.3328H246.213V31.4648H252.587V45.3796H252.906C253.56 43.8196 254.56 42.5902 255.92 41.6902C257.28 40.7782 259.027 40.3209 261.133 40.3209C263.053 40.3209 264.733 40.7235 266.16 41.5275C267.587 42.3315 268.693 43.5075 269.467 45.0555C270.267 46.6048 270.653 48.4942 270.653 50.7262V68.3328H264.147V51.7355C264.147 49.8742 263.666 48.4289 262.706 47.3969C261.76 46.3529 260.426 45.8302 258.706 45.8302C257.56 45.8302 256.52 46.0822 255.613 46.5862C254.707 47.0782 254 47.7928 253.48 48.7288C252.987 49.6648 252.733 50.7982 252.733 52.1315ZM289.04 68.8729C286.266 68.8729 283.867 68.2968 281.853 67.1448C279.853 65.9808 278.306 64.3368 277.226 62.2115C276.146 60.0755 275.613 57.5622 275.613 54.6689C275.613 51.8249 276.146 49.3288 277.226 47.1808C278.32 45.0195 279.84 43.3395 281.8 42.1395C283.76 40.9275 286.053 40.3209 288.693 40.3209C290.4 40.3209 292.013 40.5981 293.52 41.1501C295.04 41.6901 296.386 42.5302 297.546 43.6702C298.733 44.8102 299.653 46.2622 300.32 48.0262C301 49.7782 301.333 51.8675 301.333 54.2915V56.2888H278.667V51.8969H295.08C295.08 50.6489 294.8 49.5382 294.28 48.5662C293.747 47.5822 293.013 46.8089 292.066 46.2449C291.12 45.6795 290.027 45.3982 288.787 45.3982C287.453 45.3982 286.28 45.7222 285.28 46.3702C284.267 47.0062 283.48 47.8462 282.92 48.8902C282.36 49.9222 282.08 51.0569 282.066 52.2929V56.1275C282.066 57.7355 282.36 59.1155 282.947 60.2675C283.547 61.4075 284.36 62.2836 285.413 62.8969C286.48 63.4969 287.707 63.7969 289.133 63.7969C290.08 63.7969 290.933 63.6649 291.706 63.4009C292.466 63.1249 293.133 62.7222 293.693 62.1942C294.266 61.6662 294.693 61.0115 294.973 60.2315L301.066 60.9155C300.68 62.5235 299.946 63.9288 298.866 65.1288C297.8 66.3168 296.427 67.2409 294.76 67.9009C293.093 68.5489 291.186 68.8729 289.04 68.8729ZM318.693 68.3328V31.4648H332.813C335.467 31.4648 337.693 31.8849 339.453 32.7249C341.227 33.5529 342.546 34.6862 343.426 36.1275C344.32 37.5675 344.76 39.1995 344.76 41.0235C344.76 42.5235 344.48 43.8075 343.893 44.8755C343.32 45.9315 342.546 46.7902 341.573 47.4502C340.6 48.1102 339.52 48.5849 338.32 48.8729V49.2328C339.627 49.3048 340.88 49.7061 342.08 50.4381C343.293 51.1581 344.28 52.1795 345.053 53.4995C345.813 54.8195 346.2 56.4155 346.2 58.2875C346.2 60.1955 345.733 61.9115 344.813 63.4368C343.893 64.9488 342.493 66.1421 340.64 67.0181C338.773 67.8941 336.44 68.3328 333.613 68.3328H318.693ZM325.373 62.7528H332.56C334.986 62.7528 336.72 62.2902 337.8 61.3662C338.88 60.4302 339.413 59.2302 339.413 57.7662C339.413 56.6729 339.146 55.6888 338.6 54.8128C338.066 53.9248 337.293 53.2288 336.307 52.7248C335.307 52.2088 334.12 51.9515 332.733 51.9515H325.373V62.7528ZM325.373 47.1449H331.987C333.133 47.1449 334.173 46.9342 335.093 46.5142C336.013 46.0822 336.746 45.4756 337.266 44.6956C337.813 43.9036 338.08 42.9675 338.08 41.8875C338.08 40.4595 337.573 39.2835 336.573 38.3595C335.573 37.4355 334.093 36.9728 332.12 36.9728H325.373V47.1449ZM359.173 68.8915C357.427 68.8915 355.84 68.5795 354.44 67.9542C353.053 67.3182 351.947 66.3822 351.133 65.1462C350.32 63.9102 349.92 62.3862 349.92 60.5742C349.92 59.0142 350.213 57.7235 350.787 56.7035C351.36 55.6835 352.147 54.8675 353.147 54.2555C354.133 53.6435 355.267 53.1808 356.507 52.8688C357.773 52.5448 359.066 52.3115 360.413 52.1675C362.04 51.9995 363.346 51.8489 364.36 51.7169C365.36 51.5729 366.093 51.3568 366.56 51.0688C367.026 50.7688 367.253 50.3062 367.253 49.6822V49.5742C367.253 48.2182 366.853 47.1689 366.053 46.4249C365.24 45.6795 364.093 45.3075 362.573 45.3075C360.986 45.3075 359.72 45.6555 358.773 46.3529C357.853 47.0489 357.226 47.8702 356.906 48.8182L350.827 47.9542C351.307 46.2742 352.093 44.8702 353.2 43.7422C354.306 42.6022 355.653 41.7502 357.253 41.1862C358.84 40.6102 360.613 40.3209 362.546 40.3209C363.866 40.3209 365.2 40.4782 366.52 40.7902C367.84 41.1022 369.04 41.6182 370.133 42.3382C371.227 43.0462 372.106 44.0115 372.76 45.2355C373.44 46.4608 373.773 47.9902 373.773 49.8262V68.3328H367.507V64.5342H367.293C366.893 65.3022 366.333 66.0222 365.613 66.6942C364.907 67.3542 364.013 67.8889 362.933 68.2969C361.866 68.6929 360.613 68.8915 359.173 68.8915ZM360.866 64.1022C362.173 64.1022 363.306 63.8448 364.266 63.3288C365.226 62.8008 365.973 62.1035 366.48 61.2395C367.013 60.3755 367.28 59.4342 367.28 58.4142V55.1555C367.067 55.3235 366.72 55.4795 366.226 55.6235C365.746 55.7675 365.213 55.8928 364.613 56.0008C364.013 56.1088 363.413 56.2048 362.827 56.2888C362.24 56.3728 361.733 56.4449 361.293 56.5049C360.32 56.6369 359.453 56.8528 358.693 57.1528C357.92 57.4542 357.32 57.8742 356.866 58.4142C356.426 58.9422 356.2 59.6261 356.2 60.4661C356.2 61.6661 356.64 62.5715 357.52 63.1848C358.4 63.7968 359.506 64.1022 360.866 64.1022ZM386.333 52.1315V68.3328H379.813V40.6822H386.053V45.3796H386.373C387.013 43.8316 388.026 42.6022 389.413 41.6902C390.813 40.7782 392.546 40.3209 394.613 40.3209C396.52 40.3209 398.186 40.7302 399.6 41.5462C401.026 42.3622 402.133 43.5435 402.92 45.0915C403.706 46.6409 404.093 48.5182 404.08 50.7262V68.3328H397.573V51.7355C397.573 49.8862 397.093 48.4409 396.133 47.3969C395.187 46.3529 393.867 45.8302 392.187 45.8302C391.053 45.8302 390.027 46.0822 389.147 46.5862C388.267 47.0782 387.573 47.7928 387.08 48.7288C386.586 49.6648 386.333 50.7982 386.333 52.1315ZM416.147 59.6555L416.133 51.7888H417.173L427.106 40.6822H434.72L422.493 54.2915H421.147L416.147 59.6555ZM410.2 68.3328V31.4648H416.72V68.3328H410.2ZM427.56 68.3328L418.56 55.7489L422.946 51.1582L435.347 68.3328H427.56Z" fill="black"/>
</svg>
