<svg width="363" height="100" viewBox="0 0 363 100" fill="none" xmlns="http://www.w3.org/2000/svg">
<path d="M139.106 34.8069C139.106 27.4709 143.986 23.8242 148.986 23.8242C154.506 23.8242 157.973 27.6402 157.973 33.1522V35.4856H143.133C143.386 40.3189 146.493 42.4816 149.08 42.4816H149.413C151.493 42.4816 153.48 41.4215 153.906 39.1735H157.933C157.173 43.4575 153.48 45.8735 149.12 45.8735C143.853 45.8735 139.106 42.2269 139.106 34.8069ZM153.946 32.3042C153.786 28.6149 151.573 27.2162 149.16 27.2162H148.813C146.613 27.2162 144.16 28.5309 143.386 32.3042H153.946Z" fill="black"/>
<path d="M168.026 45.4495C165.053 45.4495 163.36 43.7534 163.36 40.7854V27.7241H158.693V24.2481H163.36V17.3774H167.386V24.2481H172.48V27.7241H167.386V40.1494C167.386 41.4214 167.813 41.8455 169.08 41.8455H173.12V45.4495H168.026Z" fill="black"/>
<path d="M175.573 20.4316V15.7676H180.027V20.4316H175.573ZM175.787 45.4503V24.2489H179.813V45.4503H175.787Z" fill="black"/>
<path d="M184.48 45.4503V15.7676H188.507V27.2169C189.787 25.3089 191.907 23.8249 195.293 23.8249C200.173 23.8249 202.92 26.7929 202.92 31.2449V45.4503H198.893V32.0929C198.893 29.1249 197.627 27.2169 194.613 27.2169H194.28C191.267 27.2169 188.507 29.5489 188.507 33.5769V45.4503H184.48Z" fill="black"/>
<path d="M206.147 34.8496C206.147 27.8522 210.173 23.8242 215.48 23.8242C219.08 23.8242 220.987 25.3082 222.267 27.2162V24.2482H226.293V45.4495H222.267V42.4816C220.987 44.3896 219.08 45.8735 215.48 45.8735C210.173 45.8735 206.147 41.8456 206.147 34.8496ZM216.333 42.4816C219.293 42.4816 222.267 39.9376 222.267 34.8496C222.267 29.7602 219.293 27.2162 216.333 27.2162H215.907C212.72 27.2162 210.173 29.7602 210.173 34.8496C210.173 39.9376 212.72 42.4816 215.907 42.4816H216.333Z" fill="black"/>
<path d="M229.72 34.8489C229.72 27.8529 233.96 23.8249 239.267 23.8249C242.24 23.8249 244.773 25.3089 245.84 27.2169V15.7676H249.867V45.4502H245.84V42.4823C244.773 44.3903 241.813 45.8743 238.84 45.8743C233.547 45.8743 229.72 41.8462 229.72 34.8489ZM239.853 42.4823C242.867 42.4823 245.84 39.9382 245.84 34.8489C245.84 29.7609 242.867 27.2169 239.853 27.2169H239.52C236.293 27.2169 233.76 29.7609 233.76 34.8489C233.76 39.9382 236.293 42.4823 239.52 42.4823H239.853Z" fill="black"/>
<path d="M261.906 34.8496C261.906 28.6149 265.56 23.8242 272.093 23.8242C276.92 23.8242 280.36 26.6642 280.773 31.2442H276.746C276.373 28.9122 274.68 27.2162 272.253 27.2162H271.92C267.84 27.2162 265.933 30.8202 265.933 34.8496C265.933 38.8776 267.84 42.4816 271.92 42.4816H272.253C274.68 42.4816 276.373 40.7855 276.746 38.4535H280.773C280.36 43.0335 276.92 45.8735 272.093 45.8735C265.56 45.8735 261.906 41.0829 261.906 34.8496Z" fill="black"/>
<path d="M284.053 45.4493V24.2467H287.867V28.912C288.707 25.7307 291.253 24.0347 294.013 24.0347H295.92V27.936H294.227C290.413 27.936 288.08 30.48 288.08 34.7214V45.4493H284.053Z" fill="black"/>
<path d="M296.347 34.8069C296.347 27.4709 301.213 23.8242 306.227 23.8242C311.733 23.8242 315.213 27.6402 315.213 33.1522V35.4856H300.373C300.627 40.3189 303.72 42.4816 306.307 42.4816H306.653C308.72 42.4816 310.72 41.4215 311.147 39.1735H315.173C314.413 43.4575 310.72 45.8735 306.347 45.8735C301.093 45.8735 296.347 42.2269 296.347 34.8069ZM311.187 32.3042C311.013 28.6149 308.813 27.2162 306.387 27.2162H306.053C303.853 27.2162 301.387 28.5309 300.627 32.3042H311.187Z" fill="black"/>
<path d="M317.507 34.8489C317.507 27.8529 321.746 23.8249 327.04 23.8249C330.013 23.8249 332.56 25.3089 333.613 27.2169V15.7676H337.64V45.4502H333.613V42.4823C332.56 44.3903 329.587 45.8743 326.627 45.8743C321.32 45.8743 317.507 41.8462 317.507 34.8489ZM327.64 42.4823C330.653 42.4823 333.613 39.9382 333.613 34.8489C333.613 29.7609 330.653 27.2169 327.64 27.2169H327.293C324.08 27.2169 321.533 29.7609 321.533 34.8489C321.533 39.9382 324.08 42.4823 327.293 42.4823H327.64Z" fill="black"/>
<path d="M342.093 20.4316V15.7676H346.547V20.4316H342.093ZM342.307 45.4503V24.2489H346.333V45.4503H342.307Z" fill="black"/>
<path d="M357.866 45.4495C354.906 45.4495 353.2 43.7534 353.2 40.7854V27.7241H348.546V24.2481H353.2V17.3774H357.24V24.2481H362.32V27.7241H357.24V40.1494C357.24 41.4214 357.653 41.8455 358.933 41.8455H362.96V45.4495H357.866Z" fill="black"/>
<path d="M144.413 79.5867V82.5548H140.386V52.8721H144.413V64.3201C145.466 62.4121 148.013 60.9281 150.987 60.9281C156.28 60.9281 160.52 64.9561 160.52 71.9534C160.52 78.9507 156.706 82.9788 151.4 82.9788C148.44 82.9788 145.466 81.4947 144.413 79.5867ZM150.733 79.5867C153.946 79.5867 156.493 77.0414 156.493 71.9534C156.493 66.8654 153.946 64.3201 150.733 64.3201H150.386C147.373 64.3201 144.413 66.8654 144.413 71.9534C144.413 77.0414 147.373 79.5867 150.386 79.5867H150.733Z" fill="black"/>
<path d="M163.747 75.3454V61.3521H167.773V74.4974C167.773 77.8894 169.173 79.5854 172.053 79.5854H172.4C175.107 79.5854 177.733 77.0414 177.733 72.8014V61.3521H181.773V82.5534H177.733V78.5254C176.933 80.8574 174.64 82.9774 170.96 82.9774C166.2 82.9774 163.747 79.7974 163.747 75.3454Z" fill="black"/>
<path d="M186.427 82.5548V61.3521H190.253V66.0161C191.093 62.8361 193.64 61.1401 196.4 61.1401H198.307V65.0415H196.613C192.787 65.0415 190.453 67.5854 190.453 71.8254V82.5548H186.427Z" fill="black"/>
<path d="M198.733 71.9104C198.733 64.5744 203.6 60.9277 208.613 60.9277C214.12 60.9277 217.6 64.7451 217.6 70.2571V72.5891H202.76C203.013 77.4237 206.106 79.5864 208.693 79.5864H209.026C211.106 79.5864 213.107 78.5264 213.52 76.2784H217.56C216.786 80.5611 213.106 82.9784 208.733 82.9784C203.48 82.9784 198.733 79.3317 198.733 71.9104ZM213.573 69.4091C213.4 65.7198 211.2 64.3211 208.773 64.3211H208.44C206.227 64.3211 203.773 65.6344 203.013 69.4091H213.573Z" fill="black"/>
<path d="M219.893 71.9531C219.893 64.9571 223.92 60.9277 229.213 60.9277C232.827 60.9277 234.733 62.4118 236 64.3211V61.3518H240.027V82.5544H236V79.5864C234.733 81.4944 232.827 82.9784 229.213 82.9784C223.92 82.9784 219.893 78.9504 219.893 71.9531ZM230.067 79.5864C233.027 79.5864 236 77.0424 236 71.9531C236 66.8651 233.027 64.3211 230.067 64.3211H229.64C226.453 64.3211 223.92 66.8651 223.92 71.9531C223.92 77.0424 226.453 79.5864 229.64 79.5864H230.067Z" fill="black"/>
<path d="M244.48 75.3454V61.3521H248.507V74.4974C248.507 77.8894 249.907 79.5854 252.8 79.5854H253.133C255.853 79.5854 258.48 77.0414 258.48 72.8014V61.3521H262.507V82.5534H258.48V78.5254C257.667 80.8574 255.387 82.9774 251.693 82.9774C246.947 82.9774 244.48 79.7974 244.48 75.3454Z" fill="black"/>
<path d="M114.413 34.5253L101.04 21.152C101.013 21.136 101 21.1147 100.973 21.1L87.6666 7.77869C87.16 7.27602 86.4799 7 85.7732 7H68.52C66.1867 7 64.1733 8.34132 63.2799 10.4987C62.3866 12.656 62.8533 15.0253 64.5066 16.6787L71.3467 23.5107C71.36 23.532 71.3865 23.548 71.3999 23.564L85.0133 37.176C85.04 37.1973 85.0532 37.2133 85.0799 37.2293L97.5066 49.664L85.0265 62.152C84.9998 62.1733 84.9866 62.1893 84.9733 62.2106L71.3598 75.8173C71.3332 75.8387 71.3199 75.8533 71.3066 75.8747L64.5332 82.6493C62.8798 84.3026 62.3999 86.672 63.2933 88.8293C64.1999 90.9867 66.1999 92.328 68.5465 92.328H85.7866C86.4933 92.328 87.1733 92.052 87.68 91.5493L101.053 78.1813C101.067 78.16 101.093 78.144 101.107 78.1227L114.427 64.8026C114.92 64.2986 115.2 63.6253 115.2 62.916V36.4133C115.186 35.7027 114.907 35.0293 114.413 34.5253ZM87.3732 34.8173C87.3465 34.8013 87.3333 34.78 87.3066 34.764L73.7065 21.152C73.6798 21.1307 73.6666 21.1147 73.6399 21.1L66.8665 14.32C65.8532 13.2973 66.2265 12.1147 66.3598 11.776C66.5065 11.436 67.0667 10.3347 68.52 10.3347H85.4933L98.6666 23.5107C98.6933 23.532 98.7065 23.548 98.7332 23.564L111.853 36.688V59.3L101.04 48.4813L87.3732 34.8173ZM98.68 75.8173C98.6533 75.8387 98.6399 75.8533 98.6266 75.8747L85.4933 88.9947H68.52C67.08 88.9947 66.5065 87.892 66.3732 87.552C66.2265 87.2133 65.8532 86.0307 66.8799 85.008L73.7065 78.1813C73.7198 78.16 73.7466 78.144 73.7599 78.1227L87.3732 64.516C87.3865 64.4946 87.3999 64.4786 87.4266 64.4573L99.8533 52.028L111.16 63.3347L98.68 75.8173Z" fill="black"/>
<path d="M50.6667 82.6493L43.84 75.8173C43.8133 75.796 43.7999 75.78 43.7866 75.764L30.1733 62.152C30.16 62.1307 30.1333 62.1147 30.1199 62.0987L17.68 49.664L30.1733 37.176C30.1867 37.1546 30.2132 37.1387 30.2266 37.1173L43.84 23.5107C43.8533 23.4893 43.8666 23.4747 43.8932 23.4533L50.6667 16.6787C52.32 15.0253 52.7865 12.656 51.8932 10.4987C50.9999 8.34132 48.9866 7 46.6533 7H29.3999C28.6932 7 28.0133 7.27602 27.52 7.77869L14.1466 21.152C14.12 21.1733 14.1066 21.1893 14.0933 21.2106L0.773275 34.5307C0.279941 35.0293 0 35.7186 0 36.4173V62.92C0 63.6307 0.266608 64.304 0.773275 64.808L14.1466 78.1813C14.1733 78.1973 14.1865 78.2186 14.1999 78.2333L27.52 91.5546C28.0267 92.0573 28.6932 92.3333 29.4132 92.3333H46.6667C49 92.3333 51.0132 90.992 51.9066 88.8347C52.7999 86.672 52.3333 84.3026 50.6667 82.6493ZM16.5067 23.5107C16.52 23.4893 16.5466 23.4747 16.5599 23.4533L29.68 10.3347H46.6533C48.1066 10.3347 48.68 11.436 48.8133 11.776C48.9466 12.1147 49.3333 13.2973 48.3066 14.32L41.48 21.152C41.4666 21.1733 41.4399 21.1893 41.4266 21.2106L27.8133 34.8173C27.8 34.8387 27.7866 34.8547 27.7599 34.876L15.3333 47.3053L4.02653 35.9987L16.5067 23.5107ZM48.8133 87.552C48.68 87.892 48.1067 88.9947 46.6667 88.9947H29.68L16.5067 75.8173C16.4933 75.796 16.48 75.78 16.4533 75.764L3.33333 62.64V40.028L14.8133 51.508L27.8133 64.5106C27.8266 64.5266 27.8532 64.548 27.8665 64.564L41.48 78.176C41.4933 78.1973 41.5199 78.2133 41.5332 78.228L48.32 85.008C49.3333 86.0307 48.96 87.2133 48.8133 87.552Z" fill="black"/>
</svg>
