<svg width="332" height="100" viewBox="0 0 332 100" fill="none" xmlns="http://www.w3.org/2000/svg">
<path fill-rule="evenodd" clip-rule="evenodd" d="M77.564 37.7481C76.4626 36.5188 74.852 35.7548 73.0786 35.7548C69.7333 35.7548 67.0266 38.4895 67.0266 41.8334C67.0266 44.2494 68.4226 46.3281 70.4746 47.3241C69.3973 47.7068 68.212 47.9175 66.9854 47.9175C60.808 47.9175 56.3814 43.0241 56.3814 36.2401C56.3814 29.5228 60.808 24.6521 66.9854 24.6521C73.0787 24.6521 77.6493 29.5228 77.6493 36.2401C77.6493 36.7521 77.6266 37.2588 77.564 37.7481ZM66.9854 16.1748C55.6227 16.1748 47.2626 25.0334 47.2626 36.2401C47.2626 47.5361 55.4747 56.3721 66.9854 56.3721C78.408 56.3721 86.7853 47.5361 86.7853 36.2401C86.7853 25.0334 78.408 16.1748 66.9854 16.1748Z" fill="black"/>
<path fill-rule="evenodd" clip-rule="evenodd" d="M30.388 64.1108H39.5227C39.5227 75.3762 31.1494 84.2068 19.728 84.2068C8.22536 84.2068 0 75.3762 0 64.1108H9.13602C9.13602 70.8655 13.5547 75.7362 19.728 75.7362C25.82 75.7362 30.388 70.8655 30.388 64.1108Z" fill="black"/>
<path fill-rule="evenodd" clip-rule="evenodd" d="M331.108 16.1748V54.8775C331.108 65.8948 324.272 73.2148 312.405 73.2148C302.503 73.2148 297.157 67.7068 295.272 60.7015L304.075 58.8922C304.86 62.7482 307.455 65.1095 312.405 65.1095C318.141 65.1095 321.677 61.5655 321.677 54.9561V50.7855L321.599 50.5481C318.927 53.7761 315.704 55.9788 309.731 55.9788C301.165 55.9788 295.431 50.9415 295.431 39.4535V16.1748H304.86V37.8788C304.86 44.9628 308.004 47.1668 312.72 47.1668C317.827 47.1668 321.677 43.7815 321.677 37.1708V16.1748H331.108Z" fill="black"/>
<path fill-rule="evenodd" clip-rule="evenodd" d="M258.325 32.6069C259.192 28.1216 262.727 23.7949 269.097 23.7949C275.852 23.7949 278.997 29.0669 279.233 32.6069H258.325ZM287.563 36.2242C287.563 24.2629 280.411 16.0029 269.013 16.0029C257.859 16.0029 249.213 24.8136 249.213 36.6962C249.213 48.8162 257.859 57.4749 269.097 57.4749C278.683 57.4749 284.344 52.4389 286.619 46.1429L278.683 43.7016C277.737 46.3789 274.596 49.6829 269.097 49.6829C262.885 49.6829 258.641 44.8043 258.252 39.8469H287.563V36.2242Z" fill="black"/>
<path fill-rule="evenodd" clip-rule="evenodd" d="M206.491 17.1013H214.272L215.605 21.824C218.045 18.5973 221.736 16 227.553 16C236.432 16 241.62 21.116 241.62 32.6053V56.3733H232.189V33.8653C232.189 26.94 228.968 24.736 224.567 24.736C219.775 24.736 215.92 28.1213 215.92 34.8093V56.3733H206.491V17.1013Z" fill="black"/>
<path fill-rule="evenodd" clip-rule="evenodd" d="M178.964 47.9027C172.799 47.9027 168.381 43.0214 168.381 36.2334C168.381 29.5214 172.799 24.6414 178.964 24.6414C185.06 24.6414 189.631 29.5214 189.631 36.2334C189.631 43.0214 185.06 47.9027 178.964 47.9027ZM178.964 16.1787C167.617 16.1787 159.24 25.0227 159.24 36.2334C159.24 47.5254 167.465 56.3694 178.964 56.3694C190.389 56.3694 198.768 47.5254 198.768 36.2334C198.768 25.0227 190.389 16.1787 178.964 16.1787Z" fill="black"/>
<path fill-rule="evenodd" clip-rule="evenodd" d="M94.524 17.1013H102.305L103.563 21.7453C105.919 18.5973 110.084 16 115.664 16C121.56 16 124.701 18.8333 126.276 21.9027C128.709 18.7547 132.797 16 138.847 16C146.156 16 151.5 20.3293 151.5 30.404V56.3733H142.071V33.0013C142.071 27.0187 139.477 24.736 135.391 24.736C131.068 24.736 127.767 27.8853 127.767 34.1V56.3733H118.337V33.0013C118.337 27.0187 115.508 24.736 111.577 24.736C107.333 24.736 103.956 27.8067 103.956 34.1V56.3733H94.524V17.1013Z" fill="black"/>
<path fill-rule="evenodd" clip-rule="evenodd" d="M30.3013 37.7481C29.2013 36.5188 27.5894 35.7548 25.816 35.7548C22.4707 35.7548 19.764 38.4895 19.764 41.8334C19.764 44.2494 21.16 46.3281 23.212 47.3241C22.1347 47.7068 20.9494 47.9175 19.724 47.9175C13.5454 47.9175 9.11869 43.0241 9.11869 36.2401C9.11869 29.5228 13.5454 24.6521 19.724 24.6521C25.816 24.6521 30.3867 29.5228 30.3867 36.2401C30.3867 36.7521 30.364 37.2588 30.3013 37.7481ZM19.724 16.1748C8.36004 16.1748 0 25.0334 0 36.2401C0 47.5361 8.21204 56.3721 19.724 56.3721C31.1454 56.3721 39.5227 47.5361 39.5227 36.2401C39.5227 25.0334 31.1454 16.1748 19.724 16.1748Z" fill="black"/>
</svg>
