<svg width="325" height="100" viewBox="0 0 325 100" fill="none" xmlns="http://www.w3.org/2000/svg">
<path fill-rule="evenodd" clip-rule="evenodd" d="M245.086 82.7978H244.768C243.646 82.2131 243.627 82.5779 242.544 82.7978H240.319C239.026 82.61 239.082 82.6097 237.777 82.7978H237.459C236.644 82.6024 236.701 82.5344 235.857 82.4139C223.67 80.677 202.989 67.2805 209.678 40.6752C213.335 26.1281 227.157 19.6162 231.414 18.4322C265.833 8.85869 288.221 49.5453 264.542 73.1791C258.099 79.6097 254.419 80.5674 245.086 82.7978L237.146 21.4703C235.769 21.4923 234.392 21.4211 233.015 21.443C223.209 21.599 212.798 35.6044 219.582 53.7559C230.229 82.2442 259.916 86.7422 264.668 63.2424C267.194 50.7537 259.566 26 237.146 21.4703L245.086 82.7978Z" fill="black"/>
<path fill-rule="evenodd" clip-rule="evenodd" d="M203.3 47.3692C204.713 58.3898 197.243 82.0055 170.729 82.1231C151.806 82.2067 150.016 82.5591 151.116 81.4387C153.25 79.2655 156.294 76.4663 156.308 75.0129C156.346 70.8988 156.777 24.3425 156.05 23.5866C150.961 18.299 150.698 17.7976 151.294 17.681C153.625 17.2253 170.931 17.6565 172.638 17.6991C185.75 18.0254 194.244 26.5678 195.649 28.8548C198.636 33.7175 201.724 34.2268 203.3 47.3692L166.441 38.4702C166.441 78.8962 166.373 79.1524 166.876 79.2954C177.233 82.2416 199.369 66.4343 189.641 37.2513C187.466 30.727 183.116 26.3705 182.339 25.5917C174.995 18.2355 166.497 20.462 166.457 20.6387C166.437 20.7274 166.441 20.8837 166.441 38.4702L203.3 47.3692Z" fill="black"/>
<path fill-rule="evenodd" clip-rule="evenodd" d="M280.825 46.7322C280.825 23.9366 280.871 23.9286 280.606 23.5883C279.854 22.6248 274.1 17.7434 275.609 17.643C276.876 17.5588 297.811 17.6824 299.741 17.6938C322.138 17.826 322.265 48.5015 304.841 52.2228C303.246 52.5631 304.889 53.3013 315.838 69.3806C323.668 80.8782 324.365 80.4852 324.58 81.6723C324.686 82.2592 313.434 82.7483 312.391 81.4162C308.895 76.9545 309.212 76.7279 308.849 76.3968C307.233 74.9243 292.996 52.5577 291.446 52.9336C290.483 53.1668 290.901 76.1576 291.221 76.5516C293.315 79.1312 293.523 78.8465 295.762 81.2767C297.13 82.7607 295.228 82.141 294.657 82.1229C277.101 81.5671 277.056 82.6898 275.612 82.2033C275.053 82.0149 275.211 81.5392 280.14 76.3835C280.955 75.5309 280.825 75.3574 280.825 46.7322L292.432 50.3791C295.938 50.1532 305.114 50.9212 306.647 39.4128C308.889 22.5826 300.28 20.2721 291.798 20.186C290.768 20.1755 290.945 20.8396 290.945 45.7789C290.945 48.7293 289.485 50.1033 292.432 50.3791L280.825 46.7322Z" fill="black"/>
<path fill-rule="evenodd" clip-rule="evenodd" d="M62.37 61.8268C57.9528 61.7194 58.3478 60.6193 55.9973 59.1513C55.2261 58.6696 49.5607 76.0588 50.0717 76.4998C50.2169 76.6253 54.4104 81.1137 54.9515 81.5027C56.6001 82.6873 40.4311 82.0168 40.4305 82.0162C39.8623 81.2904 45.7202 77.3257 46.4651 74.6873C48.1349 68.7712 53.2382 55.1211 53.8686 53.4347C53.8842 53.3938 60.1381 34.6747 60.6833 33.0433C62.2852 28.2486 63.5171 28.118 61.4917 23.5006C59.1101 18.071 59.3112 17.7192 59.7942 17.7046C70.2572 17.3897 70.5228 17.3624 70.8622 18.181C76.6216 32.0646 75.4752 32.4275 81.0474 46.4487C81.2915 47.0633 94.1392 81.6545 93.8167 81.9895C93.2352 82.5935 93.1071 82.217 83.3388 82.1226C82.4268 82.1137 81.6324 78.9536 78.3446 69.8948C74.5959 59.5666 74.7434 59.3108 73.8409 59.0499C70.6722 58.1348 71.002 60.4522 62.37 61.8268L73.1212 55.3242C71.2785 51.4058 64.623 31.1615 64.391 32.1917C62.7558 39.4472 60.6852 42.518 56.99 55.0013C54.9786 61.7967 65.9423 49.9479 72.6309 55.8135C72.6719 55.8758 73.071 56.4767 73.1901 56.5571C73.9337 57.0575 73.1631 55.4138 73.1212 55.3242L62.37 61.8268Z" fill="black"/>
<path fill-rule="evenodd" clip-rule="evenodd" d="M141.495 82.7978H140.86C140.171 80.9408 130.244 67.1245 125.796 60.4687C124.751 58.9046 113.782 42.4906 112.517 41.0629C111.093 39.4563 106.223 31.6677 105.615 30.96C105.238 31.2895 105.405 31.3197 105.558 31.7868C105.844 35.4214 105.613 68.1369 105.684 75.0129C105.702 76.7727 110.1 80.7006 110.405 81.0018C111.271 81.8575 110.636 82.133 109.719 82.1238C97.9689 82.0069 97.9638 82.3224 96.961 82.1327C96.3652 82.0202 96.6934 81.5541 101.719 76.236C102.069 75.8655 102.391 26.6534 101.565 25.3553C97.5838 19.0967 95.3588 17.6575 97.9616 17.6928C98.4767 17.6998 108.866 17.6747 109.101 17.7141C109.758 17.8234 135.528 55.2933 137.753 59.3425C138.408 59.3514 138.203 59.081 137.958 58.4734C137.757 41.1786 137.981 30.6372 137.893 24.1745C137.881 23.3096 137.013 23.1094 136.515 22.492C133.801 19.1227 130.62 17.6436 133.869 17.6925C145.337 17.8654 148.172 16.975 146.31 18.8164C145.929 19.1936 141.942 23.1373 141.637 23.6257C141.066 24.5412 141.324 80.4699 141.495 82.7978Z" fill="black"/>
<path fill-rule="evenodd" clip-rule="evenodd" d="M39.0183 69.9265C38.916 70.6691 38.0749 79.3593 37.7555 81.0298C37.4664 82.5404 36.228 82.1232 24.8766 82.1232C1.33968 82.1232 -0.903087 82.8194 0.425476 81.3825C0.792173 80.9862 4.34157 77.148 5.07529 76.4909C5.42133 76.181 5.3778 76.0749 5.37748 26.0776C5.37748 21.5311 2.60119 21.4151 0.902436 18.858C0.712733 18.5727 -0.902134 17.6601 0.706695 17.6677C20.5357 17.7602 21.4966 17.3935 20.9948 18.0948C20.2262 19.1694 15.5325 23.376 15.5176 24.1539C15.481 26.0792 15.5411 75.5779 15.4839 78.5067C15.4632 79.5604 17.0098 79.3799 26.4642 79.339C27.4362 79.3348 27.6453 79.2347 33.6386 69.5366C39.4149 60.19 40.4076 59.5112 40.3348 60.4137C40.0247 64.2535 39.1524 69.1702 39.0183 69.9265Z" fill="black"/>
<path fill-rule="evenodd" clip-rule="evenodd" d="M240.319 82.7977H237.777C239.082 82.6096 239.026 82.6099 240.319 82.7977Z" fill="black"/>
<path fill-rule="evenodd" clip-rule="evenodd" d="M244.768 82.7978H242.544C243.627 82.578 243.646 82.2132 244.768 82.7978Z" fill="black"/>
<path fill-rule="evenodd" clip-rule="evenodd" d="M137.958 58.4736C138.203 59.0812 138.408 59.3516 137.753 59.3427C137.949 58.6716 137.981 58.6837 137.958 58.4736Z" fill="black"/>
<path fill-rule="evenodd" clip-rule="evenodd" d="M105.615 30.96C105.596 31.2355 105.577 31.5113 105.558 31.7868C105.405 31.3197 105.238 31.2895 105.615 30.96Z" fill="black"/>
</svg>
