<svg width="293" height="100" viewBox="0 0 293 100" fill="none" xmlns="http://www.w3.org/2000/svg">
<path d="M103.665 24.5C114.412 24.38 122.905 33.1173 122.625 44.0117L122.438 51.376L122.452 51.3799L82.585 51.8242L82.252 65.0205L89.2783 64.9414L89.5059 56.2334L122.346 55.8691L122.105 65.3545C121.959 70.9665 117.359 75.5718 111.825 75.6318L71.7637 76.0801C66.2266 76.1399 61.8468 71.6402 61.9854 66.0244L62.5156 44.6855C62.7863 33.7869 71.7232 24.8573 82.4658 24.7373L103.665 24.5ZM258.559 43.9707L242.985 44.1445L243.238 34.1631L227.278 34.3389L226.972 46.2373L243.665 46.0537L243.438 55.5537L226.919 55.5684L226.905 56.4189L226.438 75.126L202.665 75.3877L203.132 56.6855L209.559 56.6133L209.905 42.7266L203.479 42.7979L203.945 24.0908L210.372 24.0205L259.198 23.4629L258.559 43.9707ZM200.772 41.7744L190.025 41.8945L189.679 55.8838L200.426 55.9209L199.972 74.0986L173.612 74.3916L174.052 56.3203L178.999 56.2637L179.372 41.748L175.466 41.7891L168.398 63.7705L154.079 63.9297L148.905 41.8242L145.785 41.8613L145.679 56.3721L150.346 56.3203L149.893 74.6543L123.452 74.9521L123.905 56.6172L134.812 56.4932L135.172 42.2412L124.266 42.3613L124.719 24.1504L157.452 23.7871L161.985 49.8574L168.732 23.6582L201.238 23.2979L200.772 41.7744ZM280.519 59.0264L292.639 63.6025L292.372 74.2822L249.159 74.7637L249.425 64.084L260.212 59.252L260.771 36.5156L281.092 36.291L280.519 59.0264ZM28.4893 36.1504L23.0225 36.2148L22.3467 63.4004L33.2822 63.2744L33.4961 54.5654L60.6133 54.2598L60.1211 73.8691L0 74.543L0.270508 63.6436L7.08691 59.3467L7.66113 36.3838L0.948242 36.46L1.27832 23.3096L28.8164 23L28.4893 36.1504ZM83.1855 38.0986L83.0654 42.583L105.466 42.335L105.572 37.8506L83.1855 38.0986ZM281.132 34.4639L261.093 34.6846L261.359 23.8652L281.398 23.6406L281.132 34.4639Z" fill="black"/>
</svg>
