<svg width="394" height="100" viewBox="0 0 394 100" fill="none" xmlns="http://www.w3.org/2000/svg">
<path d="M0 37.1828H6.32397C6.71864 36.3428 7.66531 35.5268 9.16398 34.7375C10.6626 33.9468 13.084 33.5508 16.4267 33.5508C19.1933 33.5508 21.3667 33.8642 22.948 34.4895C24.5453 35.0988 25.6653 35.8068 26.3066 36.6148C26.9493 37.4042 27.4347 38.2855 27.764 39.2575C28.292 37.9402 29.4853 36.6641 31.3467 35.4281C33.224 34.1775 36.2453 33.5508 40.4119 33.5508C44.4786 33.5508 47.5586 34.2348 49.6506 35.6015C51.7586 36.9681 53.1413 38.7961 53.8 41.0854C54.4586 43.3574 54.788 46.2401 54.788 49.7308V69.7148H47.2053V51.5094C47.2053 48.2988 46.916 45.8775 46.34 44.2468C45.764 42.6002 44.924 41.5054 43.82 40.9614C42.7333 40.4014 41.26 40.1215 39.3987 40.1215C37.5213 40.1215 36.0226 40.4014 34.904 40.9614C33.8 41.5054 32.952 42.6002 32.3586 44.2468C31.7666 45.8935 31.4693 48.3148 31.4693 51.5094V69.7148H23.8613V51.5094C23.8613 48.2814 23.5906 45.8615 23.0466 44.2468C22.5026 42.6175 21.6626 41.5214 20.5266 40.9614C19.4066 40.4014 17.8267 40.1215 15.784 40.1215C13.808 40.1215 12.244 40.4014 11.0907 40.9614C9.93866 41.5214 9.06534 42.6255 8.472 44.2721C7.88 45.9015 7.58398 48.3148 7.58398 51.5094V69.7148H0V37.1828Z" fill="black"/>
<path d="M79.3652 70.4801C75.4852 70.4801 72.0732 69.7561 69.1412 68.3068C66.2105 66.8575 63.9292 64.7415 62.2999 61.9588C60.6692 59.1748 59.8533 55.8401 59.8533 51.9534C59.8533 48.0508 60.6612 44.7081 62.2746 41.9255C63.9052 39.1415 66.1853 37.0255 69.1173 35.5775C72.0653 34.1281 75.4852 33.4028 79.3652 33.4028C83.2586 33.4028 86.6585 34.1281 89.5919 35.5775C92.5385 37.0255 94.8319 39.1415 96.4586 41.9255C98.0852 44.7081 98.9119 48.0508 98.9119 51.9534C98.9119 55.8401 98.0852 59.1748 96.4586 61.9588C94.8319 64.7415 92.5385 66.8575 89.5919 68.3068C86.6585 69.7561 83.2586 70.4801 79.3652 70.4801ZM79.3652 63.8855C83.1252 63.8855 85.9652 62.8882 87.8852 60.8962C89.8319 58.8868 90.8052 55.9228 90.8052 52.0028C90.8052 48.0348 89.8319 45.0375 87.8852 43.0121C85.9652 40.9868 83.1252 39.9735 79.3652 39.9735C75.6186 39.9735 72.7733 40.9948 70.8466 43.0361C68.9199 45.0628 67.9559 48.0508 67.9559 52.0028C67.9559 55.9228 68.9199 58.8868 70.8466 60.8962C72.7733 62.8882 75.6186 63.8855 79.3652 63.8855Z" fill="black"/>
<path d="M112.912 40.888H99.152V34.292H134.259V40.888H120.499V69.7147H112.912V40.888Z" fill="black"/>
<path d="M144.912 69.7147C142.778 69.7147 141.192 69.196 140.139 68.1587C139.099 67.104 138.578 65.5147 138.578 63.3907V34.292H165.898V40.888H146.165V48.224H163.525V54.548H146.165V63.144H166.445V69.7147H144.912Z" fill="black"/>
<path d="M178.352 69.7147C176.232 69.7147 174.645 69.196 173.592 68.1587C172.552 67.104 172.032 65.5147 172.032 63.3907V34.292H179.619V63.144H199.645V69.7147H178.352Z" fill="black"/>
<path d="M301.752 70.4801C297.858 70.4801 294.459 69.7561 291.525 68.3068C288.592 66.8575 286.312 64.7415 284.685 61.9588C283.045 59.1748 282.232 55.8401 282.232 51.9534C282.232 48.0508 283.045 44.7081 284.659 41.9255C286.285 39.1415 288.565 37.0255 291.499 35.5775C294.445 34.1281 297.858 33.4028 301.752 33.4028C305.632 33.4028 309.045 34.1281 311.979 35.5775C314.925 37.0255 317.219 39.1415 318.845 41.9255C320.472 44.7081 321.285 48.0508 321.285 51.9534C321.285 55.8401 320.472 59.1748 318.845 61.9588C317.219 64.7415 314.925 66.8575 311.979 68.3068C309.045 69.7561 305.632 70.4801 301.752 70.4801ZM301.752 63.8855C305.498 63.8855 308.339 62.8882 310.272 60.8962C312.219 58.8868 313.192 55.9228 313.192 52.0028C313.192 48.0348 312.219 45.0375 310.272 43.0121C308.339 40.9868 305.498 39.9735 301.752 39.9735C297.992 39.9735 295.152 40.9948 293.232 43.0361C291.298 45.0628 290.339 48.0508 290.339 52.0028C290.339 55.9228 291.298 58.8868 293.232 60.8962C295.152 62.8882 297.992 63.8855 301.752 63.8855Z" fill="black"/>
<path d="M326.378 37.5282H332.179C333.139 36.2442 334.618 35.2641 336.605 34.5894C338.592 33.8974 340.952 33.5508 343.672 33.5508C347.925 33.5508 351.178 34.2588 353.445 35.6761C355.738 37.0748 357.285 38.9281 358.072 41.2335C358.858 43.5388 359.258 46.3388 359.258 49.6322V69.7148H351.672V51.3121C351.672 48.1828 351.339 45.8121 350.685 44.1974C350.045 42.5841 349.098 41.5054 347.872 40.9614C346.645 40.4014 345.005 40.1215 342.925 40.1215C340.925 40.1215 339.285 40.3935 338.019 40.9375C336.752 41.4642 335.752 42.5428 335.019 44.1735C334.312 45.7868 333.965 48.1668 333.965 51.3121V69.7148H326.378V37.5282Z" fill="black"/>
<path d="M371.685 69.7147C369.565 69.7147 367.965 69.196 366.912 68.1587C365.885 67.104 365.365 65.5147 365.365 63.3907V34.292H392.685V40.888H372.939V48.224H390.312V54.548H372.939V63.144H393.218V69.7147H371.685Z" fill="black"/>
<path d="M204.819 58.312C204.819 44.172 220.592 33.7014 232.565 29.4227C238.779 27.1814 245.005 26 250.712 26C261.498 26 276.845 29.3814 276.845 43.888C276.845 53.7493 267.539 64.9533 252.992 70.6186C251.005 71.3933 248.045 72.2093 246.059 72.2093C243.352 72.2093 242.045 70.9453 242.045 69.1506C242.045 66.908 244.752 59.7387 246.939 54.1147C250.752 44.2547 254.139 37.368 254.645 36.1867C254.725 35.9814 254.765 35.9 254.765 35.8187C254.765 35.7387 254.725 35.6973 254.552 35.6973H249.272C249.059 35.6973 248.978 35.7387 248.885 35.78C242.552 39.0387 235.605 40.9547 228.765 41.6453C228.632 41.6453 228.592 41.728 228.552 41.808L226.939 45.1093C226.819 45.3546 226.938 45.396 227.032 45.396C229.818 45.2733 230.912 45.2734 231.432 45.2734C234.005 45.2734 237.139 45.396 237.139 48.1667C237.139 49.9587 236.419 52.608 231.512 63.8546C229.059 69.4773 226.472 74 221.352 74C212.725 74 204.819 66.868 204.819 58.3106" fill="black"/>
</svg>
