<svg width="281" height="100" viewBox="0 0 281 100" fill="none" xmlns="http://www.w3.org/2000/svg">
<path fill-rule="evenodd" clip-rule="evenodd" d="M56.8799 45.1226C50.0399 45.1226 44.4933 39.5734 44.4933 32.728C44.4933 25.88 50.0399 20.3306 56.8799 20.3306C63.7332 20.3306 69.2799 25.88 69.2799 32.728C69.2799 39.5734 63.7332 45.1226 56.8799 45.1226ZM42.6667 7C19.0933 7 0 26.1027 0 49.6667C0 73.2293 19.0933 92.3333 42.6667 92.3333C66.2267 92.3333 85.3333 73.2293 85.3333 49.6667C85.3333 26.1027 66.2267 7 42.6667 7Z" fill="black"/>
<path fill-rule="evenodd" clip-rule="evenodd" d="M116.453 57.4745C109.907 56.0945 108.28 54.8172 108.28 52.7225C108.28 50.0132 110.267 48.2252 115.68 48.2252C119.52 48.2252 122.627 49.3518 124.773 51.6505H124.987V48.4305C124.987 45.5198 122.627 42.0439 114.453 42.0439C106.227 42.0439 101.333 47.5612 101.333 53.3879C101.333 58.1385 104.693 61.1038 110.627 62.3785C118.027 63.9625 118.947 65.0371 118.947 67.4385C118.947 70.2478 117.267 72.0358 112 72.0358C107.76 72.0358 104.6 70.3519 102.253 68.2559H102.093V71.3718C102.093 75.5105 105.72 78.2705 112.773 78.2705C121.253 78.2705 125.947 73.7225 125.947 66.8252C125.947 62.1239 122.84 58.8039 116.453 57.4745ZM142.813 56.1465C145.627 56.1465 146.907 54.3065 146.907 52.8745V50.0652H137.347V43.8332H135.76C134.693 43.8332 133.467 44.6478 132.547 45.7225C131.067 47.4598 130.56 48.4812 130.56 51.1905V67.7452C130.56 74.1839 133.933 77.9625 140.88 77.9625C144.867 77.9625 146.907 76.1745 146.907 73.3638V70.9119H146.653C145.573 71.5759 143.893 71.8839 141.693 71.8839C138.933 71.8839 137.347 70.5038 137.347 66.9278V56.1465H142.813ZM155.547 61.0518C155.693 57.8852 158 55.1759 161.32 55.1759C164.48 55.1759 166.533 56.5545 166.533 59.3131C166.533 61.2545 165.04 61.9718 158.56 61.9718H155.493L155.547 61.0518ZM163.253 72.4958C159.227 72.4958 156.053 70.3012 155.547 66.8252H160.04C169.133 66.8252 172.96 65.1905 172.96 60.1305C172.96 53.5412 167.653 49.4532 161.933 49.4532C154.067 49.4532 148.44 55.2265 148.44 64.4238C148.44 72.8532 155.133 78.2705 161.987 78.2705C169.547 78.2705 171.947 75.5611 171.947 72.0358V69.8905H171.68C169.493 71.9359 166.12 72.4958 163.253 72.4958ZM187.12 49.8092C179.867 49.8092 176.96 55.0732 176.96 60.5905V73.2625C176.96 76.1225 178.893 77.6571 181.96 77.6571H183.853V61.8185C183.853 57.6279 185.533 55.9412 188.6 55.9412C190.387 55.9412 191.56 56.3518 192.587 56.7585H192.84V54.3065C192.84 52.2118 191.36 49.8092 187.12 49.8092ZM207.16 72.2918C203.933 72.2918 202.507 71.4225 202.507 68.6638V45.4692C202.507 42.8612 201.027 40.8691 197.6 40.8691H195.667V69.3278C195.667 74.8971 198.733 77.9132 204.4 77.9132C207.413 77.9132 209 76.7372 209 73.7732V72.2918H207.16ZM215.027 40.1025C212.84 40.1025 211.053 41.8905 211.053 44.0878C211.053 46.2865 212.84 48.1239 215.027 48.1239C217.227 48.1239 219.067 46.2865 219.067 44.0878C219.067 41.8905 217.227 40.1025 215.027 40.1025ZM222.693 72.2918C219.68 72.2918 218.507 71.4225 218.507 68.6638V55.7878C218.507 52.3132 216.667 50.6785 213.6 50.6785H211.667V69.3278C211.667 74.8971 214.573 77.9132 219.88 77.9132C222.8 77.9132 223.973 76.7372 223.973 73.7732V72.2918H222.693ZM238.947 49.4532C230.36 49.4532 226.533 55.4305 226.533 61.2545V73.1598C226.533 75.7158 228.427 77.6571 231.333 77.6571H233.373V61.7145C233.373 57.7812 235.427 55.5318 238.387 55.5318C241.907 55.5318 243.947 57.5758 243.947 62.2252V73.1598C243.947 75.7158 245.893 77.6571 248.96 77.6571H250.8V61.6118C250.8 53.7945 245.44 49.4532 238.947 49.4532ZM267.56 68.8691C264.293 68.8691 262.093 66.2105 262.093 62.6358C262.093 58.4958 264.747 55.5318 268.28 55.5318C271.293 55.5318 273.44 57.6278 273.44 61.9211C273.44 66.3131 270.987 68.8691 267.56 68.8691ZM280.387 69.9412C280.333 68.7172 280.28 67.1319 280.28 66.2105V61.5105C280.28 54.4598 275.893 49.4532 269.04 49.4532C260.16 49.4532 255.053 55.7372 255.053 63.5038C255.053 69.9932 259.8 74.6425 266.493 74.6425C270.427 74.6425 273.027 72.5465 273.587 70.5545V71.2185C273.587 71.4745 273.64 72.1892 273.64 72.5998C273.693 73.0572 273.693 73.6212 273.693 74.0278C273.693 78.0132 271.44 80.3638 266.493 80.3638C262.56 80.3638 259.387 79.1385 257.76 77.4025H257.453V80.5185C257.453 83.7878 261.333 86.5465 267 86.5465C275.893 86.5465 280.48 80.3638 280.48 73.4678C280.48 72.5465 280.44 71.0665 280.387 69.9412Z" fill="black"/>
</svg>
