<svg width="72" height="72" viewBox="0 0 72 72" fill="none" xmlns="http://www.w3.org/2000/svg">
<rect width="72" height="72" rx="19.1443" fill="#021DFF"/>
<path d="M53.8479 15.4736C54.4599 15.4736 54.9543 15.9692 54.9552 16.5797V23.9429C54.955 24.5539 54.4596 25.0496 53.8479 25.0496H23.851C23.8483 25.0496 23.8457 25.049 23.843 25.049C23.8433 25.0588 23.8448 25.0686 23.8448 25.0785V49.2327C23.8448 49.2425 23.8433 49.2524 23.843 49.2622H53.8479C54.4598 49.2622 54.9543 49.7579 54.9552 50.3683V57.7315C54.9551 58.3426 54.4597 58.8382 53.8479 58.8382H23.851C23.24 58.8381 22.7444 58.3428 22.7443 57.7315V50.3597C22.7353 50.3599 22.7263 50.3615 22.7172 50.3615H15.3522C15.055 50.3608 14.7679 50.2434 14.5554 50.0307L14.4804 49.9477C14.3158 49.7469 14.2246 49.4945 14.2246 49.2327V25.0785C14.2247 24.7796 14.3433 24.4917 14.5554 24.2798C14.767 24.0685 15.0543 23.9497 15.3534 23.9497H22.716C22.7255 23.9497 22.7349 23.9507 22.7443 23.9509V16.5803C22.7443 15.9689 23.24 15.4737 23.851 15.4736H53.8479Z" fill="white"/>
</svg>
