<svg width="32" height="32" viewBox="0 0 32 32" fill="none" xmlns="http://www.w3.org/2000/svg">
<g clip-path="url(#clip0_298_15369)">
<rect width="32" height="32" fill="#01AB41"/>
<g clip-path="url(#clip1_298_15369)">
<path d="M18.5414 21.304C20.12 21.304 21.6667 20.9413 23.1814 20.216C24.7174 19.4693 26.072 18.3813 27.2454 16.952C26.904 19.256 26.2 21.208 25.1334 22.808C24.0667 24.3867 22.776 25.5707 21.2614 26.36C19.7467 27.128 18.136 27.512 16.4294 27.512C14.5094 27.512 12.6747 27.0427 10.9254 26.104C9.19738 25.1653 7.78937 23.8213 6.70138 22.072C5.61338 20.3227 5.06938 18.2853 5.06938 15.96C5.06938 13.6773 5.58138 11.64 6.60538 9.848C7.65071 8.03467 9.08004 6.62667 10.8934 5.624C12.7067 4.6 14.744 4.088 17.0054 4.088C18.776 4.088 20.5254 4.39733 22.2534 5.016C24.0027 5.61333 25.464 6.43467 26.6374 7.48L21.7094 12.376L15.7254 5.016C13.9974 5.656 12.6747 6.69067 11.7574 8.12C10.8614 9.54933 10.4134 11.16 10.4134 12.952C10.4134 14.4667 10.744 15.864 11.4054 17.144C12.0667 18.4027 13.0054 19.416 14.2214 20.184C15.4587 20.9307 16.8987 21.304 18.5414 21.304Z" fill="black"/>
</g>
</g>
<defs>
<clipPath id="clip0_298_15369">
<rect width="32" height="32" fill="white"/>
</clipPath>
<clipPath id="clip1_298_15369">
<rect width="32" height="32" fill="white"/>
</clipPath>
</defs>
</svg>
