<svg width="147" height="148" viewBox="0 0 147 148" fill="none" xmlns="http://www.w3.org/2000/svg">
<path d="M77.0228 43.8683C77.6143 43.5268 78.3687 43.7299 78.7102 44.3194L82.819 51.4361C83.1597 52.0268 82.9575 52.7823 82.3663 53.1236L53.3739 69.8624C53.3713 69.8639 53.3684 69.8648 53.3658 69.8663C53.3716 69.8756 53.3786 69.8842 53.3841 69.8938L66.8625 93.2391C66.868 93.2486 66.872 93.2591 66.8772 93.2687L95.8774 76.5254C96.4688 76.1839 97.2233 76.3871 97.5648 76.9766L101.674 84.0932C102.014 84.6839 101.812 85.4394 101.221 85.7807L72.2285 102.52C71.6379 102.86 70.8825 102.658 70.5413 102.067L66.4277 94.9425C66.4191 94.9477 66.4113 94.9543 66.4026 94.9594L59.2842 99.0692C58.9965 99.2343 58.6535 99.2811 58.3294 99.1941L58.2106 99.1558C57.9395 99.0535 57.7106 98.8604 57.5644 98.6074L44.086 75.262C43.9193 74.973 43.8732 74.6287 43.96 74.3055C44.0466 73.9832 44.258 73.7081 44.5471 73.5411L51.6631 69.4326C51.6723 69.4274 51.6819 69.4231 51.6912 69.418L47.5782 62.2943C47.2371 61.7033 47.4398 60.9481 48.0303 60.6071L77.0228 43.8683Z" fill="#021DFF"/>
<path d="M17.4175 44.3169C17.5762 44.333 17.7474 44.3658 17.9313 44.4152C18.1234 44.4478 18.2864 44.4973 18.4202 44.5636L22.209 46.4401C22.3428 46.5064 22.4809 46.606 22.6233 46.7391C22.774 46.8554 22.8955 46.9676 22.9877 47.0758L24.1528 50.5275C24.1617 50.6777 24.1373 50.8531 24.0797 51.0537C24.0303 51.2375 23.9724 51.3964 23.9061 51.5302L19.1838 61.0648C19.0264 61.3826 18.7887 61.4628 18.4709 61.3054L15.4349 59.8017C15.3011 59.7354 15.2131 59.6397 15.1709 59.5147C15.1202 59.3646 15.128 59.2227 15.1943 59.0888L19.4196 50.5579C19.4859 50.4241 19.4979 50.2946 19.4557 50.1696C19.4217 50.0278 19.3379 49.9237 19.204 49.8575L17.1215 48.826C16.9877 48.7597 16.8541 48.756 16.7207 48.815C16.579 48.8489 16.4749 48.9328 16.4086 49.0666L13.6249 54.687C13.5586 54.8208 13.4674 54.9631 13.3511 55.1138C13.2348 55.2645 13.1225 55.386 13.0143 55.4782L9.56264 56.6433C9.39569 56.6439 9.22028 56.6195 9.03644 56.5701C8.8526 56.5207 8.69377 56.4629 8.55995 56.3966L4.77119 54.5201C4.63737 54.4538 4.49511 54.3625 4.34441 54.2462C4.1937 54.1299 4.07638 54.0093 3.99242 53.8844L2.82735 50.4327C2.83517 50.2908 2.86377 50.1279 2.91316 49.944C2.94583 49.7519 2.9953 49.5889 3.06158 49.4551L7.52298 40.4474C7.58926 40.3136 7.69329 40.2297 7.83508 40.1958C7.96843 40.1369 8.10201 40.1405 8.23583 40.2068L11.322 41.7354C11.4559 41.8016 11.5481 41.9098 11.5987 42.0599C11.641 42.185 11.6289 42.3144 11.5626 42.4482L7.59834 50.4523C7.53206 50.5861 7.51588 50.7239 7.54981 50.8657C7.59202 50.9907 7.68004 51.0864 7.81386 51.1527L9.84624 52.1593C9.98005 52.2256 10.1179 52.2418 10.2596 52.2078C10.393 52.1489 10.4928 52.0525 10.5591 51.9187L13.3428 46.2983C13.4091 46.1645 13.5004 46.0222 13.6167 45.8715C13.7413 45.7041 13.8576 45.5742 13.9658 45.482L17.4175 44.3169Z" fill="#021DFF"/>
<path d="M30.9467 18.9415C31.0407 19.0576 31.0795 19.1943 31.063 19.3519C31.0492 19.4831 30.9844 19.5958 30.8683 19.6898L27.7793 22.193C27.6632 22.2871 27.5911 22.4056 27.5628 22.5486C27.5491 22.6799 27.5892 22.8035 27.6832 22.9196L36.3741 33.6443C36.4681 33.7603 36.5141 33.8912 36.5121 34.037C36.4983 34.1683 36.4334 34.2809 36.3174 34.3749L33.2936 36.8253C33.1776 36.9193 33.0467 36.9653 32.9009 36.9633C32.7579 36.9351 32.6394 36.8629 32.5453 36.7469L23.8545 26.0222C23.7605 25.9061 23.6479 25.8412 23.5166 25.8275C23.3853 25.8137 23.2617 25.8539 23.1456 25.9479L20.0566 28.4511C19.9405 28.5451 19.8096 28.5912 19.6639 28.5892C19.5208 28.5609 19.4023 28.4888 19.3083 28.3727L16.9813 25.5012C16.7581 25.2257 16.7842 24.9762 17.0597 24.7529L27.8715 15.9916C27.9875 15.8976 28.117 15.8647 28.2601 15.893C28.4058 15.895 28.5257 15.954 28.6198 16.07L30.9467 18.9415Z" fill="#021DFF"/>
<path d="M58.9551 5.40609C59.0405 5.51981 59.1255 5.67201 59.2104 5.86269C59.3089 6.03082 59.3759 6.18743 59.4112 6.33253L63.0265 21.1869C63.0618 21.332 63.0361 21.4631 62.9494 21.5803C62.8808 21.6931 62.7739 21.7671 62.6288 21.8024L58.8472 22.7228C58.7021 22.7581 58.5732 22.7415 58.4604 22.6729C58.3477 22.6042 58.2736 22.4974 58.2383 22.3523L57.0464 17.4552C57.0111 17.3101 56.928 17.2055 56.7971 17.1413C56.6844 17.0727 56.5554 17.056 56.4103 17.0914L51.0236 18.4024C50.8785 18.4377 50.7626 18.514 50.6758 18.6311C50.6072 18.7439 50.5906 18.8728 50.6259 19.0179L51.8177 23.915C51.8531 24.0601 51.8364 24.189 51.7678 24.3018C51.6992 24.4145 51.5923 24.4886 51.4472 24.5239L47.6656 25.4443C47.5205 25.4796 47.3825 25.4651 47.2516 25.4009C47.1389 25.3323 47.0648 25.2255 47.0295 25.0804L43.3943 10.1444C43.3771 9.99487 43.3668 9.83408 43.3633 9.66202C43.3599 9.48996 43.3699 9.33382 43.3934 9.19362L45.2872 6.0815C45.4009 5.99619 45.544 5.91333 45.7166 5.83291C45.8847 5.73436 46.0413 5.66742 46.1864 5.6321L54.8106 3.53308C54.9557 3.49776 55.1256 3.48524 55.3202 3.49551C55.5286 3.48322 55.7028 3.48883 55.843 3.51235L58.9551 5.40609ZM54.762 8.06925L48.3414 9.63193L49.5135 14.4474L55.934 12.8847L54.762 8.06925Z" fill="#021DFF"/>
<path d="M90.1615 2.07667C90.3094 2.09775 90.4216 2.17031 90.4982 2.29437C90.5959 2.40257 90.6342 2.5306 90.6131 2.67843L89.2773 12.0477C89.2562 12.1955 89.2035 12.3671 89.119 12.5625C89.0557 12.742 88.9871 12.8925 88.9133 13.014L85.9994 15.2006C85.8622 15.2376 85.688 15.2693 85.4768 15.2958C85.2867 15.3064 85.1178 15.3011 84.9699 15.2801L83.3899 15.0548L82.6469 20.2661C82.6258 20.4139 82.5519 20.5354 82.4252 20.6305C82.3197 20.7097 82.193 20.7388 82.0451 20.7177L78.1921 20.1683C78.0443 20.1473 77.9307 20.0839 77.8515 19.9784C77.7749 19.8543 77.7472 19.7184 77.7682 19.5705L78.5112 14.3592L76.9035 14.13C76.7557 14.1089 76.592 14.0667 76.4124 14.0034C76.2356 13.9216 76.0864 13.8438 75.9649 13.7699L73.7783 10.8561C73.7228 10.7162 73.6898 10.5512 73.6792 10.3612C73.6712 10.1526 73.6778 9.97442 73.6988 9.82658L75.0347 0.457327C75.0557 0.30949 75.1191 0.195958 75.2246 0.116733C75.3513 0.0216617 75.4886 -0.0153326 75.6364 0.0057455L79.2954 0.527429C79.4433 0.548507 79.5555 0.621072 79.6321 0.745125C79.7113 0.850698 79.7404 0.977401 79.7193 1.12524L78.5415 9.3857C78.5205 9.53354 78.5482 9.66949 78.6248 9.79354C78.7225 9.90175 78.8453 9.96639 78.9931 9.98747L84.1213 10.7186C84.4724 10.7687 84.673 10.6181 84.723 10.267L85.9008 2.00657C85.9218 1.85873 85.9852 1.7452 86.0907 1.66597C86.2174 1.5709 86.3547 1.53391 86.5025 1.55499L90.1615 2.07667Z" fill="#021DFF"/>
<path d="M120.393 25.1192C120.297 25.0049 120.177 24.9349 120.033 24.9093C119.902 24.8979 119.779 24.9403 119.665 25.0364L112.722 30.8757C112.608 30.9719 112.538 31.0917 112.512 31.2352C112.513 31.381 112.561 31.511 112.657 31.6253L118.442 38.5039C118.539 38.6182 118.581 38.7411 118.57 38.8726C118.57 39.0184 118.513 39.1393 118.399 39.2355L115.571 41.6144C115.456 41.7106 115.32 41.7518 115.162 41.7382C115.031 41.7268 114.917 41.664 114.821 41.5497L107.954 33.3854C107.858 33.2711 107.764 33.1306 107.673 32.9637C107.581 32.7968 107.522 32.6393 107.495 32.4912L107.808 28.8617C107.86 28.7205 107.946 28.5755 108.065 28.4268C108.183 28.278 108.3 28.1556 108.414 28.0595L117.628 20.3098C117.743 20.2137 117.883 20.1198 118.05 20.0282C118.217 19.9367 118.375 19.8774 118.523 19.8504L122.152 20.1638C122.279 20.2277 122.399 20.2977 122.512 20.3737C122.651 20.4519 122.744 20.5196 122.792 20.5767L129.821 28.9339C129.917 29.0482 129.952 29.1771 129.927 29.3206C129.927 29.4664 129.871 29.5874 129.756 29.6835L126.928 32.0625C126.813 32.1586 126.677 32.1998 126.52 32.1862C126.388 32.1748 126.274 32.112 126.178 31.9977L120.393 25.1192Z" fill="#021DFF"/>
<path d="M141.435 60.8908C141.321 60.9763 141.178 61.0595 141.006 61.1402C140.838 61.2391 140.681 61.3063 140.536 61.3419L128.843 64.2105C128.698 64.246 128.528 64.2589 128.333 64.249C128.143 64.2572 127.978 64.2497 127.838 64.2264L124.722 62.3383C124.619 62.2292 124.524 62.0794 124.439 61.8889C124.358 61.7165 124.3 61.5578 124.264 61.4127L122.15 52.7923C122.114 52.6473 122.092 52.4797 122.084 52.2895C122.076 52.0993 122.092 51.9319 122.134 51.7872L124.022 48.6716C124.131 48.568 124.272 48.4758 124.444 48.3951C124.617 48.3143 124.775 48.2562 124.92 48.2206L136.614 45.352C136.759 45.3164 136.926 45.2945 137.116 45.2863C137.307 45.2781 137.474 45.2947 137.619 45.336L140.734 47.2241C140.82 47.3377 140.903 47.4807 140.984 47.653C141.082 47.821 141.15 47.9775 141.185 48.1225L143.3 56.7429C143.336 56.8879 143.348 57.0578 143.339 57.2524C143.351 57.4607 143.346 57.635 143.323 57.7753L141.435 60.8908ZM138.404 56.7621L136.836 50.3716L127.019 52.7799L128.587 59.1704L138.404 56.7621Z" fill="#021DFF"/>
<path d="M140.066 93.7036C139.926 93.7282 139.761 93.7374 139.571 93.7312C139.376 93.7431 139.206 93.732 139.061 93.6979L124.177 90.2069C124.031 90.1728 123.917 90.0885 123.833 89.9539C123.764 89.8417 123.746 89.7129 123.78 89.5675L124.669 85.7783C124.703 85.6329 124.778 85.5164 124.895 85.4287C125.025 85.3634 125.163 85.3478 125.308 85.3819L138.748 88.5339C138.893 88.568 139.022 88.5503 139.134 88.4807C139.246 88.4112 139.319 88.3037 139.353 88.1583L140.619 82.7608C140.653 82.6154 140.638 82.4775 140.573 82.3472C140.503 82.235 140.396 82.1619 140.25 82.1278L126.811 78.9757C126.466 78.8947 126.333 78.6816 126.414 78.3363L127.297 74.5744C127.378 74.2291 127.591 74.0969 127.936 74.1779L145.982 78.4105C146.128 78.4446 146.235 78.5177 146.305 78.6299C146.388 78.7645 146.413 78.9045 146.379 79.0499L143.61 90.8536C143.576 90.999 143.511 91.1562 143.414 91.3251C143.33 91.5165 143.247 91.6694 143.162 91.7838L140.066 93.7036Z" fill="#021DFF"/>
<path d="M123.94 122.345C123.804 122.304 123.652 122.237 123.486 122.145C123.307 122.067 123.161 121.98 123.047 121.884L111.373 112.012C111.259 111.915 111.196 111.788 111.183 111.63C111.172 111.499 111.214 111.376 111.311 111.262L113.824 108.29C113.92 108.176 114.04 108.106 114.184 108.081C114.33 108.082 114.46 108.131 114.574 108.227L125.114 117.141C125.228 117.238 125.351 117.28 125.482 117.269C125.614 117.258 125.728 117.196 125.824 117.082L129.404 112.849C129.501 112.735 129.549 112.605 129.55 112.459C129.539 112.327 129.477 112.213 129.363 112.117L118.823 103.203C118.552 102.974 118.531 102.724 118.76 102.453L121.255 99.5031C121.484 99.2323 121.734 99.2114 122.005 99.4404L136.158 111.41C136.272 111.506 136.335 111.62 136.346 111.752C136.359 111.91 136.317 112.046 136.221 112.16L128.392 121.417C128.295 121.531 128.166 121.641 128.002 121.748C127.841 121.88 127.697 121.978 127.57 122.042L123.94 122.345Z" fill="#021DFF"/>
<path d="M106.351 134.605C106.437 134.568 106.461 134.506 106.424 134.421L105.21 131.621C105.18 131.552 105.123 131.536 105.037 131.574L97.7153 134.747C97.5783 134.807 97.4447 134.804 97.3145 134.738C97.1746 134.697 97.075 134.608 97.0156 134.471L95.902 131.902C95.7609 131.576 95.8531 131.343 96.1785 131.202L103.5 128.028C103.586 127.991 103.61 127.93 103.573 127.844L102.37 125.07C102.333 124.984 102.272 124.96 102.186 124.997L93.5799 128.727C93.4429 128.787 93.3093 128.784 93.1791 128.718C93.0392 128.677 92.9396 128.588 92.8802 128.451L91.4882 125.24C91.4288 125.103 91.4282 124.961 91.4864 124.813C91.5349 124.69 91.6277 124.599 91.7647 124.54L101.553 120.297C101.69 120.238 101.851 120.188 102.037 120.148C102.223 120.108 102.391 120.096 102.541 120.113L105.929 121.452C106.049 121.542 106.164 121.665 106.272 121.822C106.381 121.978 106.465 122.125 106.524 122.262L111.313 133.309C111.372 133.446 111.422 133.607 111.462 133.793C111.502 133.979 111.514 134.147 111.497 134.297L110.158 137.685C110.06 137.788 109.933 137.894 109.777 138.003C109.628 138.128 109.485 138.221 109.348 138.28L99.5601 142.523C99.423 142.582 99.2895 142.579 99.1593 142.514C99.0194 142.473 98.9197 142.384 98.8604 142.247L97.4572 139.01C97.3978 138.873 97.4009 138.739 97.4666 138.609C97.5151 138.486 97.6078 138.395 97.7449 138.336L106.351 134.605Z" fill="#021DFF"/>
<path d="M76.5573 143.163C76.7065 143.169 76.8389 143.127 76.9545 143.038C77.0515 142.949 77.1029 142.83 77.1088 142.68L77.4676 133.615C77.4735 133.466 77.4321 133.334 77.3433 133.218C77.235 133.12 77.1063 133.069 76.9571 133.063L67.9761 132.707C67.8269 132.701 67.7075 132.65 67.6179 132.553C67.5097 132.455 67.4586 132.332 67.4645 132.183L67.6107 128.49C67.6166 128.34 67.6777 128.212 67.794 128.104C67.891 128.015 68.0141 127.973 68.1633 127.979L78.8229 128.401C78.9722 128.407 79.1393 128.432 79.3243 128.477C79.5094 128.521 79.6657 128.584 79.7933 128.664L82.2654 131.339C82.3349 131.473 82.3845 131.634 82.4145 131.822C82.4444 132.01 82.4564 132.178 82.4505 132.327L81.9743 144.358C81.9684 144.507 81.9431 144.674 81.8984 144.859C81.8537 145.044 81.7915 145.201 81.7117 145.328L79.0358 147.801C78.903 147.851 78.7706 147.893 78.6386 147.925C78.4872 147.975 78.3741 147.999 78.2995 147.996L67.3881 147.564C67.2389 147.558 67.1198 147.497 67.031 147.381C66.9228 147.284 66.8716 147.16 66.8775 147.011L67.0237 143.318C67.0296 143.169 67.0907 143.04 67.2071 142.933C67.304 142.843 67.4271 142.801 67.5763 142.807L76.5573 143.163Z" fill="#021DFF"/>
<path d="M38.5991 134.943C38.6669 134.81 38.7761 134.719 38.9267 134.67C39.0523 134.629 39.1816 134.642 39.3146 134.71L42.8576 136.515C42.9907 136.582 43.1283 136.6 43.2704 136.568C43.396 136.527 43.4926 136.44 43.5604 136.307L49.8251 124.006C49.8929 123.873 49.9938 123.778 50.1278 123.721C50.2533 123.68 50.3826 123.693 50.5157 123.761L53.9838 125.527C54.1168 125.595 54.2121 125.696 54.2695 125.83C54.3019 125.972 54.2842 126.11 54.2164 126.243L47.9516 138.543C47.8839 138.677 47.8704 138.806 47.9112 138.931C47.952 139.057 48.0389 139.154 48.172 139.221L51.715 141.026C51.848 141.094 51.9433 141.194 52.0007 141.328C52.0331 141.471 52.0154 141.608 51.9476 141.741L50.2702 145.035C50.1093 145.351 49.8708 145.428 49.5547 145.267L37.1544 138.952C37.0213 138.884 36.9386 138.779 36.9063 138.637C36.8488 138.503 36.854 138.369 36.9218 138.236L38.5991 134.943Z" fill="#021DFF"/>
<path d="M22.9817 122.673C23.0395 122.747 23.105 122.754 23.1783 122.697L25.5756 120.808C25.6343 120.762 25.6347 120.702 25.5769 120.629L20.6383 114.36C20.5459 114.243 20.5148 114.113 20.545 113.971C20.549 113.825 20.6097 113.706 20.727 113.613L22.9263 111.88C23.2049 111.661 23.454 111.691 23.6735 111.969L28.6121 118.237C28.6698 118.311 28.7354 118.318 28.8087 118.261L31.184 116.389C31.2573 116.331 31.2651 116.266 31.2073 116.193L25.4023 108.825C25.3099 108.707 25.2788 108.577 25.309 108.435C25.313 108.289 25.3736 108.17 25.4909 108.078L28.2401 105.911C28.3574 105.819 28.4947 105.782 28.652 105.801C28.7831 105.816 28.8948 105.883 28.9873 106L35.5894 114.38C35.6818 114.497 35.7711 114.641 35.8573 114.81C35.9435 114.98 35.9977 115.139 36.02 115.288L35.5908 118.906C35.5343 119.045 35.4444 119.187 35.3208 119.332C35.1973 119.477 35.0769 119.596 34.9596 119.688L25.5023 127.139C25.385 127.232 25.2415 127.321 25.0718 127.407C24.9021 127.494 24.7428 127.548 24.5939 127.57L20.9763 127.141C20.8514 127.073 20.7166 126.977 20.5717 126.854C20.4122 126.742 20.2862 126.627 20.1938 126.51L13.5917 118.13C13.4992 118.013 13.4681 117.883 13.4984 117.74C13.5024 117.594 13.563 117.475 13.6803 117.383L16.4515 115.2C16.5688 115.107 16.6988 115.076 16.8414 115.106C16.9725 115.122 17.0842 115.188 17.1766 115.306L22.9817 122.673Z" fill="#021DFF"/>
<path d="M1.75873 86.6321C1.86837 86.5416 2.00752 86.4522 2.17615 86.3639C2.33954 86.2577 2.49288 86.1836 2.63619 86.1416L14.1904 82.7559C14.3337 82.7139 14.5028 82.6935 14.6976 82.6948C14.8873 82.6781 15.0527 82.6783 15.1938 82.6953L18.3902 84.443C18.4986 84.5474 18.5996 84.6928 18.6932 84.8794C18.7815 85.048 18.8467 85.204 18.8887 85.3473L22.298 96.9821C22.3977 97.3224 22.2774 97.5425 21.937 97.6422L4.14899 102.855C4.00568 102.897 3.87612 102.886 3.76031 102.823C3.62133 102.747 3.53085 102.637 3.48885 102.494L0.0795433 90.8589C0.0375502 90.7156 0.017178 90.5465 0.0184275 90.3516C-0.00348676 90.144 -0.0059452 89.9697 0.0110517 89.8286L1.75873 86.6321ZM6.82061 96.9365L16.5207 94.0941L14.6704 87.7796L4.97029 90.622L6.82061 96.9365Z" fill="#021DFF"/>
</svg>
