<svg width="84" height="84" viewBox="0 0 84 84" fill="none" xmlns="http://www.w3.org/2000/svg">
<path d="M76.6067 42C76.6067 22.8873 61.1127 7.39278 42 7.39266C22.8872 7.39266 7.39266 22.8872 7.39266 42C7.39279 61.1127 22.8872 76.6067 42 76.6067C61.1126 76.6066 76.6066 61.1126 76.6067 42ZM84 42C83.9999 65.1958 65.1958 83.9999 42 84C18.8041 84 0.000126286 65.1959 0 42C0 18.804 18.804 0 42 0C65.1959 0.000122139 84 18.8041 84 42Z" fill="#021DFF"/>
<path d="M60.479 18.8182C61.1334 18.8182 61.662 19.3481 61.6629 20.0008V27.8733C61.6627 28.5266 61.1331 29.0566 60.479 29.0566H28.4071C28.4043 29.0566 28.4014 29.056 28.3986 29.0559C28.3989 29.0665 28.4005 29.0769 28.4006 29.0875V54.9125C28.4006 54.923 28.3989 54.9336 28.3986 54.9441H60.479C61.1333 54.9441 61.6619 55.474 61.6629 56.1267V63.9992C61.6628 64.6526 61.1331 65.1824 60.479 65.1824H28.4071C27.7539 65.1823 27.224 64.6528 27.2239 63.9992V56.1174C27.2142 56.1177 27.2046 56.1194 27.195 56.1194H19.3204C19.0027 56.1186 18.6957 55.9932 18.4685 55.7658L18.3883 55.677C18.2124 55.4623 18.1149 55.1925 18.1149 54.9125V29.0875C18.115 28.7679 18.2417 28.4601 18.4685 28.2336C18.6948 28.0076 19.002 27.8806 19.3218 27.8806H27.1936C27.2037 27.8806 27.2138 27.8816 27.2239 27.8819V20.0015C27.2239 19.3478 27.7539 18.8183 28.4071 18.8182H60.479Z" fill="#021DFF"/>
</svg>
