<svg width="182" height="32" viewBox="0 0 182 32" fill="none" xmlns="http://www.w3.org/2000/svg">
<path d="M8.90157 7.80599C8.65811 7.80599 8.44508 7.88207 8.26248 8.03424C8.11032 8.1864 8.03424 8.38421 8.03424 8.62767V23.418C8.03424 23.6614 8.11032 23.8745 8.26248 24.0571C8.44508 24.2092 8.65811 24.2853 8.90157 24.2853H23.5549C23.7984 24.2853 23.9962 24.3614 24.1484 24.5136C24.331 24.6657 24.4223 24.8635 24.4223 25.107V31.1327C24.4223 31.3761 24.331 31.5892 24.1484 31.7718C23.9962 31.9239 23.7984 32 23.5549 32H6.16262C5.91916 32 5.64527 31.9696 5.34094 31.9087C5.03661 31.8478 4.77794 31.7565 4.56491 31.6348L0.365192 27.4351C0.243461 27.2221 0.152163 26.9634 0.091298 26.6591C0.0304327 26.3547 0 26.0808 0 25.8374V6.20828C0 5.96481 0.0304327 5.69092 0.091298 5.38659C0.152163 5.08226 0.243461 4.82358 0.365192 4.61056L4.56491 0.410842C4.77794 0.319543 4.99097 0.243461 5.20399 0.182597C5.44746 0.0912979 5.63005 0.0456485 5.75178 0.0456485H23.5549C23.7984 0.0456485 23.9962 0.136947 24.1484 0.319545C24.331 0.471708 24.4223 0.66952 24.4223 0.912981V6.93866C24.4223 7.18212 24.331 7.39515 24.1484 7.57775C23.9962 7.72991 23.7984 7.80599 23.5549 7.80599H8.90157Z" fill="#021DFF"/>
<path d="M55.3909 4.56491C55.4822 4.77794 55.5583 5.05183 55.6191 5.38659C55.7104 5.69092 55.7561 5.96481 55.7561 6.20828V31.1327C55.7561 31.3761 55.6648 31.5739 55.4822 31.7261C55.33 31.8783 55.1322 31.9543 54.8887 31.9543H48.5435C48.3 31.9543 48.1022 31.8783 47.9501 31.7261C47.7979 31.5739 47.7218 31.3761 47.7218 31.1327V22.9158C47.7218 22.6724 47.6305 22.4746 47.4479 22.3224C47.2958 22.1702 47.098 22.0942 46.8545 22.0942H37.816C37.5725 22.0942 37.3595 22.1702 37.1769 22.3224C37.0247 22.4746 36.9486 22.6724 36.9486 22.9158V31.1327C36.9486 31.3761 36.8726 31.5739 36.7204 31.7261C36.5682 31.8783 36.3704 31.9543 36.127 31.9543H29.7817C29.5383 31.9543 29.3252 31.8783 29.1427 31.7261C28.9905 31.5739 28.9144 31.3761 28.9144 31.1327V6.07133C28.9448 5.82787 28.9905 5.56919 29.0514 5.29529C29.1122 5.0214 29.1883 4.77794 29.2796 4.56491L33.4793 0.365193C33.6923 0.273895 33.951 0.197813 34.2553 0.136948C34.5597 0.0456494 34.8336 0 35.077 0H49.5478C49.7912 0 50.0651 0.0456494 50.3695 0.136948C50.7042 0.197813 50.9781 0.273895 51.1912 0.365193L55.3909 4.56491ZM47.7218 7.1669H36.9486V15.2468H47.7218V7.1669Z" fill="#021DFF"/>
<path d="M86.7115 4.61056C86.8028 4.82358 86.8789 5.08226 86.9397 5.38659C87.031 5.69092 87.0767 5.96481 87.0767 6.20828V25.8374C87.0767 26.0808 87.031 26.3547 86.9397 26.6591C86.8789 26.9634 86.8028 27.2221 86.7115 27.4351L82.5118 31.6348C82.2987 31.7565 82.0248 31.8478 81.6901 31.9087C81.3858 31.9696 81.1119 32 80.8684 32H61.1024C60.5241 32 60.235 31.7109 60.235 31.1327V0.912981C60.235 0.66952 60.3111 0.471708 60.4633 0.319545C60.6459 0.136947 60.8589 0.0456485 61.1024 0.0456485H80.8684C81.1119 0.0456485 81.3858 0.0912979 81.6901 0.182597C82.0248 0.243461 82.2987 0.319543 82.5118 0.410842L86.7115 4.61056ZM68.2693 7.80599V24.2853H78.9968V7.80599H68.2693Z" fill="#021DFF"/>
<path d="M117.941 4.56491C118.032 4.77794 118.108 5.05183 118.169 5.38659C118.26 5.69092 118.306 5.96481 118.306 6.20828V31.1327C118.306 31.3761 118.215 31.5739 118.032 31.7261C117.88 31.8783 117.682 31.9543 117.439 31.9543H111.093C110.85 31.9543 110.652 31.8783 110.5 31.7261C110.348 31.5739 110.272 31.3761 110.272 31.1327V22.9158C110.272 22.6724 110.18 22.4746 109.998 22.3224C109.846 22.1702 109.648 22.0942 109.404 22.0942H100.366C100.122 22.0942 99.9094 22.1702 99.7268 22.3224C99.5747 22.4746 99.4986 22.6724 99.4986 22.9158V31.1327C99.4986 31.3761 99.4225 31.5739 99.2703 31.7261C99.1182 31.8783 98.9204 31.9543 98.6769 31.9543H92.3317C92.0882 31.9543 91.8752 31.8783 91.6926 31.7261C91.5404 31.5739 91.4643 31.3761 91.4643 31.1327V6.07133C91.4948 5.82787 91.5404 5.56919 91.6013 5.29529C91.6621 5.0214 91.7382 4.77794 91.8295 4.56491L96.0292 0.365193C96.2423 0.273895 96.5009 0.197813 96.8053 0.136948C97.1096 0.0456494 97.3835 0 97.627 0H112.098C112.341 0 112.615 0.0456494 112.919 0.136948C113.254 0.197813 113.528 0.273895 113.741 0.365193L117.941 4.56491ZM110.272 7.1669H99.4986V15.2468H110.272V7.1669Z" fill="#021DFF"/>
<path d="M150.631 31.2696C150.753 31.4826 150.768 31.6652 150.677 31.8174C150.585 31.9391 150.418 32 150.174 32H142.916C142.673 32 142.429 31.9391 142.186 31.8174C141.942 31.6652 141.76 31.4826 141.638 31.2696L136.525 22.5963C136.464 22.4746 136.358 22.4137 136.206 22.4137H131.047C130.895 22.4137 130.819 22.4898 130.819 22.6419V31.1327C130.819 31.7109 130.53 32 129.952 32H123.652C123.074 32 122.785 31.7109 122.785 31.1327V0.912981C122.785 0.66952 122.861 0.471708 123.013 0.319545C123.196 0.136947 123.409 0.0456485 123.652 0.0456485H143.418C143.662 0.0456485 143.936 0.0912979 144.24 0.182597C144.575 0.243461 144.849 0.319543 145.062 0.410842L149.261 4.61056C149.353 4.82358 149.429 5.08226 149.49 5.38659C149.581 5.69092 149.627 5.96481 149.627 6.20828V16.1598C149.627 16.3424 149.581 16.5706 149.49 16.8445C149.398 17.088 149.292 17.3162 149.17 17.5292L144.97 21.8203L150.631 31.2696ZM141.547 7.48645H130.5V15.2468H141.547V7.48645Z" fill="#021DFF"/>
<path d="M181.249 4.56491C181.34 4.77794 181.416 5.05183 181.477 5.38659C181.568 5.69092 181.614 5.96481 181.614 6.20828V31.1327C181.614 31.3761 181.522 31.5739 181.34 31.7261C181.188 31.8783 180.99 31.9543 180.746 31.9543H174.401C174.158 31.9543 173.96 31.8783 173.808 31.7261C173.656 31.5739 173.58 31.3761 173.58 31.1327V22.9158C173.58 22.6724 173.488 22.4746 173.306 22.3224C173.153 22.1702 172.956 22.0942 172.712 22.0942H163.674C163.43 22.0942 163.217 22.1702 163.035 22.3224C162.882 22.4746 162.806 22.6724 162.806 22.9158V31.1327C162.806 31.3761 162.73 31.5739 162.578 31.7261C162.426 31.8783 162.228 31.9543 161.985 31.9543H155.639C155.396 31.9543 155.183 31.8783 155 31.7261C154.848 31.5739 154.772 31.3761 154.772 31.1327V6.07133C154.803 5.82787 154.848 5.56919 154.909 5.29529C154.97 5.0214 155.046 4.77794 155.137 4.56491L159.337 0.365193C159.55 0.273895 159.809 0.197813 160.113 0.136948C160.417 0.0456494 160.691 0 160.935 0H175.405C175.649 0 175.923 0.0456494 176.227 0.136948C176.562 0.197813 176.836 0.273895 177.049 0.365193L181.249 4.56491ZM173.58 7.1669H162.806V15.2468H173.58V7.1669Z" fill="#021DFF"/>
</svg>
