<svg width="16" height="15" viewBox="0 0 16 15" fill="none" xmlns="http://www.w3.org/2000/svg">
<path d="M2.92249 0C3.14259 8.55809e-09 3.32101 0.178428 3.32102 0.398522V2.91701H5.84499C6.06509 2.91701 6.24351 3.09544 6.24351 3.31554V5.83951H8.76748V3.31554C8.76748 3.09544 8.94591 2.91701 9.16601 2.91701H11.69V0.398522C11.69 0.178428 11.8684 8.55809e-09 12.0885 0H14.6125C14.8326 0 15.011 0.178428 15.011 0.398522V2.92249C15.011 3.14259 14.8326 3.32102 14.6125 3.32102H12.0885V5.83951C12.0885 6.0596 11.9101 6.23803 11.69 6.23803H9.16601V8.762H11.69C11.9101 8.762 12.0885 8.94043 12.0885 9.16052V11.679H14.6125C14.8326 11.679 15.011 11.8574 15.011 12.0775V14.6015C15.011 14.8216 14.8326 15 14.6125 15H12.0885C11.8684 15 11.69 14.8216 11.69 14.6015V12.083H9.16601C8.94591 12.083 8.76749 11.9046 8.76748 11.6845V9.16052H6.24351V11.6845C6.24351 11.9046 6.06508 12.083 5.84499 12.083H3.32102V14.6015C3.32101 14.8216 3.14259 15 2.92249 15H0.398522C0.178427 15 4.39048e-06 14.8216 0 14.6015V12.0775C0 11.8574 0.178424 11.679 0.398522 11.679H2.92249V9.16052C2.92249 8.94043 3.10092 8.762 3.32102 8.762H5.84499V6.23803H3.32102C3.10092 6.23803 2.9225 6.0596 2.92249 5.83951V3.32102H0.398522C0.178424 3.32102 0 3.14259 0 2.92249V0.398522C4.39048e-06 0.178428 0.178427 0 0.398522 0H2.92249Z" fill="#ECFF00"/>
</svg>
