<svg width="76" height="76" viewBox="0 0 76 76" fill="none" xmlns="http://www.w3.org/2000/svg">
<path d="M73.957 31.1851L58.0459 37.9418L62.5324 49.5726L73.957 44.7211V31.1851Z" fill="#52525B"/>
<path d="M46.2781 61.0333L63.4129 65.3913V51.8553L46.2781 47.4973V61.0333Z" fill="#52525B"/>
<path d="M37.957 73.9531L46.2781 61.0333V47.4973L37.957 60.4171V73.9531Z" fill="#52525B"/>
<path d="M29.636 61.0333L37.957 73.9531V60.4171L29.636 47.4973V61.0333Z" fill="#52525B"/>
<path d="M12.5012 65.3913L29.636 61.0333V47.4973L12.5012 51.8553V65.3913Z" fill="#52525B"/>
<path d="M17.8682 37.9418L1.95703 31.1851V44.7211L13.3817 49.5726L17.8578 37.9688L17.8682 37.9418Z" fill="#52525B"/>
<path d="M62.5324 49.5726L63.4129 51.8553V65.3913L46.2781 61.0333M29.636 61.0333L37.957 73.9531L46.2781 61.0333M46.2781 61.0333V47.4973M37.957 73.9531V60.4171M13.3817 49.5726L12.5012 51.8553V65.3913L29.636 61.0333M29.636 61.0333V47.4973M17.8682 37.9644L17.8578 37.9688M62.5324 49.5726L73.957 44.7211V31.1851L58.0459 24.4284L63.4129 10.515L46.2781 14.873L37.957 1.95312L29.636 14.873L12.5012 10.515L17.8682 24.4284L1.95703 31.1851V44.7211L13.3817 49.5726M73.957 31.1851L58.0459 37.9418L62.5324 49.5726M37.957 60.4171L46.2781 47.4973L63.4129 51.8553M12.5012 51.8553L29.636 47.4973L37.957 60.4171M1.95703 31.1851L17.8682 37.9418L17.8578 37.9688M13.3817 49.5726L17.8578 37.9688" stroke="#52525B" stroke-width="3.91304" stroke-linejoin="round"/>
<path d="M46.2781 14.873L37.957 1.95312L29.636 14.873L12.5012 10.515L17.8682 24.4284L1.95703 31.1851L17.8682 37.9418L17.8578 37.9688L13.3817 49.5726L12.5012 51.8553L29.636 47.4973L37.957 60.4171L46.2781 47.4973L63.4129 51.8553L62.5324 49.5726L58.0459 37.9418L73.957 31.1851L58.0459 24.4284L63.4129 10.515L46.2781 14.873Z" stroke="#52525B" stroke-width="3.91304" stroke-linejoin="round"/>
</svg>
