<svg width="17" height="17" viewBox="0 0 17 17" fill="none" xmlns="http://www.w3.org/2000/svg">
<path fill-rule="evenodd" clip-rule="evenodd" d="M9.64423 0C9.88634 9.4142e-09 10.0826 0.196267 10.0826 0.438374V3.20871H12.859C13.1011 3.20871 13.2973 3.40495 13.2974 3.64705V6.42346H16.0737C16.3158 6.42346 16.5121 6.6197 16.5121 6.8618V9.63817C16.5121 9.88027 16.3158 10.0766 16.0737 10.0766H13.2974V12.8529C13.2973 13.095 13.1011 13.2913 12.859 13.2913H10.0826V16.0616C10.0826 16.3037 9.88633 16.5 9.64423 16.5H6.86786C6.62576 16.5 6.42949 16.3037 6.42949 16.0616V13.2913H3.65312C3.41102 13.2913 3.21475 13.095 3.21474 12.8529V10.0766H0.438374C0.196267 10.0766 0 9.88027 0 9.63817V6.8618C9.63472e-06 6.6197 0.196273 6.42346 0.438374 6.42346H3.21474V3.64705C3.21475 3.40495 3.41102 3.20871 3.65312 3.20871H6.42949V0.438374C6.42949 0.196267 6.62576 0 6.86786 0H9.64423ZM6.86786 6.42346C6.86785 6.66556 6.67159 6.86183 6.42949 6.86183H3.65312V9.6382H6.42949C6.67159 9.6382 6.86785 9.83444 6.86786 10.0765V12.8469H9.64423V10.0765C9.64424 9.83444 9.84051 9.6382 10.0826 9.6382H12.859V6.86183H10.0826C9.84051 6.86183 9.64424 6.66556 9.64423 6.42346V3.65312H6.86786V6.42346Z" fill="black"/>
</svg>
