<svg width="72" height="77" viewBox="0 0 72 77" fill="none" xmlns="http://www.w3.org/2000/svg">
<path d="M36.072 74.1016L67.248 56.0656L67.248 44.0416L56.856 50.0536L46.464 56.0656L36.072 62.0776L36.072 74.1016Z" fill="#52525B"/>
<path d="M4.89604 44.0416L4.89604 56.0656L36.072 74.1016L36.072 62.0776L15.288 50.0536L4.89604 44.0416Z" fill="#52525B"/>
<path d="M15.288 26.0056L15.288 38.0296L25.68 44.0416L36.072 50.0536L36.072 38.0296L15.288 26.0056Z" fill="#52525B"/>
<path d="M56.856 26.0056L36.072 38.0296L36.072 50.0536L56.856 38.0296L56.856 26.0056Z" fill="#52525B"/>
<path d="M25.68 7.96955L25.68 19.9936L36.072 26.0056L36.072 13.9816L25.68 7.96955Z" fill="#52525B"/>
<path d="M46.4641 7.96956L36.072 13.9816L36.072 26.0056L46.4641 19.9936L46.4641 7.96956Z" fill="#52525B"/>
<path d="M36.072 38.0296L15.288 26.0056M36.072 38.0296L56.856 26.0056M36.072 38.0296L36.072 50.0536M36.072 13.9816L25.68 7.96955M36.072 13.9816L46.4641 7.96956M36.072 13.9816L36.072 26.0056M15.288 38.0296L15.288 26.0056L25.68 19.9936M25.68 19.9936L25.68 7.96955L36.072 1.95756L46.4641 7.96956L46.4641 19.9936M46.4641 19.9936L36.072 26.0056L25.68 19.9936M56.856 38.0296L67.248 44.0416L67.248 56.0656L36.072 74.1016L4.89604 56.0656L4.89604 44.0416L15.288 38.0296M56.856 38.0296L36.072 50.0536L25.68 44.0416L15.288 38.0296M4.89604 44.0416L15.288 50.0536L36.072 62.0776M36.072 74.1016L36.072 62.0776M67.248 44.0416L56.856 50.0536L46.464 56.0656L36.072 62.0776M56.856 38.0296L56.856 26.0056L46.4641 19.9936" stroke="#52525B" stroke-width="3.91304" stroke-linejoin="round"/>
<path d="M4.89626 44.0416L4.89626 56.0656L36.0723 74.1016L36.0723 62.0776L15.2883 50.0536L4.89626 44.0416Z" stroke="#52525B" stroke-width="3.91304" stroke-linejoin="round"/>
<path d="M15.2883 26.0056L15.2883 38.0296L25.6803 44.0416L36.0723 50.0536L36.0723 38.0296L15.2883 26.0056Z" stroke="#52525B" stroke-width="3.91304" stroke-linejoin="round"/>
<path d="M25.6803 7.96956L25.6803 19.9936L36.0723 26.0056L36.0723 13.9816L25.6803 7.96956Z" stroke="#52525B" stroke-width="3.91304" stroke-linejoin="round"/>
<path d="M15.288 38.0301L4.89604 44.0421L15.288 50.0541L36.072 62.0781L46.464 56.0661L56.856 50.0541L67.248 44.0421L56.856 38.0301L36.072 50.0541L25.68 44.0421L15.288 38.0301Z" stroke="#52525B" stroke-width="3.91304" stroke-linejoin="round"/>
<path d="M25.68 19.9941L15.288 26.0061L36.072 38.0301L56.856 26.0061L46.4641 19.9941L36.072 26.0061L25.68 19.9941Z" stroke="#52525B" stroke-width="3.91304" stroke-linejoin="round"/>
<path d="M36.072 1.95812L25.68 7.97012L36.072 13.9821L46.4641 7.97012L36.072 1.95812Z" stroke="#52525B" stroke-width="3.91304" stroke-linejoin="round"/>
</svg>
