<?xml version="1.0" encoding="UTF-8" standalone="no"?><!DOCTYPE svg PUBLIC "-//W3C//DTD SVG 1.1//EN" "http://www.w3.org/Graphics/SVG/1.1/DTD/svg11.dtd"><svg width="809px" height="783px" viewBox="0 0 809 783" version="1.1" xmlns="http://www.w3.org/2000/svg" xmlns:xlink="http://www.w3.org/1999/xlink" xml:space="preserve" xmlns:serif="http://www.serif.com/" style="fill-rule:evenodd;clip-rule:evenodd;stroke-linejoin:round;stroke-miterlimit:2;"><g transform="matrix(1,0,0,1,-1090.974,-1293.92)"><g transform="matrix(1,0,0,1,91,281)"><path d="M1626.69,1056.51L1596.2,1141.56L1693.35,1141.56L1704.66,1124.28C1681.68,1098.54 1655.48,1075.73 1626.69,1056.51ZM1248.3,1320.36L1164.55,1418.56L1093.8,1409.53L1145.87,1307.31L1248.3,1320.36ZM1228.34,1448.6L1196.72,1696.46L1131.22,1688.1L1136.73,1644.88C1128.57,1656.28 1116.51,1666.19 1102.12,1672.51C1088.02,1657.34 1075.08,1641.08 1063.41,1623.88C1069.13,1627.15 1075.59,1629.23 1082.64,1630.12C1114.93,1634.24 1142.49,1614.19 1148.65,1565.93L1149.11,1562.3C1155.26,1514.08 1136.82,1488.12 1103.62,1483.89C1069.47,1479.53 1044.9,1501.84 1038.86,1549.16L1038.4,1552.79C1037.07,1563.25 1036.99,1572.67 1038.02,1581.06C1020.17,1546.26 1007.19,1508.57 999.974,1468.85C1022.88,1439.85 1056.15,1426.53 1090.49,1430.91C1126.89,1435.56 1147.08,1454.77 1157.68,1480.64L1162.84,1440.23L1228.34,1448.6ZM1767.78,1306.46L1767.09,1302.62C1755.15,1236.94 1718.77,1214.6 1646.94,1227.65L1637.62,1229.34L1672.63,1422.05L1683.08,1420.14C1753.78,1407.3 1779.45,1370.69 1767.78,1306.46ZM1808.03,1395.44C1808.03,1411.04 1807.15,1426.44 1805.43,1441.58C1782.27,1460.46 1751.08,1473.94 1711.92,1481.05L1598.11,1501.73L1541.83,1192L1539.83,1180.97L1545.43,1179.95L1654.13,1160.2C1682.87,1154.97 1708.66,1154.19 1731.42,1157.61C1779.64,1224.53 1808.03,1306.66 1808.03,1395.44ZM1408.06,1209.84C1377.84,1200.83 1352.31,1217.34 1339.82,1259.22L1338.86,1262.43C1326.35,1304.34 1340.37,1330.87 1367.35,1338.92C1395.93,1347.45 1423.8,1333.42 1436.54,1290.71L1437.5,1287.49C1450.24,1244.81 1437.45,1218.62 1408.06,1209.84ZM1526.07,1196.48L1526,1196.73L1522.65,1207.92L1460.62,1415.86L1402.61,1398.55L1414.02,1360.3C1396.51,1377.88 1366.65,1388.27 1336.85,1379.38C1288.93,1365.09 1257.98,1315.95 1278.89,1245.87L1279.85,1242.66C1300.52,1173.38 1354.53,1145.21 1404.06,1160C1436.27,1169.6 1451.69,1189.99 1457.4,1214.94L1468.07,1179.19L1526.07,1196.48ZM1341.19,1510.32L1352.95,1434.87L1255.22,1419.65L1203.46,1751.91C1232.83,1768.2 1264.43,1780.97 1297.67,1789.62L1324.29,1618.79C1334.79,1551.41 1380.23,1534.33 1452.21,1546.27L1466.38,1455.29C1408.99,1447.03 1370.77,1466.59 1341.19,1510.32ZM1595.15,1575.08C1553.71,1566.12 1521.2,1590.9 1508.79,1648.32L1507.84,1652.73C1495.41,1710.19 1516.94,1744.31 1553.93,1752.31C1593.13,1760.78 1629.03,1739.09 1641.69,1680.52L1642.64,1676.11C1655.3,1617.58 1635.45,1583.79 1595.15,1575.08ZM1751.94,1544.96L1733.47,1630.39C1674.25,1714.14 1584.19,1774.54 1479.83,1795.07C1435.34,1768.54 1409.19,1713.23 1425.74,1636.73L1426.69,1632.33C1447.23,1537.33 1516.71,1493.99 1584.62,1508.67C1628.79,1518.22 1651.58,1543.94 1661.81,1576.8L1672.41,1527.77L1751.94,1544.96ZM1260.36,1012.92C1234.76,1022.32 1210.37,1034.21 1187.49,1048.3C1219.1,1062 1232.58,1085.79 1224.18,1121.33L1299.92,1152.88C1319.84,1090.36 1298.97,1044.18 1260.36,1012.92ZM1198.5,1196.93L1270.95,1227.11C1237.98,1293.85 1168.41,1320.69 1084.34,1285.67C1059.75,1275.43 1038.74,1261.46 1022.26,1244.48C1034.06,1214.9 1049.23,1187.04 1067.31,1161.36C1067.36,1192.16 1083.36,1214.5 1113.32,1226.98C1145.39,1240.33 1179.19,1232.38 1198.5,1196.93Z" style="fill-rule:nonzero;"/></g></g></svg>