<svg width="125" height="125" viewBox="0 0 125 125" fill="none" xmlns="http://www.w3.org/2000/svg">
<path d="M113.806 62.3945C113.806 34.0009 90.7881 10.9826 62.3945 10.9824C34.0008 10.9824 10.9824 34.0008 10.9824 62.3945C10.9826 90.7881 34.0009 113.806 62.3945 113.806C90.788 113.805 113.805 90.788 113.806 62.3945ZM124.789 62.3945C124.789 96.8538 96.8538 124.789 62.3945 124.789C27.9351 124.789 0.000187609 96.854 0 62.3945C0 27.935 27.9349 0 62.3945 0C96.854 0.000181447 124.789 27.9351 124.789 62.3945Z" fill="#F9F8F4"/>
<path d="M89.8467 27.9561C90.8187 27.9561 91.6041 28.7432 91.6055 29.7129V41.4082C91.6051 42.3787 90.8183 43.166 89.8467 43.166H42.2012C42.1969 43.166 42.1927 43.1651 42.1885 43.165C42.1889 43.1807 42.1914 43.1962 42.1914 43.2119V81.5771C42.1914 81.5927 42.1889 81.6085 42.1885 81.624H89.8467C90.8186 81.624 91.604 82.4113 91.6055 83.3809V95.0762C91.6053 96.0468 90.8184 96.834 89.8467 96.834H42.2012C41.2308 96.8338 40.4436 96.0472 40.4434 95.0762V83.3672C40.429 83.3676 40.4148 83.3701 40.4004 83.3701H28.7021C28.2301 83.3689 27.774 83.1826 27.4365 82.8447L27.3174 82.7129C27.056 82.3939 26.9112 81.993 26.9111 81.5771V43.2119C26.9113 42.7371 27.0996 42.2799 27.4365 41.9434C27.7726 41.6077 28.229 41.419 28.7041 41.4189H40.3984C40.4134 41.4189 40.4284 41.4205 40.4434 41.4209V29.7139C40.4434 28.7428 41.2307 27.9562 42.2012 27.9561H89.8467Z" fill="#F9F8F4"/>
</svg>
