<?xml version="1.0" encoding="UTF-8" standalone="no"?>
<!DOCTYPE svg PUBLIC "-//W3C//DTD SVG 1.1//EN" "http://www.w3.org/Graphics/SVG/1.1/DTD/svg11.dtd">
<svg width="100%" height="100%" viewBox="0 0 64 64" version="1.1" xmlns="http://www.w3.org/2000/svg" xmlns:xlink="http://www.w3.org/1999/xlink" xml:space="preserve" xmlns:serif="http://www.serif.com/" style="fill-rule:evenodd;clip-rule:evenodd;stroke-linejoin:round;stroke-miterlimit:2;">
    <g transform="matrix(1,0,0,1,-7522.661074,-7258.946127)">
        <g transform="matrix(0.052339,0,0,0.052339,7012.038732,7037.51273)">
            <circle cx="10359.366" cy="4834.095" r="603.368" style="fill:none;"/>
            <clipPath id="_clip1">
                <circle cx="10359.366" cy="4834.095" r="603.368"/>
            </clipPath>
            <g clip-path="url(#_clip1)">
                <g transform="matrix(12.364596,-0.052626,0.052626,12.364596,-46125.726157,-52692.710317)">
                    <path d="M4535.641,4671.847C4534.941,4671.847 4534.591,4671.564 4534.591,4670.997C4534.591,4670.797 4534.641,4670.58 4534.741,4670.347L4547.241,4638.197C4547.407,4637.73 4547.632,4637.389 4547.916,4637.172C4548.199,4636.955 4548.574,4636.847 4549.041,4636.847L4556.841,4636.847C4557.307,4636.847 4557.682,4636.955 4557.966,4637.172C4558.249,4637.389 4558.491,4637.73 4558.691,4638.197L4571.141,4670.347C4571.241,4670.58 4571.291,4670.797 4571.291,4670.997C4571.291,4671.564 4570.941,4671.847 4570.241,4671.847L4563.091,4671.847C4562.357,4671.847 4561.841,4671.464 4561.541,4670.697L4559.491,4665.397C4559.291,4664.864 4558.924,4664.597 4558.391,4664.597L4547.541,4664.597C4547.007,4664.597 4546.624,4664.864 4546.391,4665.397L4544.391,4670.697C4544.091,4671.464 4543.557,4671.847 4542.791,4671.847L4535.641,4671.847ZM4556.191,4657.497C4556.357,4657.497 4556.491,4657.439 4556.591,4657.322C4556.691,4657.205 4556.724,4657.047 4556.691,4656.847L4553.341,4647.597C4553.307,4647.43 4553.174,4647.347 4552.941,4647.347C4552.774,4647.347 4552.641,4647.43 4552.541,4647.597L4549.241,4656.847L4549.191,4657.047C4549.191,4657.347 4549.374,4657.497 4549.741,4657.497L4556.191,4657.497ZM4550.141,4634.847C4549.907,4634.847 4549.716,4634.78 4549.566,4634.647C4549.416,4634.514 4549.341,4634.364 4549.341,4634.197C4549.341,4633.997 4549.391,4633.83 4549.491,4633.697L4552.441,4629.147C4552.774,4628.614 4553.274,4628.347 4553.941,4628.347L4560.891,4628.347C4561.124,4628.347 4561.316,4628.414 4561.466,4628.547C4561.616,4628.68 4561.691,4628.83 4561.691,4628.997C4561.691,4629.197 4561.591,4629.43 4561.391,4629.697L4556.891,4634.147C4556.357,4634.614 4555.791,4634.847 4555.191,4634.847L4550.141,4634.847ZM4508.179,4656.588C4504.953,4655.081 4502.387,4653.094 4500.48,4650.628C4498.573,4648.161 4497.477,4645.369 4497.191,4642.251C4496.904,4639.132 4497.536,4635.914 4499.086,4632.597L4499.427,4631.866C4500.991,4628.518 4503.057,4625.961 4505.624,4624.194C4508.192,4622.428 4511.049,4621.491 4514.195,4621.385C4517.34,4621.278 4520.526,4621.978 4523.752,4623.485L4531.285,4627.004C4534.268,4628.397 4536.66,4630.182 4538.461,4632.358C4540.263,4634.534 4541.412,4636.897 4541.908,4639.446C4542.404,4641.995 4542.257,4644.512 4541.467,4646.998L4541.299,4647.476C4541.174,4647.825 4540.962,4648.06 4540.665,4648.18C4540.367,4648.301 4540.051,4648.283 4539.716,4648.127L4532.138,4644.587C4531.529,4644.303 4531.291,4643.821 4531.423,4643.141L4531.481,4642.779C4531.883,4640.964 4531.642,4639.258 4530.758,4637.658C4529.874,4636.059 4528.412,4634.783 4526.373,4633.83L4521.396,4631.506C4518.901,4630.34 4516.562,4630.147 4514.382,4630.926C4512.201,4631.706 4510.463,4633.481 4509.17,4636.25L4508.701,4637.255C4507.407,4640.024 4507.164,4642.488 4507.973,4644.646C4508.782,4646.803 4510.435,4648.465 4512.931,4649.63L4517.907,4651.955C4519.946,4652.907 4521.867,4653.221 4523.669,4652.894C4525.471,4652.568 4526.924,4651.662 4528.026,4650.175L4528.267,4649.898C4528.703,4649.36 4529.226,4649.233 4529.835,4649.518L4537.413,4653.058C4537.748,4653.214 4537.965,4653.445 4538.063,4653.75C4538.161,4654.056 4538.117,4654.369 4537.93,4654.689L4537.671,4655.125C4536.272,4657.326 4534.432,4659.043 4532.15,4660.276C4529.869,4661.509 4527.305,4662.138 4524.457,4662.161C4521.61,4662.184 4518.71,4661.507 4515.758,4660.128L4508.179,4656.588ZM4576.127,4672.803C4575.841,4672.864 4575.593,4672.825 4575.381,4672.687C4575.17,4672.549 4575.034,4672.337 4574.974,4672.051L4568.368,4640.617C4568.301,4640.3 4568.339,4640.043 4568.48,4639.848C4568.621,4639.652 4568.835,4639.525 4569.121,4639.464L4590.029,4635.07C4595.744,4633.869 4600.489,4634.323 4604.264,4636.43C4608.039,4638.538 4610.477,4642.211 4611.578,4647.45L4611.738,4648.212C4612.853,4653.515 4612.102,4657.908 4609.485,4661.392C4606.869,4664.876 4602.719,4667.215 4597.035,4668.409L4576.127,4672.803ZM4594.471,4660.942C4597.361,4660.334 4599.432,4659.145 4600.684,4657.373C4601.936,4655.602 4602.285,4653.398 4601.731,4650.763L4601.401,4649.191C4600.847,4646.556 4599.653,4644.701 4597.82,4643.628C4595.986,4642.554 4593.609,4642.325 4590.688,4642.939L4580.21,4645.141C4579.892,4645.207 4579.767,4645.399 4579.834,4645.717L4583.417,4662.767C4583.484,4663.085 4583.676,4663.21 4583.993,4663.144L4594.471,4660.942ZM4486.835,4695.281C4486.157,4695.051 4485.907,4694.675 4486.085,4694.151C4486.116,4694.059 4486.246,4693.88 4486.473,4693.614L4511.64,4669.041C4512.002,4668.683 4512.355,4668.451 4512.7,4668.345C4513.045,4668.239 4513.433,4668.259 4513.864,4668.405L4522.915,4671.473C4523.346,4671.62 4523.658,4671.837 4523.852,4672.126C4524.046,4672.415 4524.193,4672.816 4524.293,4673.331L4529.326,4708.143C4529.345,4708.492 4529.339,4708.713 4529.307,4708.806C4529.13,4709.329 4528.702,4709.476 4528.025,4709.246L4520.036,4706.538C4519.698,4706.423 4519.442,4706.242 4519.268,4705.994C4519.095,4705.746 4518.978,4705.407 4518.919,4704.975L4518.083,4699.543C4518.014,4698.936 4517.734,4698.549 4517.241,4698.382L4501.956,4693.2C4501.464,4693.033 4500.99,4693.164 4500.536,4693.593L4496.615,4697.413C4496.305,4697.719 4496.006,4697.918 4495.718,4698.009C4495.429,4698.1 4495.116,4698.089 4494.777,4697.974L4486.835,4695.281ZM4516.434,4690.437C4516.618,4690.499 4516.778,4690.485 4516.912,4690.393C4517.046,4690.301 4517.108,4690.168 4517.099,4689.993L4515.58,4679.438C4515.551,4679.222 4515.459,4679.088 4515.305,4679.036C4515.12,4678.973 4514.95,4679.019 4514.795,4679.172L4507.171,4686.627C4507.13,4686.647 4507.093,4686.704 4507.062,4686.796C4507.02,4686.919 4507.033,4687.035 4507.099,4687.143C4507.165,4687.251 4507.275,4687.332 4507.429,4687.384L4516.434,4690.437ZM4515.783,4666.996C4515.598,4666.933 4515.468,4666.838 4515.391,4666.709C4515.315,4666.58 4515.303,4666.438 4515.355,4666.285C4515.407,4666.131 4515.5,4666.008 4515.634,4665.916L4520.616,4662.765C4521.152,4662.398 4521.743,4662.324 4522.39,4662.543L4530.471,4665.283C4530.687,4665.356 4530.843,4665.477 4530.939,4665.647C4531.036,4665.818 4531.053,4665.995 4530.991,4666.18C4530.918,4666.395 4530.742,4666.559 4530.464,4666.67L4523.852,4669.011C4523.492,4669.163 4523.173,4669.244 4522.895,4669.253C4522.618,4669.262 4522.294,4669.204 4521.925,4669.078L4515.783,4666.996ZM4565.15,4718.235C4564.482,4718.42 4564.073,4718.241 4563.924,4717.7C4563.871,4717.509 4563.862,4717.289 4563.896,4717.04L4567.365,4683.063C4567.402,4682.573 4567.526,4682.188 4567.74,4681.907C4567.953,4681.625 4568.283,4681.423 4568.728,4681.3L4576.173,4679.247C4576.619,4679.124 4577.005,4679.129 4577.333,4679.261C4577.66,4679.394 4577.981,4679.656 4578.295,4680.049L4598.64,4707.46C4598.797,4707.656 4598.902,4707.85 4598.955,4708.041C4599.104,4708.582 4598.844,4708.944 4598.176,4709.128L4591.351,4711.01C4590.651,4711.203 4590.057,4710.973 4589.569,4710.321L4586.217,4705.801C4585.886,4705.345 4585.466,4705.187 4584.957,4705.327L4574.6,4708.183C4574.091,4708.323 4573.795,4708.679 4573.713,4709.249L4573.199,4714.835C4573.114,4715.645 4572.706,4716.152 4571.974,4716.353L4565.15,4718.235ZM4580.988,4699.129C4581.147,4699.085 4581.259,4698.994 4581.324,4698.857C4581.389,4698.719 4581.379,4698.559 4581.294,4698.377L4575.662,4690.429C4575.586,4690.279 4575.437,4690.235 4575.214,4690.296C4575.055,4690.34 4574.95,4690.455 4574.898,4690.64L4574.183,4700.338L4574.188,4700.542C4574.267,4700.828 4574.481,4700.923 4574.831,4700.827L4580.988,4699.129ZM4569.777,4678.957C4569.172,4679.124 4568.586,4679.046 4568.017,4678.723L4562.503,4675.673C4562.242,4675.471 4562.085,4675.275 4562.033,4675.084C4561.98,4674.893 4562.01,4674.722 4562.122,4674.571C4562.235,4674.42 4562.418,4674.31 4562.673,4674.24L4569.259,4672.423C4569.895,4672.248 4570.443,4672.371 4570.901,4672.792L4574.962,4676.346C4575.093,4676.447 4575.18,4676.577 4575.224,4676.736C4575.277,4676.927 4575.249,4677.106 4575.141,4677.272C4575.033,4677.439 4574.867,4677.553 4574.645,4677.615L4569.777,4678.957ZM4530.547,4719.264C4530.164,4719.228 4529.867,4719.082 4529.655,4718.826C4529.443,4718.57 4529.355,4718.25 4529.391,4717.867L4533.358,4675.738C4533.394,4675.355 4533.541,4675.057 4533.797,4674.845C4534.053,4674.633 4534.372,4674.545 4534.755,4674.581L4549.501,4675.97C4554.011,4676.395 4557.406,4677.842 4559.685,4680.31C4561.964,4682.779 4562.894,4686.247 4562.473,4690.715L4562.395,4691.545C4562.154,4694.099 4561.435,4696.263 4560.237,4698.04C4559.04,4699.816 4557.499,4701.13 4555.616,4701.983C4555.255,4702.164 4555.057,4702.446 4555.021,4702.829C4555.009,4702.957 4555.033,4703.152 4555.094,4703.416L4560.17,4720.637L4560.25,4721.16C4560.222,4721.458 4560.105,4721.672 4559.899,4721.803C4559.694,4721.934 4559.421,4721.983 4559.08,4721.951L4551.867,4721.272C4551.101,4721.2 4550.586,4720.743 4550.322,4719.903L4546.151,4704.698C4545.952,4704.079 4545.512,4703.737 4544.831,4703.672L4540.682,4703.282C4540.256,4703.242 4540.023,4703.434 4539.983,4703.86L4538.583,4718.733C4538.547,4719.116 4538.411,4719.414 4538.176,4719.628C4537.941,4719.842 4537.611,4719.929 4537.186,4719.889L4530.547,4719.264ZM4546.887,4696.203C4550.674,4696.559 4552.744,4694.865 4553.097,4691.12L4553.253,4689.461C4553.598,4685.801 4551.876,4683.793 4548.089,4683.436L4542.599,4682.919C4542.174,4682.879 4541.941,4683.072 4541.901,4683.497L4540.819,4694.987C4540.779,4695.413 4540.972,4695.646 4541.397,4695.686L4546.887,4696.203Z"/>
                </g>
            </g>
        </g>
    </g>
</svg>
