<svg width="70" height="70" viewBox="0 0 70 70" fill="none" xmlns="http://www.w3.org/2000/svg">
<ellipse cx="35" cy="35" rx="27" ry="18" stroke="#334BC8" stroke-width="2"/>
<ellipse cx="35" cy="35" rx="27" ry="6.75" stroke="#334BC8" stroke-width="2"/>
<ellipse cx="35" cy="35" rx="18" ry="9" transform="rotate(90 35 35)" stroke="#334BC8" stroke-width="2"/>
<path fill-rule="evenodd" clip-rule="evenodd" d="M36.0886 33.7963L37.9822 34.0343C38.2422 34.0669 38.3429 34.3855 38.1542 34.5622L36.7622 35.8679L37.121 37.7425C37.1699 37.9984 36.8998 38.1941 36.6721 38.0687L35 37.1484L33.3279 38.069C33.1002 38.1944 32.8299 37.9984 32.879 37.7428L33.2378 35.8682L31.8458 34.5622C31.6572 34.3852 31.7581 34.0669 32.0179 34.0343L33.9115 33.7963L34.7227 32.0694C34.8337 31.833 35.1664 31.833 35.2775 32.0694L36.0886 33.7963Z" fill="#334BC8"/>
</svg>
