<svg width="4806" height="86" viewBox="0 0 4806 86" fill="none" xmlns="http://www.w3.org/2000/svg">
<path d="M188.96 23.822L207.637 16.8794L188.96 9.73804V0.0180664L220.949 12.9114V20.846L188.96 33.7407V23.822Z" fill="#0A0A0A"/>
<path d="M12.3187 85.3153C5.56402 85.3153 0 81.9432 0 74.4045V74.0085C0 64.8832 7.948 61.7099 17.684 61.7099H22.2533V59.9246C22.2533 56.1552 20.664 53.9739 16.6907 53.9739C13.1133 53.9739 11.3253 55.9565 11.1267 58.7339H1.19202C1.98668 50.4032 8.54403 46.4352 17.2867 46.4352C26.228 46.4352 32.7854 50.2046 32.7854 59.5273V84.5219H22.652V80.1579C20.664 82.9352 17.2867 85.3153 12.3187 85.3153ZM22.2533 72.2232V68.6526H18.0813C12.9147 68.6526 10.332 70.0406 10.332 73.4139V73.8099C10.332 76.3886 11.9214 78.1739 15.4987 78.1739C19.0747 77.9752 22.2533 75.9925 22.2533 72.2232ZM56.4293 85.3153C46.0973 85.3153 38.5467 78.9672 38.5467 66.2725V65.6766C38.5467 52.9819 46.4946 46.2366 56.4293 46.2366C64.9733 46.2366 71.928 50.6019 72.7227 60.3206H62.788C62.192 56.7512 60.2054 54.3699 56.628 54.3699C52.2574 54.3699 49.0773 57.9406 49.0773 65.2806V66.4699C49.0773 74.0085 51.86 77.3805 56.628 77.3805C60.2054 77.3805 62.788 74.8019 63.384 70.6365H72.9213C72.3253 79.3645 66.5626 85.3153 56.4293 85.3153ZM95.3747 85.3153C85.0414 85.3153 77.492 78.9672 77.492 66.2725V65.6766C77.492 52.9819 85.4387 46.2366 95.3747 46.2366C103.917 46.2366 110.872 50.6019 111.667 60.3206H101.732C101.136 56.7512 99.1493 54.3699 95.5733 54.3699C91.2013 54.3699 88.0226 57.9406 88.0226 65.2806V66.4699C88.0226 74.0085 90.804 77.3805 95.5733 77.3805C99.1493 77.3805 101.732 74.8019 102.328 70.6365H111.865C111.269 79.3645 105.508 85.3153 95.3747 85.3153ZM134.517 85.3153C123.788 85.3153 116.436 78.9672 116.436 66.4699V65.6766C116.436 53.1806 124.185 46.2366 134.319 46.2366C143.657 46.2366 151.407 51.3953 151.407 63.8913V68.4539H126.967C127.364 75.1993 130.344 77.7779 134.716 77.7779C138.689 77.7779 140.876 75.5953 141.671 73.0166H151.407C150.215 79.9593 144.253 85.3153 134.517 85.3153ZM127.165 61.5112H141.075C140.876 55.9566 138.292 53.5766 134.12 53.5766C130.94 53.7752 127.96 55.5606 127.165 61.5112ZM157.764 47.2286H168.296V52.7832C170.084 49.2125 173.859 46.4352 179.621 46.4352C186.377 46.4352 190.947 50.6019 190.947 59.5273V84.5219H180.416V61.1152C180.416 56.7512 178.628 54.7672 174.852 54.7672C171.276 54.7672 168.296 56.9485 168.296 61.7099V84.5219H157.764V47.2286ZM210.22 35.9219V47.2286H217.373V54.9659H210.22V72.6206C210.22 75.3966 211.412 76.7859 213.996 76.7859C215.585 76.7859 216.579 76.5873 217.572 76.1899V84.3232C216.38 84.7206 214.195 85.1165 211.611 85.1165C203.464 85.1165 199.689 81.3486 199.689 73.8099V54.9659H195.319V47.2286H199.689V40.2859L210.22 35.9219ZM256.715 84.5219H246.383V78.9672C244.595 82.5379 241.019 85.3153 235.455 85.3153C228.699 85.3153 223.732 81.1499 223.732 72.4219V47.2286H234.263V71.0325C234.263 75.3965 236.051 77.3805 239.627 77.3805C243.204 77.3805 246.184 75.0006 246.184 70.4379V47.2286H256.715V84.5219ZM264.464 47.2286H274.995V54.1712C277.181 49.2126 280.757 46.8326 286.321 46.8326V57.1472C279.168 57.1472 274.995 59.3299 274.995 65.4792V84.7205H264.464V47.2286ZM307.581 85.3153C296.852 85.3153 289.5 78.9672 289.5 66.4699V65.6766C289.5 53.1806 297.249 46.2366 307.383 46.2366C316.721 46.2366 324.471 51.3953 324.471 63.8913V68.4539H300.229C300.627 75.1993 303.608 77.7779 307.979 77.7779C311.952 77.7779 314.139 75.5953 314.933 73.0166H324.669C323.08 79.9593 317.317 85.3153 307.581 85.3153ZM300.031 61.5112H314.139C313.94 55.9566 311.356 53.5766 307.184 53.5766C304.005 53.7752 301.024 55.5606 300.031 61.5112Z" fill="#0A0A0A"/>
<path d="M638.334 23.7524C649.081 23.6324 657.574 32.3697 657.294 43.2642L657.108 50.6284L657.121 50.6323L617.254 51.0767L616.921 64.2729L623.948 64.1938L624.175 55.4858L657.015 55.1216L656.775 64.6069C656.628 70.2189 652.028 74.8243 646.495 74.8843L606.433 75.3325C600.896 75.3923 596.516 70.8927 596.655 65.2769L597.185 43.938C597.456 33.0393 606.392 24.1097 617.135 23.9897L638.334 23.7524ZM793.228 43.2231L777.655 43.397L777.908 33.4155L761.948 33.5913L761.641 45.4897L778.334 45.3062L778.108 54.8062L761.588 54.8208L761.575 55.6714L761.108 74.3784L737.334 74.6401L737.801 55.938L744.228 55.8657L744.575 41.979L738.148 42.0503L738.615 23.3433L745.041 23.2729L793.868 22.7153L793.228 43.2231ZM735.442 41.0269L724.695 41.147L724.348 55.1362L735.095 55.1733L734.641 73.3511L708.282 73.644L708.721 55.5728L713.668 55.5161L714.041 41.0005L710.135 41.0415L703.068 63.0229L688.748 63.1821L683.575 41.0767L680.454 41.1138L680.348 55.6245L685.015 55.5728L684.562 73.9067L658.121 74.2046L658.575 55.8696L669.482 55.7456L669.841 41.4937L658.935 41.6138L659.388 23.4028L692.121 23.0396L696.655 49.1099L703.402 22.9106L735.908 22.5503L735.442 41.0269ZM815.188 58.2788L827.308 62.855L827.041 73.5347L783.828 74.0161L784.094 63.3364L794.881 58.5044L795.441 35.7681L815.761 35.5435L815.188 58.2788ZM563.159 35.4028L557.692 35.4673L557.016 62.6528L567.952 62.5269L568.165 53.8179L595.283 53.5122L594.79 73.1216L534.669 73.7954L534.94 62.896L541.756 58.5991L542.33 35.6362L535.618 35.7124L535.948 22.562L563.486 22.2524L563.159 35.4028ZM617.855 37.3511L617.735 41.8354L640.135 41.5874L640.242 37.103L617.855 37.3511ZM815.801 33.7163L795.762 33.937L796.029 23.1177L816.068 22.8931L815.801 33.7163Z" fill="#0A0A0A"/>
<path fill-rule="evenodd" clip-rule="evenodd" d="M1094.19 38.1226C1087.35 38.1226 1081.8 32.5734 1081.8 25.728C1081.8 18.88 1087.35 13.3306 1094.19 13.3306C1101.04 13.3306 1106.59 18.88 1106.59 25.728C1106.59 32.5734 1101.04 38.1226 1094.19 38.1226ZM1079.97 0C1056.4 0 1037.31 19.1027 1037.31 42.6667C1037.31 66.2293 1056.4 85.3333 1079.97 85.3333C1103.53 85.3333 1122.64 66.2293 1122.64 42.6667C1122.64 19.1027 1103.53 0 1079.97 0Z" fill="#0A0A0A"/>
<path fill-rule="evenodd" clip-rule="evenodd" d="M1153.76 50.4745C1147.21 49.0945 1145.59 47.8172 1145.59 45.7225C1145.59 43.0132 1147.57 41.2252 1152.99 41.2252C1156.83 41.2252 1159.93 42.3518 1162.08 44.6505H1162.29V41.4305C1162.29 38.5198 1159.93 35.0439 1151.76 35.0439C1143.53 35.0439 1138.64 40.5612 1138.64 46.3879C1138.64 51.1385 1142 54.1038 1147.93 55.3785C1155.33 56.9625 1156.25 58.0371 1156.25 60.4385C1156.25 63.2478 1154.57 65.0358 1149.31 65.0358C1145.07 65.0358 1141.91 63.3519 1139.56 61.2559H1139.4V64.3718C1139.4 68.5105 1143.03 71.2705 1150.08 71.2705C1158.56 71.2705 1163.25 66.7225 1163.25 59.8252C1163.25 55.1239 1160.15 51.8039 1153.76 50.4745ZM1180.12 49.1465C1182.93 49.1465 1184.21 47.3065 1184.21 45.8745V43.0652H1174.65V36.8332H1173.07C1172 36.8332 1170.77 37.6478 1169.85 38.7225C1168.37 40.4598 1167.87 41.4812 1167.87 44.1905V60.7452C1167.87 67.1839 1171.24 70.9625 1178.19 70.9625C1182.17 70.9625 1184.21 69.1745 1184.21 66.3638V63.9119H1183.96C1182.88 64.5759 1181.2 64.8839 1179 64.8839C1176.24 64.8839 1174.65 63.5038 1174.65 59.9278V49.1465H1180.12ZM1192.85 54.0518C1193 50.8852 1195.31 48.1759 1198.63 48.1759C1201.79 48.1759 1203.84 49.5545 1203.84 52.3131C1203.84 54.2545 1202.35 54.9718 1195.87 54.9718H1192.8L1192.85 54.0518ZM1200.56 65.4958C1196.53 65.4958 1193.36 63.3012 1192.85 59.8252H1197.35C1206.44 59.8252 1210.27 58.1905 1210.27 53.1305C1210.27 46.5412 1204.96 42.4532 1199.24 42.4532C1191.37 42.4532 1185.75 48.2265 1185.75 57.4238C1185.75 65.8532 1192.44 71.2705 1199.29 71.2705C1206.85 71.2705 1209.25 68.5611 1209.25 65.0358V62.8905H1208.99C1206.8 64.9359 1203.43 65.4958 1200.56 65.4958ZM1224.43 42.8092C1217.17 42.8092 1214.27 48.0732 1214.27 53.5905V66.2625C1214.27 69.1225 1216.2 70.6571 1219.27 70.6571H1221.16V54.8185C1221.16 50.6279 1222.84 48.9412 1225.91 48.9412C1227.69 48.9412 1228.87 49.3518 1229.89 49.7585H1230.15V47.3065C1230.15 45.2118 1228.67 42.8092 1224.43 42.8092ZM1244.47 65.2918C1241.24 65.2918 1239.81 64.4225 1239.81 61.6638V38.4692C1239.81 35.8612 1238.33 33.8691 1234.91 33.8691H1232.97V62.3278C1232.97 67.8971 1236.04 70.9132 1241.71 70.9132C1244.72 70.9132 1246.31 69.7372 1246.31 66.7732V65.2918H1244.47ZM1252.33 33.1025C1250.15 33.1025 1248.36 34.8905 1248.36 37.0878C1248.36 39.2865 1250.15 41.1239 1252.33 41.1239C1254.53 41.1239 1256.37 39.2865 1256.37 37.0878C1256.37 34.8905 1254.53 33.1025 1252.33 33.1025ZM1260 65.2918C1256.99 65.2918 1255.81 64.4225 1255.81 61.6638V48.7878C1255.81 45.3132 1253.97 43.6785 1250.91 43.6785H1248.97V62.3278C1248.97 67.8971 1251.88 70.9132 1257.19 70.9132C1260.11 70.9132 1261.28 69.7372 1261.28 66.7732V65.2918H1260ZM1276.25 42.4532C1267.67 42.4532 1263.84 48.4305 1263.84 54.2545V66.1598C1263.84 68.7158 1265.73 70.6571 1268.64 70.6571H1270.68V54.7145C1270.68 50.7812 1272.73 48.5318 1275.69 48.5318C1279.21 48.5318 1281.25 50.5758 1281.25 55.2252V66.1598C1281.25 68.7158 1283.2 70.6571 1286.27 70.6571H1288.11V54.6118C1288.11 46.7945 1282.75 42.4532 1276.25 42.4532ZM1304.87 61.8691C1301.6 61.8691 1299.4 59.2105 1299.4 55.6358C1299.4 51.4958 1302.05 48.5318 1305.59 48.5318C1308.6 48.5318 1310.75 50.6278 1310.75 54.9211C1310.75 59.3131 1308.29 61.8691 1304.87 61.8691ZM1317.69 62.9412C1317.64 61.7172 1317.59 60.1319 1317.59 59.2105V54.5105C1317.59 47.4598 1313.2 42.4532 1306.35 42.4532C1297.47 42.4532 1292.36 48.7372 1292.36 56.5038C1292.36 62.9932 1297.11 67.6425 1303.8 67.6425C1307.73 67.6425 1310.33 65.5465 1310.89 63.5545V64.2185C1310.89 64.4745 1310.95 65.1892 1310.95 65.5998C1311 66.0572 1311 66.6212 1311 67.0278C1311 71.0132 1308.75 73.3638 1303.8 73.3638C1299.87 73.3638 1296.69 72.1385 1295.07 70.4025H1294.76V73.5185C1294.76 76.7878 1298.64 79.5465 1304.31 79.5465C1313.2 79.5465 1317.79 73.3638 1317.79 66.4678C1317.79 65.5465 1317.75 64.0665 1317.69 62.9412Z" fill="#0A0A0A"/>
<path d="M1851.05 30.0309V61.2563H1857.84V46.6375L1867.84 61.2563H1876.2L1864.74 44.5335L1875.09 30.0309H1867.25L1857.84 44.0669V30.0309H1851.05ZM1817.7 61.2563H1824.02V46.4042C1824.02 43.5975 1823.84 40.7336 1823.84 40.7336C1823.84 40.7336 1825.31 43.2442 1826.94 45.6962L1837.52 61.2563H1843.54V30.0309H1837.23V44.1869C1837.23 46.9829 1837.41 49.8576 1837.41 49.8576C1837.41 49.8576 1835.94 47.3429 1834.31 44.8802L1824.19 30.0309H1817.7V61.2563ZM1802 49.0376L1799.25 40.7336C1798.49 38.4496 1797.91 36.3469 1797.91 36.3469C1797.91 36.3469 1797.32 38.4496 1796.56 40.7909L1793.81 49.0376H1802ZM1789.66 61.2563H1782.82L1793.93 30.0309H1802.35L1813.46 61.2563H1806.15L1803.99 54.8842H1791.82L1789.66 61.2563ZM1756.86 61.2563V30.0309H1767.68C1773.12 30.0309 1779.09 31.2576 1779.09 38.0429C1779.09 41.4936 1777.1 43.9469 1773.89 44.9403V44.9976C1777.98 45.5242 1780.55 48.2162 1780.55 52.2509C1780.55 58.7442 1774.35 61.2563 1768.8 61.2563H1756.86ZM1763.65 35.8735V42.6575H1767.86C1770.02 42.6575 1771.89 41.6669 1771.89 39.1562C1771.89 36.5802 1769.73 35.8735 1767.57 35.8735H1763.65ZM1763.65 48.3936V55.4096H1768.68C1772.13 55.4096 1773.65 54.1803 1773.65 51.7843C1773.65 49.3269 1771.72 48.3936 1768.68 48.3936H1763.65ZM1728.07 61.2563H1749.82V55.2962H1736.6L1749.53 35.1803V30.0309H1728.36V35.9896H1740.99L1728.07 56.1109V61.2563ZM1724.06 61.2563H1715.99L1709.33 49.9136H1707.16V61.2563H1700.38V30.0309H1709.74C1719.15 30.0309 1722.72 33.7136 1722.72 40.0309C1722.72 44.0669 1720.44 47.1629 1716.4 48.6829L1724.06 61.2563ZM1715.7 40.0309C1715.7 36.9869 1713.6 35.8735 1709.97 35.8735H1707.16V44.1869H1709.97C1713.77 44.1869 1715.7 42.9563 1715.7 40.0309ZM1672.05 61.2563H1692.34V55.2962H1678.83V48.4509H1690.29V42.6003H1678.83V35.9896H1692.16V30.0309H1672.05V61.2563ZM1648.9 61.2563L1654.16 44.1229C1655.1 41.1375 1655.8 37.7496 1655.8 37.7496H1655.92C1655.92 37.7496 1655.98 41.1375 1656.27 44.5335L1657.67 61.2563H1664.57L1661.53 30.0309H1652.47L1647.73 45.5242C1646.97 48.0429 1646.15 51.2576 1646.15 51.2576C1646.15 51.2576 1645.33 48.0429 1644.51 45.4669L1639.72 30.0309H1630.48L1627.44 61.2563H1633.93L1635.33 44.4136C1635.62 41.1376 1635.68 37.7496 1635.68 37.7496H1635.8C1635.8 37.7496 1636.56 41.1376 1637.5 44.2429L1642.76 61.2563H1648.9ZM1605.33 61.2563L1610.6 44.1229C1611.53 41.1375 1612.23 37.7496 1612.23 37.7496H1612.35C1612.35 37.7496 1612.41 41.1375 1612.7 44.5335L1614.11 61.2563H1621L1617.97 30.0309H1608.9L1604.16 45.5242C1603.41 48.0429 1602.59 51.2576 1602.59 51.2576C1602.59 51.2576 1601.77 48.0429 1600.95 45.4669L1596.15 30.0309H1586.91L1583.87 61.2563H1590.36L1591.77 44.4136C1592.06 41.1376 1592.12 37.7496 1592.12 37.7496H1592.23C1592.23 37.7496 1593 41.1376 1593.93 44.2429L1599.19 61.2563H1605.33ZM1563.07 61.8402C1553.6 61.8402 1546.99 54.9429 1546.99 45.8162C1546.99 36.8109 1554.01 29.4976 1563.31 29.4976C1572.78 29.4976 1579.39 36.4029 1579.39 45.5242C1579.39 54.5362 1572.37 61.8402 1563.07 61.8402ZM1563.19 55.4669C1568.68 55.4669 1572.02 50.9629 1572.02 45.6962C1572.02 40.1469 1568.57 35.8735 1563.19 35.8735C1557.69 35.8735 1554.36 40.3829 1554.36 45.6429C1554.36 51.2002 1557.81 55.4669 1563.19 55.4669ZM1533.17 61.8402C1524.69 61.8402 1517.79 55.2962 1517.79 45.8162C1517.79 36.7536 1524.81 29.4976 1533.57 29.4976C1537.91 29.4976 1541.71 31.2576 1544.28 34.0629L1539.89 38.6229C1538.14 36.9295 1535.98 35.9896 1533.46 35.9896C1528.67 35.9896 1525.27 40.2642 1525.27 45.6429C1525.27 51.2002 1528.61 55.3469 1533.57 55.3469C1536.44 55.3469 1538.67 54.3602 1540.42 52.4842L1544.63 56.8136C1541.76 60.0896 1538.02 61.8402 1533.17 61.8402Z" fill="#0A0A0A"/>
<path d="M1891.19 44.4442L1909.19 13.3335H1933.19C1931.86 13.5562 1930.3 14.0002 1928.97 14.8895C1927.41 16.0002 1926.08 17.1108 1924.97 18.4442C1923.41 20.2228 1922.3 22.2228 1921.63 23.3335C1918.97 28.0002 1913.86 36.8895 1913.86 36.8895C1913.86 36.8895 1908.52 45.7775 1905.86 50.4442C1904.75 52.4442 1902.75 56.6668 1902.52 60.8895C1902.3 62.4441 1902.75 64.0002 1903.19 65.3335C1903.41 65.5561 1903.63 66.0002 1903.86 66.4442V66.6668L1891.19 44.6668V44.4442Z" fill="#0A0A0A"/>
<path d="M1956.08 49.111C1955.41 50.0003 1954.97 50.8897 1954.75 51.111C1954.08 52.223 1952.75 53.3337 1951.19 54.0003C1947.41 56.0003 1942.75 56.223 1940.52 56.223H1909.19C1906.97 56.223 1902.3 56.0003 1898.52 54.0003C1897.19 53.3337 1895.86 52.223 1894.97 51.111C1894.75 50.8897 1894.52 50.4443 1894.52 50.4443L1906.97 72.0003H1942.97L1956.08 48.8896V49.111Z" fill="#0A0A0A"/>
<path d="M1940.75 13.3335H1933.19C1931.86 13.5562 1930.3 14.0002 1928.75 14.8895C1927.41 16.0002 1926.08 17.1108 1924.97 18.4442C1926.52 20.2228 1927.64 22.2228 1928.3 23.3335C1930.97 28.0002 1936.08 36.8895 1936.08 36.8895C1936.08 36.8895 1941.19 45.7775 1943.86 50.4442C1944.97 52.4442 1947.19 56.6668 1947.41 60.8895C1947.41 62.2228 1947.19 63.7775 1946.75 64.8895L1946.3 66.0001L1958.75 44.6668V44.4442L1940.75 13.3335Z" fill="#0A0A0A"/>
<path d="M2158.75 29.8493H2165.07C2165.46 29.0093 2166.41 28.1933 2167.91 27.404C2169.41 26.6133 2171.83 26.2173 2175.17 26.2173C2177.94 26.2173 2180.11 26.5307 2181.69 27.156C2183.29 27.7653 2184.41 28.4733 2185.05 29.2813C2185.7 30.0707 2186.18 30.952 2186.51 31.924C2187.04 30.6067 2188.23 29.3306 2190.09 28.0946C2191.97 26.844 2194.99 26.2173 2199.16 26.2173C2203.22 26.2173 2206.3 26.9013 2208.4 28.268C2210.5 29.6347 2211.89 31.4626 2212.55 33.752C2213.2 36.024 2213.53 38.9066 2213.53 42.3973V62.3813H2205.95V44.1759C2205.95 40.9653 2205.66 38.544 2205.09 36.9133C2204.51 35.2667 2203.67 34.1719 2202.57 33.6279C2201.48 33.0679 2200.01 32.788 2198.14 32.788C2196.27 32.788 2194.77 33.0679 2193.65 33.6279C2192.55 34.1719 2191.7 35.2667 2191.1 36.9133C2190.51 38.56 2190.22 40.9813 2190.22 44.1759V62.3813H2182.61V44.1759C2182.61 40.9479 2182.34 38.528 2181.79 36.9133C2181.25 35.284 2180.41 34.1879 2179.27 33.6279C2178.15 33.0679 2176.57 32.788 2174.53 32.788C2172.55 32.788 2170.99 33.0679 2169.84 33.6279C2168.68 34.1879 2167.81 35.292 2167.22 36.9386C2166.63 38.568 2166.33 40.9813 2166.33 44.1759V62.3813H2158.75V29.8493Z" fill="#0A0A0A"/>
<path d="M2238.11 63.1466C2234.23 63.1466 2230.82 62.4226 2227.89 60.9733C2224.96 59.524 2222.68 57.408 2221.05 54.6253C2219.42 51.8413 2218.6 48.5066 2218.6 44.6199C2218.6 40.7173 2219.41 37.3746 2221.02 34.592C2222.65 31.808 2224.93 29.692 2227.86 28.244C2230.81 26.7946 2234.23 26.0693 2238.11 26.0693C2242 26.0693 2245.4 26.7946 2248.34 28.244C2251.28 29.692 2253.58 31.808 2255.2 34.592C2256.83 37.3746 2257.66 40.7173 2257.66 44.6199C2257.66 48.5066 2256.83 51.8413 2255.2 54.6253C2253.58 57.408 2251.28 59.524 2248.34 60.9733C2245.4 62.4226 2242 63.1466 2238.11 63.1466ZM2238.11 56.552C2241.87 56.552 2244.71 55.5547 2246.63 53.5627C2248.58 51.5533 2249.55 48.5893 2249.55 44.6693C2249.55 40.7013 2248.58 37.704 2246.63 35.6786C2244.71 33.6533 2241.87 32.64 2238.11 32.64C2234.36 32.64 2231.52 33.6613 2229.59 35.7026C2227.67 37.7293 2226.7 40.7173 2226.7 44.6693C2226.7 48.5893 2227.67 51.5533 2229.59 53.5627C2231.52 55.5547 2234.36 56.552 2238.11 56.552Z" fill="#0A0A0A"/>
<path d="M2271.66 33.5545H2257.9V26.9585H2293V33.5545H2279.24V62.3812H2271.66V33.5545Z" fill="#0A0A0A"/>
<path d="M2303.66 62.3812C2301.52 62.3812 2299.94 61.8625 2298.88 60.8252C2297.84 59.7705 2297.32 58.1812 2297.32 56.0572V26.9585H2324.64V33.5545H2304.91V40.8905H2322.27V47.2145H2304.91V55.8105H2325.19V62.3812H2303.66Z" fill="#0A0A0A"/>
<path d="M2337.1 62.3812C2334.98 62.3812 2333.39 61.8625 2332.34 60.8252C2331.3 59.7705 2330.78 58.1812 2330.78 56.0572V26.9585H2338.36V55.8105H2358.39V62.3812H2337.1Z" fill="#0A0A0A"/>
<path d="M2460.5 63.1466C2456.6 63.1466 2453.2 62.4226 2450.27 60.9733C2447.34 59.524 2445.06 57.408 2443.43 54.6253C2441.79 51.8413 2440.98 48.5066 2440.98 44.6199C2440.98 40.7173 2441.79 37.3746 2443.4 34.592C2445.03 31.808 2447.31 29.692 2450.24 28.244C2453.19 26.7946 2456.6 26.0693 2460.5 26.0693C2464.38 26.0693 2467.79 26.7946 2470.72 28.244C2473.67 29.692 2475.96 31.808 2477.59 34.592C2479.22 37.3746 2480.03 40.7173 2480.03 44.6199C2480.03 48.5066 2479.22 51.8413 2477.59 54.6253C2475.96 57.408 2473.67 59.524 2470.72 60.9733C2467.79 62.4226 2464.38 63.1466 2460.5 63.1466ZM2460.5 56.552C2464.24 56.552 2467.08 55.5547 2469.02 53.5627C2470.96 51.5533 2471.94 48.5893 2471.94 44.6693C2471.94 40.7013 2470.96 37.704 2469.02 35.6786C2467.08 33.6533 2464.24 32.64 2460.5 32.64C2456.74 32.64 2453.9 33.6613 2451.98 35.7026C2450.04 37.7293 2449.08 40.7173 2449.08 44.6693C2449.08 48.5893 2450.04 51.5533 2451.98 53.5627C2453.9 55.5547 2456.74 56.552 2460.5 56.552Z" fill="#0A0A0A"/>
<path d="M2485.12 30.1947H2490.92C2491.88 28.9107 2493.36 27.9306 2495.35 27.2559C2497.34 26.5639 2499.7 26.2173 2502.42 26.2173C2506.67 26.2173 2509.92 26.9253 2512.19 28.3426C2514.48 29.7413 2516.03 31.5946 2516.82 33.9C2517.6 36.2053 2518 39.0053 2518 42.2987V62.3813H2510.42V43.9786C2510.42 40.8493 2510.08 38.4786 2509.43 36.8639C2508.79 35.2506 2507.84 34.1719 2506.62 33.6279C2505.39 33.0679 2503.75 32.788 2501.67 32.788C2499.67 32.788 2498.03 33.06 2496.76 33.604C2495.5 34.1307 2494.5 35.2093 2493.76 36.84C2493.06 38.4533 2492.71 40.8333 2492.71 43.9786V62.3813H2485.12V30.1947Z" fill="#0A0A0A"/>
<path d="M2530.43 62.3812C2528.31 62.3812 2526.71 61.8625 2525.66 60.8252C2524.63 59.7705 2524.11 58.1812 2524.11 56.0572V26.9585H2551.43V33.5545H2531.68V40.8905H2549.06V47.2145H2531.68V55.8105H2551.96V62.3812H2530.43Z" fill="#0A0A0A"/>
<path d="M2363.56 50.9785C2363.56 36.8385 2379.34 26.3679 2391.31 22.0892C2397.52 19.8479 2403.75 18.6665 2409.46 18.6665C2420.24 18.6665 2435.59 22.0479 2435.59 36.5545C2435.59 46.4159 2426.28 57.6198 2411.74 63.2851C2409.75 64.0598 2406.79 64.8758 2404.8 64.8758C2402.1 64.8758 2400.79 63.6118 2400.79 61.8171C2400.79 59.5745 2403.5 52.4052 2405.68 46.7812C2409.5 36.9212 2412.88 30.0345 2413.39 28.8532C2413.47 28.6479 2413.51 28.5665 2413.51 28.4852C2413.51 28.4052 2413.47 28.3638 2413.3 28.3638H2408.02C2407.8 28.3638 2407.72 28.4052 2407.63 28.4465C2401.3 31.7052 2394.35 33.6212 2387.51 34.3118C2387.38 34.3118 2387.34 34.3945 2387.3 34.4745L2385.68 37.7758C2385.56 38.0211 2385.68 38.0625 2385.78 38.0625C2388.56 37.9398 2389.66 37.9399 2390.18 37.9399C2392.75 37.9399 2395.88 38.0625 2395.88 40.8332C2395.88 42.6252 2395.16 45.2745 2390.26 56.5211C2387.8 62.1438 2385.22 66.6665 2380.1 66.6665C2371.47 66.6665 2363.56 59.5345 2363.56 50.9771" fill="#0A0A0A"/>
<path d="M2805.3 69.3333H2751.96V16H2805.3V69.3333ZM2759.56 61.7293H2797.69V23.604H2759.56V61.7293ZM2773.35 56.48H2763.96L2783.75 29.2347H2793.15L2773.35 56.48Z" fill="#0A0A0A"/>
<path d="M2840.43 61.3333H2827.94V24.4653H2840.68C2844.35 24.4653 2847.48 25.2027 2850.12 26.6787C2852.76 28.144 2854.79 30.2493 2856.2 32.9973C2857.62 35.7466 2858.32 39.0347 2858.32 42.8627C2858.32 46.704 2857.62 50.004 2856.19 52.764C2854.76 55.524 2852.72 57.6426 2850.04 59.1186C2847.38 60.5946 2844.18 61.3333 2840.43 61.3333ZM2834.62 55.5547H2840.11C2842.67 55.5547 2844.82 55.0866 2846.54 54.1506C2848.26 53.2026 2849.54 51.792 2850.4 49.92C2851.27 48.036 2851.7 45.684 2851.7 42.8627C2851.7 40.0427 2851.27 37.7027 2850.4 35.8427C2849.54 33.9707 2848.26 32.572 2846.58 31.648C2844.9 30.712 2842.8 30.244 2840.31 30.244H2834.62V55.5547ZM2876.12 61.8734C2873.35 61.8734 2870.95 61.2973 2868.94 60.1453C2866.94 58.9813 2865.39 57.3373 2864.31 55.212C2863.23 53.076 2862.68 50.5627 2862.68 47.6693C2862.68 44.8253 2863.23 42.3293 2864.31 40.1813C2865.4 38.02 2866.92 36.34 2868.88 35.14C2870.84 33.928 2873.14 33.3214 2875.78 33.3214C2877.48 33.3214 2879.08 33.5986 2880.6 34.1506C2882.12 34.6906 2883.47 35.5307 2884.63 36.6707C2885.8 37.8107 2886.74 39.2627 2887.4 41.0267C2888.08 42.7787 2888.42 44.868 2888.42 47.292V49.2893H2865.75V44.8974H2882.16C2882.15 43.6494 2881.88 42.5386 2881.36 41.5666C2880.83 40.5826 2880.1 39.8094 2879.14 39.2454C2878.2 38.68 2877.11 38.3987 2875.87 38.3987C2874.54 38.3987 2873.36 38.7227 2872.35 39.3707C2871.35 40.0067 2870.56 40.8467 2870 41.8907C2869.44 42.9227 2869.16 44.0574 2869.15 45.2934V49.128C2869.15 50.736 2869.44 52.116 2870.03 53.268C2870.62 54.408 2871.44 55.284 2872.5 55.8974C2873.55 56.4974 2874.79 56.7974 2876.2 56.7974C2877.15 56.7974 2878.02 56.6654 2878.78 56.4014C2879.55 56.1254 2880.22 55.7227 2880.78 55.1947C2881.35 54.6667 2881.78 54.012 2882.06 53.232L2888.15 53.916C2887.76 55.524 2887.03 56.9293 2885.95 58.1293C2884.88 59.3173 2883.51 60.2414 2881.84 60.9014C2880.18 61.5494 2878.27 61.8734 2876.12 61.8734ZM2911.04 49.704V33.6827H2917.56V61.3333H2911.24V56.4187H2910.95C2910.32 57.9667 2909.31 59.2334 2907.87 60.2174C2906.46 61.2014 2904.71 61.6934 2902.64 61.6934C2900.83 61.6934 2899.22 61.2906 2897.83 60.4866C2896.46 59.6706 2895.36 58.4893 2894.59 56.9413C2893.8 55.38 2893.42 53.496 2893.42 51.288V33.6827H2899.94V50.28C2899.94 52.032 2900.42 53.424 2901.38 54.456C2902.34 55.488 2903.6 56.0054 2905.16 56.0054C2906.12 56.0054 2907.04 55.7706 2907.95 55.3026C2908.84 54.8346 2909.59 54.1387 2910.16 53.2147C2910.75 52.2787 2911.04 51.108 2911.04 49.704ZM2937.56 33.6827V38.7227H2921.67V33.6827H2937.56ZM2925.59 27.0574H2932.11V53.016C2932.11 53.892 2932.24 54.564 2932.51 55.032C2932.78 55.488 2933.14 55.8013 2933.59 55.9693C2934.03 56.1373 2934.52 56.2213 2935.06 56.2213C2935.47 56.2213 2935.84 56.1907 2936.18 56.1307C2936.52 56.0707 2936.79 56.0173 2936.96 55.9693L2938.07 61.0627C2937.72 61.1827 2937.22 61.316 2936.58 61.46C2935.94 61.604 2935.15 61.688 2934.23 61.712C2932.6 61.76 2931.12 61.5133 2929.82 60.9733C2928.51 60.4213 2927.47 59.5693 2926.71 58.4173C2925.95 57.2653 2925.58 55.8254 2925.59 54.096V27.0574ZM2963.96 40.9906L2958.03 41.6387C2957.86 41.0387 2957.56 40.4747 2957.14 39.9467C2956.74 39.4187 2956.18 38.992 2955.48 38.668C2954.79 38.344 2953.94 38.1827 2952.92 38.1827C2951.58 38.1827 2950.43 38.476 2949.51 39.0653C2948.59 39.6533 2948.15 40.4147 2948.16 41.3507C2948.15 42.1547 2948.44 42.8093 2949.04 43.3133C2949.66 43.8173 2950.66 44.2307 2952.07 44.5547L2956.78 45.564C2959.4 46.128 2961.34 47.0214 2962.62 48.2454C2963.9 49.4694 2964.55 51.072 2964.56 53.052C2964.55 54.792 2964.03 56.3294 2963.03 57.6614C2962.03 58.9814 2960.64 60.0133 2958.87 60.7573C2957.1 61.5013 2955.06 61.8734 2952.75 61.8734C2949.36 61.8734 2946.64 61.1653 2944.58 59.7493C2942.51 58.3213 2941.28 56.3347 2940.88 53.7907L2947.24 53.1787C2947.52 54.4267 2948.14 55.368 2949.07 56.0054C2950.02 56.6414 2951.23 56.9587 2952.74 56.9587C2954.28 56.9587 2955.52 56.6414 2956.46 56.0054C2957.4 55.368 2957.88 54.5826 2957.88 53.6466C2957.88 52.8546 2957.58 52.2 2956.96 51.684C2956.36 51.168 2955.43 50.772 2954.15 50.496L2949.44 49.5054C2946.79 48.9534 2944.82 48.024 2943.55 46.716C2942.28 45.396 2941.64 43.7267 2941.66 41.7107C2941.64 40.0067 2942.11 38.5306 2943.04 37.2826C2943.99 36.0226 2945.31 35.0507 2946.99 34.3667C2948.68 33.6707 2950.63 33.3214 2952.84 33.3214C2956.08 33.3214 2958.63 34.012 2960.5 35.392C2962.36 36.772 2963.52 38.6386 2963.96 40.9906ZM2981.48 61.8734C2978.72 61.8734 2976.35 61.2667 2974.38 60.0547C2972.4 58.8427 2970.88 57.1693 2969.82 55.032C2968.76 52.884 2968.24 50.412 2968.24 47.616C2968.24 44.808 2968.78 42.3293 2969.86 40.1813C2970.94 38.02 2972.46 36.34 2974.43 35.14C2976.42 33.928 2978.75 33.3214 2981.46 33.3214C2983.7 33.3214 2985.68 33.736 2987.4 34.564C2989.15 35.38 2990.54 36.5387 2991.56 38.0387C2992.6 39.5267 2993.19 41.2667 2993.34 43.2587H2987.1C2986.86 41.9267 2986.26 40.8174 2985.3 39.9294C2984.36 39.0294 2983.11 38.5787 2981.54 38.5787C2980.2 38.5787 2979.04 38.9387 2978.03 39.6587C2977.02 40.3667 2976.23 41.3867 2975.67 42.7187C2975.12 44.0507 2974.84 45.648 2974.84 47.508C2974.84 49.392 2975.12 51.012 2975.67 52.368C2976.23 53.712 2977 54.7507 2977.99 55.4827C2979 56.2027 2980.19 56.5627 2981.54 56.5627C2982.5 56.5627 2983.36 56.3827 2984.11 56.0227C2984.88 55.6507 2985.52 55.116 2986.04 54.42C2986.56 53.724 2986.91 52.8786 2987.1 51.8826H2993.34C2993.18 53.8386 2992.6 55.572 2991.6 57.0854C2990.6 58.5854 2989.26 59.7614 2987.54 60.6134C2985.82 61.4534 2983.8 61.8734 2981.48 61.8734ZM3004.7 45.132V61.3333H2998.18V24.4653H3004.55V38.38H3004.87C3005.52 36.82 3006.52 35.5907 3007.88 34.6907C3009.24 33.7787 3010.99 33.3214 3013.1 33.3214C3015.02 33.3214 3016.7 33.724 3018.12 34.528C3019.55 35.332 3020.66 36.508 3021.43 38.056C3022.23 39.6053 3022.62 41.4946 3022.62 43.7266V61.3333H3016.11V44.736C3016.11 42.8747 3015.63 41.4294 3014.67 40.3974C3013.72 39.3534 3012.39 38.8306 3010.67 38.8306C3009.52 38.8306 3008.48 39.0827 3007.58 39.5867C3006.67 40.0787 3005.96 40.7933 3005.44 41.7293C3004.95 42.6653 3004.7 43.7987 3004.7 45.132ZM3041 61.8734C3038.23 61.8734 3035.83 61.2973 3033.82 60.1453C3031.82 58.9813 3030.27 57.3373 3029.19 55.212C3028.11 53.076 3027.58 50.5627 3027.58 47.6693C3027.58 44.8253 3028.11 42.3293 3029.19 40.1813C3030.28 38.02 3031.8 36.34 3033.76 35.14C3035.72 33.928 3038.02 33.3214 3040.66 33.3214C3042.36 33.3214 3043.98 33.5986 3045.48 34.1506C3047 34.6906 3048.35 35.5307 3049.51 36.6707C3050.7 37.8107 3051.62 39.2627 3052.28 41.0267C3052.96 42.7787 3053.3 44.868 3053.3 47.292V49.2893H3030.63V44.8974H3047.04C3047.04 43.6494 3046.76 42.5386 3046.24 41.5666C3045.71 40.5826 3044.98 39.8094 3044.03 39.2454C3043.08 38.68 3041.99 38.3987 3040.75 38.3987C3039.42 38.3987 3038.24 38.7227 3037.24 39.3707C3036.23 40.0067 3035.44 40.8467 3034.88 41.8907C3034.32 42.9227 3034.04 44.0574 3034.03 45.2934V49.128C3034.03 50.736 3034.32 52.116 3034.91 53.268C3035.51 54.408 3036.32 55.284 3037.38 55.8974C3038.44 56.4974 3039.67 56.7974 3041.1 56.7974C3042.04 56.7974 3042.9 56.6654 3043.67 56.4014C3044.43 56.1254 3045.1 55.7227 3045.66 55.1947C3046.23 54.6667 3046.66 54.012 3046.94 53.232L3053.03 53.916C3052.64 55.524 3051.91 56.9293 3050.83 58.1293C3049.76 59.3173 3048.39 60.2414 3046.72 60.9014C3045.06 61.5494 3043.15 61.8734 3041 61.8734ZM3070.66 61.3333V24.4653H3084.78C3087.43 24.4653 3089.66 24.8853 3091.42 25.7253C3093.19 26.5533 3094.51 27.6867 3095.39 29.128C3096.28 30.568 3096.72 32.2 3096.72 34.024C3096.72 35.524 3096.44 36.808 3095.86 37.876C3095.28 38.932 3094.51 39.7907 3093.54 40.4507C3092.56 41.1107 3091.48 41.5854 3090.28 41.8734V42.2333C3091.59 42.3053 3092.84 42.7066 3094.04 43.4386C3095.26 44.1586 3096.24 45.18 3097.02 46.5C3097.78 47.82 3098.16 49.416 3098.16 51.288C3098.16 53.196 3097.7 54.912 3096.78 56.4373C3095.86 57.9493 3094.46 59.1426 3092.6 60.0186C3090.74 60.8946 3088.4 61.3333 3085.58 61.3333H3070.66ZM3077.34 55.7533H3084.52C3086.95 55.7533 3088.68 55.2907 3089.76 54.3667C3090.84 53.4307 3091.38 52.2307 3091.38 50.7667C3091.38 49.6733 3091.11 48.6893 3090.56 47.8133C3090.03 46.9253 3089.26 46.2293 3088.27 45.7253C3087.27 45.2093 3086.08 44.952 3084.7 44.952H3077.34V55.7533ZM3077.34 40.1453H3083.95C3085.1 40.1453 3086.14 39.9346 3087.06 39.5146C3087.98 39.0826 3088.71 38.476 3089.23 37.696C3089.78 36.904 3090.04 35.968 3090.04 34.888C3090.04 33.46 3089.54 32.284 3088.54 31.36C3087.54 30.436 3086.06 29.9733 3084.08 29.9733H3077.34V40.1453ZM3111.14 61.892C3109.39 61.892 3107.8 61.58 3106.4 60.9547C3105.02 60.3187 3103.91 59.3826 3103.1 58.1466C3102.28 56.9106 3101.88 55.3867 3101.88 53.5747C3101.88 52.0147 3102.18 50.724 3102.75 49.704C3103.32 48.684 3104.11 47.868 3105.11 47.256C3106.1 46.644 3107.23 46.1813 3108.47 45.8693C3109.74 45.5453 3111.03 45.312 3112.38 45.168C3114 45 3115.31 44.8494 3116.32 44.7174C3117.32 44.5734 3118.06 44.3573 3118.52 44.0693C3118.99 43.7693 3119.22 43.3067 3119.22 42.6827V42.5747C3119.22 41.2187 3118.82 40.1694 3118.02 39.4254C3117.2 38.68 3116.06 38.308 3114.54 38.308C3112.95 38.308 3111.68 38.656 3110.74 39.3533C3109.82 40.0493 3109.19 40.8707 3108.87 41.8187L3102.79 40.9547C3103.27 39.2747 3104.06 37.8707 3105.16 36.7427C3106.27 35.6027 3107.62 34.7507 3109.22 34.1867C3110.8 33.6107 3112.58 33.3214 3114.51 33.3214C3115.83 33.3214 3117.16 33.4787 3118.48 33.7907C3119.8 34.1027 3121 34.6187 3122.1 35.3387C3123.19 36.0467 3124.07 37.012 3124.72 38.236C3125.4 39.4613 3125.74 40.9907 3125.74 42.8267V61.3333H3119.47V57.5347H3119.26C3118.86 58.3027 3118.3 59.0227 3117.58 59.6947C3116.87 60.3547 3115.98 60.8894 3114.9 61.2974C3113.83 61.6934 3112.58 61.892 3111.14 61.892ZM3112.83 57.1027C3114.14 57.1027 3115.27 56.8453 3116.23 56.3293C3117.19 55.8013 3117.94 55.104 3118.44 54.24C3118.98 53.376 3119.24 52.4347 3119.24 51.4147V48.156C3119.03 48.324 3118.68 48.48 3118.19 48.624C3117.71 48.768 3117.18 48.8933 3116.58 49.0013C3115.98 49.1093 3115.38 49.2053 3114.79 49.2893C3114.2 49.3733 3113.7 49.4454 3113.26 49.5054C3112.28 49.6374 3111.42 49.8533 3110.66 50.1533C3109.88 50.4546 3109.28 50.8747 3108.83 51.4147C3108.39 51.9427 3108.16 52.6266 3108.16 53.4666C3108.16 54.6666 3108.6 55.572 3109.48 56.1853C3110.36 56.7973 3111.47 57.1027 3112.83 57.1027ZM3138.3 45.132V61.3333H3131.78V33.6827H3138.02V38.38H3138.34C3138.98 36.832 3139.99 35.6027 3141.38 34.6907C3142.78 33.7787 3144.51 33.3214 3146.58 33.3214C3148.48 33.3214 3150.15 33.7307 3151.56 34.5467C3152.99 35.3627 3154.1 36.544 3154.88 38.092C3155.67 39.6414 3156.06 41.5186 3156.04 43.7266V61.3333H3149.54V44.736C3149.54 42.8867 3149.06 41.4414 3148.1 40.3974C3147.15 39.3534 3145.83 38.8306 3144.15 38.8306C3143.02 38.8306 3141.99 39.0827 3141.11 39.5867C3140.23 40.0787 3139.54 40.7933 3139.04 41.7293C3138.55 42.6653 3138.3 43.7987 3138.3 45.132ZM3168.11 52.656L3168.1 44.7893H3169.14L3179.07 33.6827H3186.68L3174.46 47.292H3173.11L3168.11 52.656ZM3162.16 61.3333V24.4653H3168.68V61.3333H3162.16ZM3179.52 61.3333L3170.52 48.7493L3174.91 44.1587L3187.31 61.3333H3179.52Z" fill="#0A0A0A"/>
<path fill-rule="evenodd" clip-rule="evenodd" d="M3464.88 30.3116C3463.77 29.0823 3462.16 28.3183 3460.39 28.3183C3457.04 28.3183 3454.34 31.0529 3454.34 34.3969C3454.34 36.8129 3455.73 38.8916 3457.79 39.8876C3456.71 40.2703 3455.52 40.4809 3454.3 40.4809C3448.12 40.4809 3443.69 35.5876 3443.69 28.8036C3443.69 22.0863 3448.12 17.2156 3454.3 17.2156C3460.39 17.2156 3464.96 22.0863 3464.96 28.8036C3464.96 29.3156 3464.94 29.8223 3464.88 30.3116ZM3454.3 8.73828C3442.93 8.73828 3434.57 17.5969 3434.57 28.8036C3434.57 40.0996 3442.79 48.9356 3454.3 48.9356C3465.72 48.9356 3474.1 40.0996 3474.1 28.8036C3474.1 17.5969 3465.72 8.73828 3454.3 8.73828Z" fill="#0A0A0A"/>
<path fill-rule="evenodd" clip-rule="evenodd" d="M3417.7 56.6743H3426.83C3426.83 67.9396 3418.46 76.7703 3407.04 76.7703C3395.54 76.7703 3387.31 67.9396 3387.31 56.6743H3396.45C3396.45 63.429 3400.87 68.2996 3407.04 68.2996C3413.13 68.2996 3417.7 63.429 3417.7 56.6743Z" fill="#0A0A0A"/>
<path fill-rule="evenodd" clip-rule="evenodd" d="M3718.42 8.73828V47.4409C3718.42 58.4583 3711.58 65.7783 3699.72 65.7783C3689.81 65.7783 3684.47 60.2703 3682.58 53.265L3691.39 51.4556C3692.17 55.3116 3694.77 57.673 3699.72 57.673C3705.45 57.673 3708.99 54.1289 3708.99 47.5196V43.3489L3708.91 43.1116C3706.24 46.3396 3703.02 48.5423 3697.04 48.5423C3688.48 48.5423 3682.74 43.505 3682.74 32.017V8.73828H3692.17V30.4423C3692.17 37.5263 3695.32 39.7303 3700.03 39.7303C3705.14 39.7303 3708.99 36.345 3708.99 29.7343V8.73828H3718.42Z" fill="#0A0A0A"/>
<path fill-rule="evenodd" clip-rule="evenodd" d="M3645.64 25.1704C3646.5 20.6851 3650.04 16.3584 3656.41 16.3584C3663.16 16.3584 3666.31 21.6304 3666.54 25.1704H3645.64ZM3674.87 28.7877C3674.87 16.8264 3667.72 8.56641 3656.32 8.56641C3645.17 8.56641 3636.52 17.3771 3636.52 29.2597C3636.52 41.3797 3645.17 50.0384 3656.41 50.0384C3665.99 50.0384 3671.66 45.0024 3673.93 38.7064L3665.99 36.265C3665.05 38.9424 3661.91 42.2464 3656.41 42.2464C3650.2 42.2464 3645.95 37.3677 3645.56 32.4104H3674.87V28.7877Z" fill="#0A0A0A"/>
<path fill-rule="evenodd" clip-rule="evenodd" d="M3593.8 9.66479H3601.58L3602.92 14.3875C3605.36 11.1608 3609.05 8.56348 3614.86 8.56348C3623.74 8.56348 3628.93 13.6795 3628.93 25.1688V48.9368H3619.5V26.4288C3619.5 19.5035 3616.28 17.2995 3611.88 17.2995C3607.09 17.2995 3603.23 20.6848 3603.23 27.3728V48.9368H3593.8V9.66479Z" fill="#0A0A0A"/>
<path fill-rule="evenodd" clip-rule="evenodd" d="M3566.28 40.4662C3560.11 40.4662 3555.69 35.5849 3555.69 28.7969C3555.69 22.0849 3560.11 17.2049 3566.28 17.2049C3572.37 17.2049 3576.94 22.0849 3576.94 28.7969C3576.94 35.5849 3572.37 40.4662 3566.28 40.4662ZM3566.28 8.74219C3554.93 8.74219 3546.55 17.5862 3546.55 28.7969C3546.55 40.0889 3554.78 48.9328 3566.28 48.9328C3577.7 48.9328 3586.08 40.0889 3586.08 28.7969C3586.08 17.5862 3577.7 8.74219 3566.28 8.74219Z" fill="#0A0A0A"/>
<path fill-rule="evenodd" clip-rule="evenodd" d="M3481.84 9.66479H3489.62L3490.87 14.3088C3493.23 11.1608 3497.4 8.56348 3502.98 8.56348C3508.87 8.56348 3512.01 11.3968 3513.59 14.4661C3516.02 11.3181 3520.11 8.56348 3526.16 8.56348C3533.47 8.56348 3538.81 12.8928 3538.81 22.9675V48.9368H3529.38V25.5648C3529.38 19.5822 3526.79 17.2995 3522.7 17.2995C3518.38 17.2995 3515.08 20.4488 3515.08 26.6635V48.9368H3505.65V25.5648C3505.65 19.5822 3502.82 17.2995 3498.89 17.2995C3494.64 17.2995 3491.27 20.3702 3491.27 26.6635V48.9368H3481.84V9.66479Z" fill="#0A0A0A"/>
<path fill-rule="evenodd" clip-rule="evenodd" d="M3417.61 30.3116C3416.51 29.0823 3414.9 28.3183 3413.13 28.3183C3409.78 28.3183 3407.08 31.0529 3407.08 34.3969C3407.08 36.8129 3408.47 38.8916 3410.52 39.8876C3409.45 40.2703 3408.26 40.4809 3407.04 40.4809C3400.86 40.4809 3396.43 35.5876 3396.43 28.8036C3396.43 22.0863 3400.86 17.2156 3407.04 17.2156C3413.13 17.2156 3417.7 22.0863 3417.7 28.8036C3417.7 29.3156 3417.68 29.8223 3417.61 30.3116ZM3407.04 8.73828C3395.67 8.73828 3387.31 17.5969 3387.31 28.8036C3387.31 40.0996 3395.52 48.9356 3407.04 48.9356C3418.46 48.9356 3426.83 40.0996 3426.83 28.8036C3426.83 17.5969 3418.46 8.73828 3407.04 8.73828Z" fill="#0A0A0A"/>
<path fill-rule="evenodd" clip-rule="evenodd" d="M4163.5 75.5654H4163.19C4162.06 74.9807 4162.05 75.3455 4160.96 75.5654H4158.74C4157.44 75.3776 4157.5 75.3772 4156.2 75.5654H4155.88C4155.06 75.3699 4155.12 75.3019 4154.28 75.1815C4142.09 73.4446 4121.41 60.0481 4128.1 33.4428C4131.75 18.8957 4145.58 12.3838 4149.83 11.1998C4184.25 1.62627 4206.64 42.3128 4182.96 65.9467C4176.52 72.3773 4172.84 73.335 4163.5 75.5654L4155.56 14.2379C4154.19 14.2599 4152.81 14.1887 4151.43 14.2106C4141.63 14.3666 4131.22 28.372 4138 46.5235C4148.65 75.0118 4178.33 79.5097 4183.09 56.01C4185.61 43.5213 4177.98 18.7676 4155.56 14.2379L4163.5 75.5654Z" fill="#0A0A0A" fill-opacity="0.99"/>
<path fill-rule="evenodd" clip-rule="evenodd" d="M4121.72 40.1367C4123.13 51.1574 4115.66 74.7731 4089.15 74.8907C4070.23 74.9743 4068.43 75.3267 4069.53 74.2062C4071.67 72.0331 4074.71 69.2339 4074.73 67.7805C4074.76 63.6664 4075.2 17.1101 4074.47 16.3542C4069.38 11.0666 4069.12 10.5652 4069.71 10.4486C4072.04 9.99289 4089.35 10.4241 4091.06 10.4667C4104.17 10.793 4112.66 19.3354 4114.07 21.6223C4117.06 26.4851 4120.14 26.9944 4121.72 40.1367L4084.86 31.2378C4084.86 71.6638 4084.79 71.9199 4085.29 72.0629C4095.65 75.0092 4117.79 59.2018 4108.06 30.0189C4105.88 23.4946 4101.54 19.1381 4100.76 18.3592C4093.41 11.0031 4084.92 13.2296 4084.88 13.4063C4084.86 13.4949 4084.86 13.6513 4084.86 31.2378L4121.72 40.1367Z" fill="#0A0A0A" fill-opacity="0.99"/>
<path fill-rule="evenodd" clip-rule="evenodd" d="M4199.24 39.4997C4199.24 16.7041 4199.29 16.6962 4199.02 16.3559C4198.27 15.3924 4192.52 10.511 4194.03 10.4105C4195.29 10.3263 4216.23 10.4499 4218.16 10.4614C4240.56 10.5936 4240.68 41.269 4223.26 44.9904C4221.67 45.3307 4223.31 46.0688 4234.26 62.1482C4242.09 73.6458 4242.78 73.2527 4243 74.4399C4243.11 75.0268 4231.85 75.5158 4230.81 74.1838C4227.31 69.7221 4227.63 69.4955 4227.27 69.1644C4225.65 67.6919 4211.42 45.3253 4209.86 45.7012C4208.9 45.9344 4209.32 68.9251 4209.64 69.3192C4211.73 71.8988 4211.94 71.614 4214.18 74.0443C4215.55 75.5282 4213.65 74.9086 4213.08 74.8905C4195.52 74.3347 4195.47 75.4574 4194.03 74.9709C4193.47 74.7824 4193.63 74.3068 4198.56 69.1511C4199.37 68.2985 4199.24 68.125 4199.24 39.4997L4210.85 43.1467C4214.36 42.9208 4223.53 43.6888 4225.07 32.1804C4227.31 15.3501 4218.7 13.0397 4210.22 12.9536C4209.19 12.9431 4209.36 13.6072 4209.36 38.5465C4209.36 41.4969 4207.9 42.8709 4210.85 43.1467L4199.24 39.4997Z" fill="#0A0A0A" fill-opacity="0.99"/>
<path fill-rule="evenodd" clip-rule="evenodd" d="M3980.79 54.5944C3976.37 54.487 3976.77 53.3869 3974.42 51.9189C3973.65 51.4371 3967.98 68.8263 3968.49 69.2674C3968.64 69.3929 3972.83 73.8813 3973.37 74.2702C3975.02 75.4548 3958.85 74.7844 3958.85 74.7837C3958.28 74.058 3964.14 70.0933 3964.88 67.4549C3966.55 61.5388 3971.66 47.8887 3972.29 46.2023C3972.3 46.1613 3978.56 27.4423 3979.1 25.8109C3980.7 21.0162 3981.94 20.8856 3979.91 16.2682C3977.53 10.8386 3977.73 10.4868 3978.21 10.4722C3988.68 10.1573 3988.94 10.13 3989.28 10.9485C3995.04 24.8322 3993.89 25.1951 3999.47 39.2163C3999.71 39.8309 4012.56 74.4221 4012.24 74.757C4011.65 75.3611 4011.53 74.9846 4001.76 74.8902C4000.85 74.8813 4000.05 71.7211 3996.76 62.6624C3993.01 52.3342 3993.16 52.0784 3992.26 51.8175C3989.09 50.9023 3989.42 53.2198 3980.79 54.5944L3991.54 48.0917C3989.7 44.1734 3983.04 23.9291 3982.81 24.9593C3981.17 32.2148 3979.1 35.2856 3975.41 47.7689C3973.4 54.5642 3984.36 42.7155 3991.05 48.5811C3991.09 48.6434 3991.49 49.2443 3991.61 49.3246C3992.35 49.8251 3991.58 48.1813 3991.54 48.0917L3980.79 54.5944Z" fill="#0A0A0A" fill-opacity="0.99"/>
<path fill-rule="evenodd" clip-rule="evenodd" d="M4059.91 75.5654H4059.28C4058.59 73.7084 4048.66 59.8921 4044.22 53.2362C4043.17 51.6722 4032.2 35.2582 4030.94 33.8305C4029.51 32.2239 4024.64 24.4352 4024.03 23.7276C4023.66 24.0571 4023.82 24.0873 4023.98 24.5544C4024.26 28.189 4024.03 60.9045 4024.1 67.7805C4024.12 69.5403 4028.52 73.4681 4028.82 73.7694C4029.69 74.6251 4029.06 74.9006 4028.14 74.8914C4016.39 74.7745 4016.38 75.09 4015.38 74.9003C4014.78 74.7878 4015.11 74.3217 4020.14 69.0036C4020.49 68.6331 4020.81 19.421 4019.98 18.1229C4016 11.8643 4013.78 10.4251 4016.38 10.4604C4016.9 10.4674 4027.29 10.4423 4027.52 10.4817C4028.18 10.591 4053.95 48.0608 4056.17 52.1101C4056.83 52.119 4056.62 51.8486 4056.38 51.241C4056.18 33.9462 4056.4 23.4047 4056.31 16.9421C4056.3 16.0771 4055.43 15.877 4054.93 15.2595C4052.22 11.8903 4049.04 10.4111 4052.29 10.4601C4063.76 10.6329 4066.59 9.74256 4064.73 11.584C4064.35 11.9612 4060.36 15.9049 4060.06 16.3933C4059.49 17.3088 4059.74 73.2374 4059.91 75.5654Z" fill="#0A0A0A" fill-opacity="0.99"/>
<path fill-rule="evenodd" clip-rule="evenodd" d="M3957.44 62.6941C3957.34 63.4367 3956.49 72.1269 3956.17 73.7973C3955.89 75.308 3954.65 74.8908 3943.3 74.8908C3919.76 74.8908 3917.52 75.587 3918.84 74.1501C3919.21 73.7538 3922.76 69.9156 3923.49 69.2584C3923.84 68.9486 3923.8 68.8425 3923.8 18.8452C3923.8 14.2986 3921.02 14.1827 3919.32 11.6256C3919.13 11.3403 3917.52 10.4277 3919.13 10.4353C3938.95 10.5278 3939.92 10.1611 3939.41 10.8624C3938.65 11.937 3933.95 16.1436 3933.94 16.9214C3933.9 18.8468 3933.96 68.3455 3933.9 71.2743C3933.88 72.328 3935.43 72.1475 3944.88 72.1065C3945.86 72.1024 3946.06 72.0023 3952.06 62.3042C3957.83 52.9576 3958.83 52.2788 3958.75 53.1813C3958.44 57.0211 3957.57 61.9378 3957.44 62.6941Z" fill="#0A0A0A" fill-opacity="0.99"/>
<path fill-rule="evenodd" clip-rule="evenodd" d="M4158.74 75.5653H4156.2C4157.5 75.3772 4157.45 75.3775 4158.74 75.5653Z" fill="#0A0A0A" fill-opacity="0.46"/>
<path fill-rule="evenodd" clip-rule="evenodd" d="M4163.19 75.5654H4160.96C4162.05 75.3455 4162.06 74.9807 4163.19 75.5654Z" fill="#0A0A0A" fill-opacity="0.44"/>
<path fill-rule="evenodd" clip-rule="evenodd" d="M4056.38 51.2407C4056.62 51.8483 4056.83 52.1187 4056.17 52.1098C4056.37 51.4387 4056.4 51.4508 4056.38 51.2407Z" fill="#0A0A0A" fill-opacity="0.43"/>
<path fill-rule="evenodd" clip-rule="evenodd" d="M4024.03 23.7275C4024.01 24.003 4024 24.2789 4023.98 24.5544C4023.82 24.0872 4023.66 24.0571 4024.03 23.7275Z" fill="#0A0A0A" fill-opacity="0.46"/>
<path d="M4582.11 27.8069C4582.11 20.4709 4586.99 16.8242 4591.99 16.8242C4597.51 16.8242 4600.97 20.6402 4600.97 26.1522V28.4856H4586.13C4586.39 33.3189 4589.49 35.4816 4592.08 35.4816H4592.41C4594.49 35.4816 4596.48 34.4215 4596.91 32.1735H4600.93C4600.17 36.4575 4596.48 38.8735 4592.12 38.8735C4586.85 38.8735 4582.11 35.2269 4582.11 27.8069ZM4596.95 25.3042C4596.79 21.6149 4594.57 20.2162 4592.16 20.2162H4591.81C4589.61 20.2162 4587.16 21.5309 4586.39 25.3042H4596.95Z" fill="#0A0A0A"/>
<path d="M4611.03 38.4495C4608.05 38.4495 4606.36 36.7534 4606.36 33.7854V20.7241H4601.69V17.2481H4606.36V10.3774H4610.39V17.2481H4615.48V20.7241H4610.39V33.1494C4610.39 34.4214 4610.81 34.8455 4612.08 34.8455H4616.12V38.4495H4611.03Z" fill="#0A0A0A"/>
<path d="M4618.57 13.4321V8.76807H4623.03V13.4321H4618.57ZM4618.79 38.4508V17.2494H4622.81V38.4508H4618.79Z" fill="#0A0A0A"/>
<path d="M4627.48 38.4508V8.76807H4631.51V20.2174C4632.79 18.3094 4634.91 16.8254 4638.29 16.8254C4643.17 16.8254 4645.92 19.7934 4645.92 24.2454V38.4508H4641.89V25.0934C4641.89 22.1254 4640.63 20.2174 4637.61 20.2174H4637.28C4634.27 20.2174 4631.51 22.5494 4631.51 26.5774V38.4508H4627.48Z" fill="#0A0A0A"/>
<path d="M4649.15 27.8496C4649.15 20.8522 4653.17 16.8242 4658.48 16.8242C4662.08 16.8242 4663.99 18.3082 4665.27 20.2162V17.2482H4669.29V38.4495H4665.27V35.4816C4663.99 37.3896 4662.08 38.8735 4658.48 38.8735C4653.17 38.8735 4649.15 34.8456 4649.15 27.8496ZM4659.33 35.4816C4662.29 35.4816 4665.27 32.9376 4665.27 27.8496C4665.27 22.7602 4662.29 20.2162 4659.33 20.2162H4658.91C4655.72 20.2162 4653.17 22.7602 4653.17 27.8496C4653.17 32.9376 4655.72 35.4816 4658.91 35.4816H4659.33Z" fill="#0A0A0A"/>
<path d="M4672.72 27.8494C4672.72 20.8534 4676.96 16.8254 4682.27 16.8254C4685.24 16.8254 4687.77 18.3094 4688.84 20.2174V8.76807H4692.87V38.4507H4688.84V35.4827C4687.77 37.3907 4684.81 38.8747 4681.84 38.8747C4676.55 38.8747 4672.72 34.8467 4672.72 27.8494ZM4682.85 35.4827C4685.87 35.4827 4688.84 32.9387 4688.84 27.8494C4688.84 22.7614 4685.87 20.2174 4682.85 20.2174H4682.52C4679.29 20.2174 4676.76 22.7614 4676.76 27.8494C4676.76 32.9387 4679.29 35.4827 4682.52 35.4827H4682.85Z" fill="#0A0A0A"/>
<path d="M4704.91 27.8496C4704.91 21.6149 4708.56 16.8242 4715.09 16.8242C4719.92 16.8242 4723.36 19.6642 4723.77 24.2442H4719.75C4719.37 21.9122 4717.68 20.2162 4715.25 20.2162H4714.92C4710.84 20.2162 4708.93 23.8202 4708.93 27.8496C4708.93 31.8776 4710.84 35.4816 4714.92 35.4816H4715.25C4717.68 35.4816 4719.37 33.7855 4719.75 31.4535H4723.77C4723.36 36.0335 4719.92 38.8735 4715.09 38.8735C4708.56 38.8735 4704.91 34.0829 4704.91 27.8496Z" fill="#0A0A0A"/>
<path d="M4727.05 38.4493V17.2467H4730.87V21.912C4731.71 18.7307 4734.25 17.0347 4737.01 17.0347H4738.92V20.936H4737.23C4733.41 20.936 4731.08 23.48 4731.08 27.7214V38.4493H4727.05Z" fill="#0A0A0A"/>
<path d="M4739.35 27.8069C4739.35 20.4709 4744.21 16.8242 4749.23 16.8242C4754.73 16.8242 4758.21 20.6402 4758.21 26.1522V28.4856H4743.37C4743.63 33.3189 4746.72 35.4816 4749.31 35.4816H4749.65C4751.72 35.4816 4753.72 34.4215 4754.15 32.1735H4758.17C4757.41 36.4575 4753.72 38.8735 4749.35 38.8735C4744.09 38.8735 4739.35 35.2269 4739.35 27.8069ZM4754.19 25.3042C4754.01 21.6149 4751.81 20.2162 4749.39 20.2162H4749.05C4746.85 20.2162 4744.39 21.5309 4743.63 25.3042H4754.19Z" fill="#0A0A0A"/>
<path d="M4760.51 27.8494C4760.51 20.8534 4764.75 16.8254 4770.04 16.8254C4773.01 16.8254 4775.56 18.3094 4776.61 20.2174V8.76807H4780.64V38.4507H4776.61V35.4827C4775.56 37.3907 4772.59 38.8747 4769.63 38.8747C4764.32 38.8747 4760.51 34.8467 4760.51 27.8494ZM4770.64 35.4827C4773.65 35.4827 4776.61 32.9387 4776.61 27.8494C4776.61 22.7614 4773.65 20.2174 4770.64 20.2174H4770.29C4767.08 20.2174 4764.53 22.7614 4764.53 27.8494C4764.53 32.9387 4767.08 35.4827 4770.29 35.4827H4770.64Z" fill="#0A0A0A"/>
<path d="M4785.09 13.4321V8.76807H4789.55V13.4321H4785.09ZM4785.31 38.4508V17.2494H4789.33V38.4508H4785.31Z" fill="#0A0A0A"/>
<path d="M4800.87 38.4495C4797.91 38.4495 4796.2 36.7534 4796.2 33.7854V20.7241H4791.55V17.2481H4796.2V10.3774H4800.24V17.2481H4805.32V20.7241H4800.24V33.1494C4800.24 34.4214 4800.65 34.8455 4801.93 34.8455H4805.96V38.4495H4800.87Z" fill="#0A0A0A"/>
<path d="M4587.41 72.5867V75.5548H4583.39V45.8721H4587.41V57.3201C4588.47 55.4121 4591.01 53.9281 4593.99 53.9281C4599.28 53.9281 4603.52 57.9561 4603.52 64.9534C4603.52 71.9507 4599.71 75.9788 4594.4 75.9788C4591.44 75.9788 4588.47 74.4947 4587.41 72.5867ZM4593.73 72.5867C4596.95 72.5867 4599.49 70.0414 4599.49 64.9534C4599.49 59.8654 4596.95 57.3201 4593.73 57.3201H4593.39C4590.37 57.3201 4587.41 59.8654 4587.41 64.9534C4587.41 70.0414 4590.37 72.5867 4593.39 72.5867H4593.73Z" fill="#0A0A0A"/>
<path d="M4606.75 68.3454V54.3521H4610.77V67.4974C4610.77 70.8894 4612.17 72.5854 4615.05 72.5854H4615.4C4618.11 72.5854 4620.73 70.0414 4620.73 65.8014V54.3521H4624.77V75.5534H4620.73V71.5254C4619.93 73.8574 4617.64 75.9774 4613.96 75.9774C4609.2 75.9774 4606.75 72.7974 4606.75 68.3454Z" fill="#0A0A0A"/>
<path d="M4629.43 75.5548V54.3521H4633.25V59.0161C4634.09 55.8361 4636.64 54.1401 4639.4 54.1401H4641.31V58.0415H4639.61C4635.79 58.0415 4633.45 60.5854 4633.45 64.8254V75.5548H4629.43Z" fill="#0A0A0A"/>
<path d="M4641.73 64.9109C4641.73 57.5749 4646.6 53.9282 4651.61 53.9282C4657.12 53.9282 4660.6 57.7456 4660.6 63.2576V65.5896H4645.76C4646.01 70.4242 4649.11 72.5869 4651.69 72.5869H4652.03C4654.11 72.5869 4656.11 71.5269 4656.52 69.2789H4660.56C4659.79 73.5616 4656.11 75.9789 4651.73 75.9789C4646.48 75.9789 4641.73 72.3322 4641.73 64.9109ZM4656.57 62.4096C4656.4 58.7203 4654.2 57.3216 4651.77 57.3216H4651.44C4649.23 57.3216 4646.77 58.6349 4646.01 62.4096H4656.57Z" fill="#0A0A0A"/>
<path d="M4662.89 64.9536C4662.89 57.9576 4666.92 53.9282 4672.21 53.9282C4675.83 53.9282 4677.73 55.4122 4679 57.3216V54.3523H4683.03V75.5549H4679V72.5869C4677.73 74.4949 4675.83 75.9789 4672.21 75.9789C4666.92 75.9789 4662.89 71.9509 4662.89 64.9536ZM4673.07 72.5869C4676.03 72.5869 4679 70.0429 4679 64.9536C4679 59.8656 4676.03 57.3216 4673.07 57.3216H4672.64C4669.45 57.3216 4666.92 59.8656 4666.92 64.9536C4666.92 70.0429 4669.45 72.5869 4672.64 72.5869H4673.07Z" fill="#0A0A0A"/>
<path d="M4687.48 68.3454V54.3521H4691.51V67.4974C4691.51 70.8894 4692.91 72.5854 4695.8 72.5854H4696.13C4698.85 72.5854 4701.48 70.0414 4701.48 65.8014V54.3521H4705.51V75.5534H4701.48V71.5254C4700.67 73.8574 4698.39 75.9774 4694.69 75.9774C4689.95 75.9774 4687.48 72.7974 4687.48 68.3454Z" fill="#0A0A0A"/>
<path d="M4557.41 27.5253L4544.04 14.152C4544.01 14.136 4544 14.1147 4543.97 14.1L4530.67 0.778686C4530.16 0.27602 4529.48 0 4528.77 0H4511.52C4509.19 0 4507.17 1.34132 4506.28 3.49866C4505.39 5.65599 4505.85 8.02534 4507.51 9.67867L4514.35 16.5107C4514.36 16.532 4514.39 16.548 4514.4 16.564L4528.01 30.176C4528.04 30.1973 4528.05 30.2133 4528.08 30.2293L4540.51 42.664L4528.03 55.152C4528 55.1733 4527.99 55.1893 4527.97 55.2106L4514.36 68.8173C4514.33 68.8387 4514.32 68.8533 4514.31 68.8747L4507.53 75.6493C4505.88 77.3027 4505.4 79.672 4506.29 81.8293C4507.2 83.9867 4509.2 85.328 4511.55 85.328H4528.79C4529.49 85.328 4530.17 85.052 4530.68 84.5493L4544.05 71.1813C4544.07 71.16 4544.09 71.144 4544.11 71.1227L4557.43 57.8026C4557.92 57.2986 4558.2 56.6253 4558.2 55.916V29.4133C4558.19 28.7027 4557.91 28.0293 4557.41 27.5253ZM4530.37 27.8173C4530.35 27.8013 4530.33 27.78 4530.31 27.764L4516.71 14.152C4516.68 14.1307 4516.67 14.1147 4516.64 14.1L4509.87 7.31999C4508.85 6.29732 4509.23 5.11467 4509.36 4.776C4509.51 4.436 4510.07 3.33468 4511.52 3.33468H4528.49L4541.67 16.5107C4541.69 16.532 4541.71 16.548 4541.73 16.564L4554.85 29.688V52.3L4544.04 41.4813L4530.37 27.8173ZM4541.68 68.8173C4541.65 68.8387 4541.64 68.8533 4541.63 68.8747L4528.49 81.9947H4511.52C4510.08 81.9947 4509.51 80.892 4509.37 80.552C4509.23 80.2133 4508.85 79.0307 4509.88 78.008L4516.71 71.1813C4516.72 71.16 4516.75 71.144 4516.76 71.1227L4530.37 57.516C4530.39 57.4946 4530.4 57.4786 4530.43 57.4573L4542.85 45.028L4554.16 56.3347L4541.68 68.8173Z" fill="#0A0A0A"/>
<path d="M4493.67 75.6493L4486.84 68.8173C4486.81 68.796 4486.8 68.78 4486.79 68.764L4473.17 55.152C4473.16 55.1307 4473.13 55.1147 4473.12 55.0987L4460.68 42.664L4473.17 30.176C4473.19 30.1546 4473.21 30.1387 4473.23 30.1173L4486.84 16.5107C4486.85 16.4893 4486.87 16.4747 4486.89 16.4533L4493.67 9.67867C4495.32 8.02534 4495.79 5.65599 4494.89 3.49866C4494 1.34132 4491.99 0 4489.65 0H4472.4C4471.69 0 4471.01 0.27602 4470.52 0.778686L4457.15 14.152C4457.12 14.1733 4457.11 14.1893 4457.09 14.2106L4443.77 27.5307C4443.28 28.0293 4443 28.7186 4443 29.4173V55.92C4443 56.6307 4443.27 57.304 4443.77 57.808L4457.15 71.1813C4457.17 71.1973 4457.19 71.2186 4457.2 71.2333L4470.52 84.5546C4471.03 85.0573 4471.69 85.3333 4472.41 85.3333H4489.67C4492 85.3333 4494.01 83.992 4494.91 81.8347C4495.8 79.672 4495.33 77.3027 4493.67 75.6493ZM4459.51 16.5107C4459.52 16.4893 4459.55 16.4747 4459.56 16.4533L4472.68 3.33468H4489.65C4491.11 3.33468 4491.68 4.436 4491.81 4.776C4491.95 5.11467 4492.33 6.29732 4491.31 7.31999L4484.48 14.152C4484.47 14.1733 4484.44 14.1893 4484.43 14.2106L4470.81 27.8173C4470.8 27.8387 4470.79 27.8547 4470.76 27.876L4458.33 40.3053L4447.03 28.9986L4459.51 16.5107ZM4491.81 80.552C4491.68 80.892 4491.11 81.9947 4489.67 81.9947H4472.68L4459.51 68.8173C4459.49 68.796 4459.48 68.78 4459.45 68.764L4446.33 55.64V33.028L4457.81 44.508L4470.81 57.5106C4470.83 57.5266 4470.85 57.548 4470.87 57.564L4484.48 71.176C4484.49 71.1973 4484.52 71.2133 4484.53 71.228L4491.32 78.008C4492.33 79.0307 4491.96 80.2133 4491.81 80.552Z" fill="#0A0A0A"/>
</svg>
