<svg width="32" height="32" viewBox="0 0 32 32" fill="none" xmlns="http://www.w3.org/2000/svg">
<path d="M28.0801 19.5059C26.9376 21.0171 24.5826 22.9384 21.6314 24.6434C20.9089 25.0609 20.1926 25.4397 19.4964 25.7797C15.6926 27.6284 12.4589 28.2659 11.8239 27.1671C11.3176 26.2884 12.6026 24.5246 14.9289 22.6421C16.0451 21.7396 17.4014 20.8097 18.9139 19.9359C20.9851 18.7409 23.0014 17.8522 24.6701 17.3484C26.7601 16.7172 28.3039 16.6896 28.7214 17.4122C28.9964 17.8896 28.7426 18.6284 28.0801 19.5059Z" fill="black"/>
<path d="M27.3737 18.6619C27.3312 18.7544 27.2812 18.8569 27.2262 18.9669C26.0837 20.4781 23.7287 22.3994 20.7775 24.1044C20.055 24.5219 19.3387 24.9006 18.6425 25.2406L12.6862 21.1494C10.4852 20.6971 8.52303 20.2546 6.63996 18.6619L1.55443 13.8487C0.328052 12.5581 3.32687 11.1589 4.98342 12.5581C6.63996 13.9574 7.25918 14.3311 8.04996 13.7317C8.62335 13.2971 8.16683 12.7512 7.6766 12.0981L1.55443 4.28312C0.461984 2.85293 0.730714 1.67838 1.26994 1.14598C1.80916 0.613575 2.60135 0.724937 3.13997 1.29812L5.97871 4.28312C7.45121 3.89312 8.84622 3.36062 10.1362 4.57687C11.6412 4.11687 12.9162 4.07062 14.14 4.80687L14.1825 4.83187C15.3812 5.55437 16.8862 6.46062 17.68 7.85062C18.6487 9.54437 19.8775 12.7319 20.3875 14.0969C21.0654 15.9127 25.877 17.6517 27.3737 18.6619Z" fill="#F7F2E5"/>
<path d="M10.1362 4.57687C8.84622 3.36062 7.45121 3.89312 5.97871 4.28312L3.13997 1.29812C2.60135 0.724937 1.80916 0.613575 1.26994 1.14598C0.730714 1.67838 0.461984 2.85293 1.55443 4.28312L7.6766 12.0981C8.16683 12.7512 8.62336 13.2971 8.04996 13.7317C7.25918 14.3311 6.63996 13.9574 4.98342 12.5581C3.32687 11.1589 0.328052 12.5581 1.55443 13.8487L6.63996 18.6619C8.52303 20.2546 10.4852 20.6971 12.6862 21.1494L18.6425 25.2406C19.3387 24.9006 20.055 24.5219 20.7775 24.1044C23.7287 22.3994 26.0837 20.4781 27.2262 18.9669C27.2812 18.8569 27.3312 18.7544 27.3737 18.6619C25.877 17.6517 21.0654 15.9127 20.3875 14.0969C19.8775 12.7319 18.6487 9.54437 17.68 7.85062C16.8862 6.46062 15.3812 5.55437 14.1825 4.83187L14.14 4.80687C12.9162 4.07062 11.6412 4.11687 10.1362 4.57687ZM10.1362 4.57687L12.6588 6.93688M5.9796 4.28253L9.31763 7.81772" stroke="black" stroke-width="1.6" stroke-linecap="round" stroke-linejoin="round"/>
<path d="M0.707031 0.57724C1.64948 -0.353295 2.96293 -0.0581953 3.72266 0.750092L3.72168 0.751068L6.22754 3.38486C6.80366 3.22644 7.45782 3.05573 8.09082 3.02841C8.84278 2.99608 9.60344 3.15972 10.3232 3.69345C11.7824 3.31098 13.1807 3.29955 14.5449 4.11728L14.5879 4.14267L14.5947 4.14658C15.7546 4.84562 17.4577 5.85132 18.373 7.45322C19.3801 9.21395 20.6321 12.4669 21.1367 13.8175C21.216 14.0295 21.4502 14.3238 21.8984 14.6856C21.9481 14.7221 21.9961 14.7613 22.0439 14.8018C22.5622 15.196 23.2282 15.5899 23.9502 15.9757C24.6733 16.3621 25.4186 16.7233 26.1006 17.0616C26.761 17.3892 27.3935 17.7111 27.8203 17.9991C28.145 18.2182 28.2641 18.6403 28.1006 18.9962C28.0528 19.1001 27.9981 19.212 27.9414 19.3253C27.9196 19.3688 27.8936 19.4105 27.8643 19.4493C26.6295 21.0824 24.17 23.0677 21.1768 24.797C20.4377 25.224 19.7052 25.6123 18.9932 25.9601C18.7343 26.0863 18.427 26.0634 18.1895 25.9005L13.8262 22.9034C13.8027 22.8903 13.7794 22.8762 13.7568 22.8604C13.729 22.841 13.7028 22.8197 13.6758 22.7999L12.3652 21.8995C10.2203 21.4566 8.1268 20.9674 6.12305 19.2726C6.11182 19.2631 6.10053 19.2534 6.08984 19.2433L1.00391 14.4298C0.993745 14.4202 0.983272 14.4106 0.973633 14.4005C0.739635 14.1542 0.564973 13.8594 0.49707 13.5235C0.428313 13.1827 0.48171 12.8551 0.613281 12.5704C0.863749 12.0291 1.37799 11.6668 1.87891 11.4571C2.88552 11.036 4.38612 11.0074 5.49902 11.9474C6.35224 12.668 6.8248 13.0205 7.15039 13.1573C7.28459 13.2137 7.34125 13.2085 7.3584 13.2061C7.37114 13.2044 7.40047 13.1958 7.4541 13.1661C7.43082 13.1264 7.40162 13.0779 7.3623 13.0206C7.27443 12.8925 7.17269 12.7606 7.0459 12.5919L0.923828 4.77646L0.917969 4.76865C-0.352429 3.10521 -0.189191 1.46286 0.707031 0.57724ZM20.9209 15.9532C20.5412 15.7006 19.8956 15.6189 18.9707 15.8575C17.9659 16.1168 16.8429 16.7093 15.9014 17.4688C14.9472 18.2386 14.2774 19.1008 14.0469 19.8438C13.9361 20.2011 13.9352 20.5007 14.0166 20.752C14.0908 20.981 14.255 21.234 14.5898 21.4874L18.7061 24.3145C19.2542 24.0375 19.8143 23.7373 20.377 23.4122C22.9892 21.9031 25.0694 20.2493 26.2275 18.922C25.984 18.7931 25.7029 18.6496 25.3896 18.4942C24.7278 18.1659 23.9473 17.7891 23.1963 17.3878C22.4991 17.0152 21.7979 16.6045 21.2041 16.169C21.1743 16.1517 21.1451 16.1329 21.1172 16.1114L21.0547 16.0587C21.0098 16.0243 20.9655 15.9888 20.9209 15.9532ZM2.12598 1.60361C2.02589 1.5938 1.9283 1.6199 1.83105 1.71591C1.64959 1.89606 1.27861 2.60017 2.18359 3.79013L8.30566 11.6046C8.30905 11.6089 8.31311 11.6139 8.31641 11.6183C8.52173 11.8918 8.85505 12.3058 9.00977 12.712C9.09696 12.941 9.16085 13.244 9.0791 13.5763C8.99484 13.918 8.78413 14.1789 8.5332 14.3692C8.26458 14.5728 7.95129 14.7381 7.58105 14.7901C7.20742 14.8425 6.85618 14.7683 6.53125 14.6319C5.9355 14.3817 5.26973 13.8472 4.4668 13.169C3.92328 12.7102 3.09627 12.6816 2.49609 12.9327C2.23055 13.0439 2.11414 13.1683 2.07715 13.2237C2.08633 13.2388 2.10155 13.2616 2.12891 13.2911L7.16406 18.0567C8.66035 19.3196 10.2058 19.795 12.041 20.1964L12.3613 20.2638C12.3725 19.9596 12.4286 19.6592 12.5186 19.3692C12.8822 18.1973 13.8231 17.0904 14.8975 16.2237C15.9845 15.3468 17.3086 14.6344 18.5713 14.3087C18.8879 14.227 19.2163 14.1663 19.5459 14.1368C18.9901 12.662 17.865 9.78624 16.9854 8.24814L16.9844 8.24716C16.3119 7.07001 15.0058 6.26335 13.7686 5.51767V5.51669L13.7334 5.49619L13.7266 5.49228V5.4913C13.1379 5.13743 12.525 5.00208 11.8125 5.05087L13.2051 6.35263C13.5277 6.65448 13.544 7.16085 13.2422 7.48349C12.9403 7.80574 12.4338 7.8233 12.1113 7.52158L9.58887 5.16122L9.58691 5.15927C9.12037 4.71944 8.66923 4.60522 8.16016 4.62704C7.94201 4.63646 7.72123 4.66915 7.48926 4.71786L9.89844 7.26865C10.2018 7.5899 10.1875 8.09617 9.86621 8.39951C9.54494 8.70248 9.03857 8.68841 8.73535 8.36728L5.39844 4.83505L2.55957 1.8497L2.55664 1.84579C2.40092 1.68017 2.24019 1.61493 2.12598 1.60361Z" fill="black"/>
</svg>
