<?xml version="1.0" encoding="UTF-8" standalone="no"?>
<!DOCTYPE svg PUBLIC "-//W3C//DTD SVG 1.1//EN" "http://www.w3.org/Graphics/SVG/1.1/DTD/svg11.dtd">
<svg width="100%" height="100%" viewBox="0 0 1939 1530" version="1.1" xmlns="http://www.w3.org/2000/svg" xmlns:xlink="http://www.w3.org/1999/xlink" xml:space="preserve" xmlns:serif="http://www.serif.com/" style="fill-rule:evenodd;clip-rule:evenodd;stroke-linejoin:round;stroke-miterlimit:2;">
    <g transform="matrix(1,0,0,1,-965.791316,-59.484367)">
        <g id="Background" transform="matrix(1.902344,0,0,1.902344,962,56)">
            <path d="M667.5,464.174C663.897,471.487 653.145,482.344 653.112,482.5C652.998,483.049 654.043,483.421 653.929,483.969C597.762,543.033 603.457,548.077 545.645,605.663C543.953,605.464 544.14,604.929 542.5,605.293C537.05,606.501 536.702,605.703 532.465,609.445C530.818,610.901 530.499,611.451 532.353,612.595C541.671,618.342 527.872,613.561 527.5,613.432C529.935,607.809 529.185,606.828 527.356,607.049C526.062,607.205 526.768,608.453 525.5,608.276C524.452,608.129 523.554,607.15 522.5,607.239C521.91,607.289 521.979,608.574 521.389,608.624C504.53,589.06 526.107,536.374 551.52,480.509C556.559,469.431 559.869,463.688 560.075,463.281C577.354,430.2 577.539,430.477 596.019,398.217C706.642,209.847 795.518,206.783 780.604,275.52C765.319,345.963 665.8,459.53 670.518,462.472C671.148,462.865 671.974,462.86 672.604,463.253L671.5,464.753C668.029,464.223 668.095,464.21 667.5,464.174L745.53,245.586C738.927,248.589 739.099,248.415 732.624,251.728L729.709,253.788C706.365,269.669 705.01,271.622 681.711,295.66C651.203,329.719 624.363,371.737 619.904,378.717C521.61,538.07 514.706,613.725 532.354,603.142C536.612,600.589 551.007,591.956 577.04,560.086C644.887,477.028 646.527,478.638 652.251,471.296C726,379.279 748.493,335.176 755.074,322.273C757.313,317.882 784.033,267.876 772.337,248.592C766.566,239.079 747.592,244.949 745.53,245.586L667.5,464.174Z" style="fill-opacity:0.91;"/>
            <path d="M454.169,177.198C454.483,177.864 455.639,177.834 455.954,178.5C456.056,178.716 453.565,183.978 453.343,184.448C451.269,188.828 449.654,187.062 446.492,190.619C446.432,191.259 446.372,191.898 446.312,192.537C445.996,192.655 442.929,193.8 442.586,194.5C440.824,198.105 435.213,203.75 434.488,204.48C431.826,207.158 434.661,211.042 431.5,209.631C431.004,209.409 431.132,208.317 430.59,208.278C429.125,208.172 429.672,211.92 427.5,213.267C422.277,216.507 421.546,217.57 424.836,222.83C418.305,230.362 418.406,230.246 411.916,237.754C411.557,238.17 398.149,254.457 396.953,255.91C394.714,254.942 394.888,254.811 392.507,254.857C388.723,254.93 393.801,258.806 390.5,260.766C389.574,261.316 389.52,260.422 388.5,260.854C386.275,261.796 387.762,263.437 385.5,264.031C381.534,265.072 384.109,266.41 385.952,269.882C363.739,300.15 363.523,299.94 361.69,302.637C351.858,296.797 352.937,308.341 353.5,308.465C355.239,308.847 354.989,309.042 356.805,309.746C342.447,330.534 255.32,456.688 206.544,587.515C195.11,618.184 182.768,659.621 183.445,660.53C187.699,666.233 531.884,382.997 597.085,324.012C640.811,286.203 670.291,258.678 682.149,249.078C684.674,250.338 684.645,250.793 683.489,253.396C683.119,253.702 673.74,259.816 678.5,261.758C680.027,262.38 677.659,263.708 677.5,263.797C676.033,264.62 676.992,264.917 677.948,266.963C659.944,283.669 659.771,283.257 641.765,299.785C635.412,296.944 635.575,297.061 635.358,296.854C633.836,297.402 634.012,297.292 632.797,298.516L627.525,303.389C625.746,304.655 624.053,304.761 626.226,307.718C626.88,309.768 625.092,309.418 625.118,311.5C625.127,312.24 626.827,312.165 626.836,312.905C624.457,315.009 624.427,314.866 596.812,338.894C573.707,359.726 565.776,365.787 562.94,367.955C560.795,366.644 560.65,366.792 559.952,364.467C558.867,360.853 557.431,363.905 556.502,364.51L552.418,367.501L552.068,368.548C552.257,369.154 552.447,369.761 552.637,370.367C552.654,370.694 554.797,371.353 552.797,373.5C552.118,374.229 552.161,373.945 551.368,374.5C548.962,372.935 548.728,371.389 546.716,373.502C545.662,374.369 544.608,375.235 543.554,376.101C543.233,376.378 543.189,376.177 539.365,379.327C537.352,381.877 540.901,383.681 541.887,385.967C538.868,388.62 535.848,391.273 532.828,393.926C532.038,394.659 532.028,394.639 415.763,491.803C388.015,515.34 387.786,514.848 359.811,537.908C337.429,555.954 336.873,556.363 334.809,557.878C330.094,561.722 289.834,594.548 275.267,605.194C250.413,623.36 224.98,643.337 220.664,646.727C217.552,649.052 189.513,670.007 181.854,675.913C181.739,675.209 180.363,675.204 180.248,674.5C180.191,674.154 182.526,667.181 182.738,666.549C183.882,663.132 182.214,661.358 179.498,663.958C174.561,668.684 173.203,666.18 172.5,667.254C171.215,669.218 170.392,671.449 169.251,673.5C169.164,673.656 169.251,673.5 167.034,673.259C167.979,670.146 168.357,670.473 169.282,667.428C169.451,666.872 169.413,666.906 171.052,660.381C186.812,589.531 237.766,479.315 275.761,417.652C276.429,416.568 281.7,407.238 282.213,406.331C287.883,397.199 295.85,384.098 297.028,382.16C322.384,336.868 362.851,284.322 369.107,276.199C393.101,245.043 396.163,237.506 454.169,177.198Z" style="fill-opacity:0.94;"/>
            <path d="M658.707,38.917C655.433,40.357 642.475,46.056 618.728,58.932C613.54,51.52 609.615,60.275 608.5,60.333C599.994,60.771 604.938,65.036 605.605,66.678C572.064,86.515 570.085,90.286 555.869,99.952C552.64,102.151 552.657,102.131 552.382,102.327C551.39,103.03 551.694,103.078 550.737,103.757C525.836,122.769 526.132,122.891 502.653,143.658C500.954,140.532 499.261,140.261 501.336,138.356C501.645,138.072 504.281,135.652 500.25,133.224C501.563,132.179 502.877,131.134 504.19,130.089C701.467,-42.661 888.752,-20.773 842.491,77.495C831.994,99.793 816.46,121.193 813.863,124.771C807.863,119.66 807.729,123.85 807.746,124.34C807.753,124.532 808.543,123.635 809.5,125.991C809.578,126.183 809.5,125.991 808.851,128.5C806.836,127.512 806.337,126.466 805.579,128.492C805.014,130 799.614,128.826 800.61,131.5C803.341,138.825 797.269,133.705 795.305,133.326C826.653,94.217 832.983,79.702 839.478,58.493C852.877,14.739 783.262,-14.756 658.707,38.917Z" style="fill-opacity:0.9;"/>
            <path d="M442.207,686.047C442.528,686.595 443.118,686.952 443.439,687.5C444.824,689.866 442.811,690.236 444.252,692.5C444.849,693.438 438.789,697.809 438.5,698.376C438.192,698.979 440.143,699.302 439.835,699.905C426.548,709.86 427.268,710.519 404.787,725.898C394.308,734.179 359.014,756.579 350.683,760.871C325.855,774.379 326.643,775.71 300.551,786.638C296.892,788.002 293.233,789.366 289.573,790.729C288.549,790.337 287.524,789.944 286.5,789.552C284.875,786.436 284.289,785.934 281.268,787.792C274.65,786.902 275.898,790.342 276.181,790.602C277.559,791.868 269.95,796.421 268.02,792.769C265.84,788.643 267.025,795.417 262.845,797.5C258.69,799.57 255.864,793.83 255.086,798.5C254.843,799.959 248.127,800.499 247.5,800.549C241.55,801.028 229.229,807.84 227.303,800.633C226.81,798.789 220.957,802.702 220.607,800.461C220.129,797.402 216.446,802.783 216.007,799.779C215.573,796.8 216.39,797.076 218.622,795.026C229.474,797.936 267.812,788.407 283.296,782.033C293.857,777.685 293.627,777.643 312.417,769.356C316.506,767.376 341.611,755.221 362.235,742.077C365.358,740.23 372.473,735.846 373.36,735.299C423.983,700.058 424.451,700.939 442.207,686.047Z" style="fill-opacity:0.93;"/>
            <path d="M755.14,518.243C755.763,517.652 763.92,509.91 765.644,520.487C766.274,524.357 748.373,564.255 754.521,561.593C770.361,554.735 805.51,499.701 811.856,519.421C814.807,528.592 799.559,551.416 800.093,570.651C797.667,570.437 798.18,569.796 797.521,567.5C797.06,562.343 798.575,562.479 797.795,557.5C800.533,552.693 804.3,548.117 798.619,543.401C798.84,541.72 798.778,541.84 798.84,541.72C803.524,532.713 801.76,532.07 802.311,531.396C802.862,530.723 810.577,523.346 808.5,520.866C801.373,512.354 802.643,522.988 797.638,530.481C797.179,533.726 797.231,533.514 796.465,536.509C795.586,536.212 795.18,535.415 793.677,537.765C793.39,538.155 793.104,538.545 792.817,538.935C789.702,542.344 789.814,542.191 779.856,552.836C778.537,551.492 777.417,552.281 776.679,548.6C767.835,557.817 766.766,557.221 766.105,561.5C765.82,563.341 765.201,562.5 763.431,562.5C762.2,562.555 761.511,561.226 761.613,562.582C761.671,563.361 762.502,562.608 762.569,563.5C755.331,565.544 756.375,567.027 756.702,567.491C757.822,569.083 758.868,569.059 757.518,570.5C756.185,571.924 756.304,571.92 756.813,573.922C742.627,583.066 736.062,577.206 739.291,560.521C738.581,559.468 738.444,559.384 737.394,560.06C735.755,561.904 709.518,591.417 707.233,566.521C707.188,566.028 707.291,566.066 708.01,560.386C708.071,560.474 709.964,560.341 709.491,562.5C708.797,565.665 716.774,576.277 720.543,570.5C722.65,567.271 722.277,565.149 722.627,564.554C725.881,559.038 720.667,561.136 719.533,561.001C719.018,560.772 714.256,558.647 715.068,555.547C718.258,543.369 720.102,541.244 720.961,540.253C721.227,540.57 722.849,542.5 723.907,544.5C724.217,546.789 724.255,546.6 725.754,548.567C725.578,549.157 722.24,560.339 726.32,556.246C740.088,542.438 741.094,539.382 746.21,532.301C754.934,518.583 754.934,518.593 755.14,518.243Z" style="fill-opacity:0.94;"/>
            <path d="M167.034,673.259C169.251,673.5 169.164,673.656 169.251,673.5C170.392,671.449 171.215,669.218 172.5,667.254C173.203,666.18 174.561,668.684 179.498,663.958C182.214,661.358 183.882,663.132 182.738,666.549C182.526,667.181 180.191,674.154 180.248,674.5C180.363,675.204 181.739,675.209 181.854,675.913C179.657,678.683 179.635,678.392 177.987,681.633C177.082,685.368 161.359,753.001 179.816,778.274C189.387,791.38 191.599,788.383 206.678,794.09C212.697,794.437 212.533,794.716 218.622,795.026C216.39,797.076 215.573,796.8 216.007,799.779C216.446,802.783 220.129,797.402 220.607,800.461C220.957,802.702 226.81,798.789 227.303,800.633C229.229,807.84 241.55,801.028 247.5,800.549C248.127,800.499 254.843,799.959 255.086,798.5C255.864,793.83 258.69,799.57 262.845,797.5C267.025,795.417 265.84,788.643 268.02,792.769C269.95,796.421 277.559,791.868 276.181,790.602C275.898,790.342 274.65,786.902 281.268,787.792C282.821,790.47 283.39,789.493 286.5,789.552C287.524,789.944 288.549,790.337 289.573,790.729C253.172,803.628 190.961,825.925 164.733,769.407C159.36,757.83 159.34,736.402 159.337,733.497C159.316,711.288 160.766,711.508 163.083,695.437C170.224,692.238 162.159,688.139 163.497,684.5C163.703,683.941 166.012,677.661 166,677.5C165.949,676.865 164.473,677.058 164.422,676.423C165.293,675.368 166.163,674.314 167.034,673.259Z" style="fill-opacity:0.95;"/>
            <path d="M672.604,463.253C681.226,468.382 677.347,474.912 669.816,500.588C654.154,553.987 652.078,553.2 649.637,562.515C648.629,566.36 652.048,563.934 661.335,553.344C669.853,544.658 669.716,544.799 678.05,536.106C682.945,538.576 680.075,539.972 677.41,544.814C676.787,544.941 671.881,545.946 671.065,549.599C670.96,550.07 671.732,549.706 673.952,554.898C671.585,557.514 641.159,598.058 633.84,580.349C631.438,574.535 633.069,574.48 634.229,568.404C636.224,562.368 635.929,562.529 638.165,556.359C643.08,543.88 667.242,479.892 667.095,474.673C667.41,472.974 668.2,473.184 667.684,471.5C666.62,468.028 670.985,465.098 671.5,464.753L672.604,463.253Z" style="fill-opacity:0.94;"/>
            <path d="M901.002,518.081C914.183,519.694 907.152,525.973 899.5,536.947C894.41,544.245 890.034,543.709 884.718,559.5C884.571,559.873 884.423,560.246 884.275,560.619C884.522,562.991 885.9,563.912 883.411,564.364C881.84,564.649 882.418,565.222 883.517,566.474C883.871,573.183 886.757,570.737 888.781,570.5C891.718,572.71 892.412,572.266 892.709,575.763C890.634,577.388 883.181,580.705 881.537,576.5C877.995,567.445 880.913,566.661 878.193,562.391C878.613,561.093 879.032,559.795 879.452,558.498C878.799,557.309 878.791,557.472 877.468,557.367C842.642,585.065 838.498,581.381 829.315,573.831C826.637,571.629 794.522,600.842 786.966,574.365C785.682,569.866 788.664,558.687 789.017,557.364C791.72,548.827 791.36,548.871 794.787,540.5C795.296,539.499 795.804,538.499 796.313,537.499L796.465,536.509C797.231,533.514 797.179,533.726 797.638,530.481C802.643,522.988 801.373,512.354 808.5,520.866C810.577,523.346 802.862,530.723 802.311,531.396C801.76,532.07 803.524,532.713 798.84,541.72C798.778,541.84 798.84,541.72 798.619,543.401C797.98,545.032 797.153,544.705 797.411,546.484C797.837,549.41 795.494,549.756 797.5,552.018C799.523,554.299 795.989,553.55 794.982,556.5C794.88,557.401 793.24,557.599 793.139,558.5C793.048,559.306 794.332,559.708 794.531,560.494C794.796,561.542 790.16,563.528 797.521,567.5C798.18,569.796 797.667,570.437 800.093,570.651C806.951,577.551 830.256,556.342 832.395,554.395C832.441,554.563 832.966,556.5 832.966,556.5C821.75,569.701 829.329,570.923 830.5,570.935C837.548,571.011 836.931,572.853 837.5,572.747C840.143,572.254 840.047,571.656 842.5,572.816C845.292,573.257 845.15,572.356 845.503,569.501C847.92,568.257 847.745,568.157 850.426,567.31L852.547,566.55C852.836,568.198 852.903,568.08 854.5,568.734C857.273,569.19 857.61,570.005 858.561,568.5C858.561,568.5 856.789,564.844 856.635,564.526C859.061,562.785 858.908,562.923 861.455,561.28C862.348,562.884 862.419,562.712 862.23,564.5C862.218,564.617 862.057,566.146 863.702,564.5C868.117,560.085 873.868,561.028 869.472,556.516C871.947,556.368 871.886,556.557 871.947,556.368C872.206,555.567 871.116,554.709 871.375,553.908C876.028,550.379 876.493,551.971 878.5,552.031C880.964,552.104 879.204,548.939 881.781,548.995C886.913,549.107 881.426,543.748 887.5,538.77C891.632,535.384 890.603,532.028 890.417,531.423C893.69,527.192 893.661,527.213 893.952,526.853C900.579,518.638 900.565,518.679 901.002,518.081Z" style="fill-opacity:0.96;"/>
            <path d="M901.002,518.081C906.894,512.275 909.852,509.912 913.072,517.615C915.181,522.66 876.267,582.06 899.209,567.05C924.561,550.463 940.347,531.184 943.439,557.522C943.839,560.923 956.103,549.759 952.733,558.559C940.181,591.333 927.328,564.661 924.582,565.753C919.15,567.912 883.605,603.157 876.347,574.535C875.732,572.112 877.952,563.343 878.193,562.391C880.913,566.661 877.995,567.445 881.537,576.5C883.181,580.705 890.634,577.388 892.709,575.763C892.412,572.266 891.718,572.71 888.781,570.5C887.323,567.176 887.17,567.23 883.517,566.474C882.418,565.222 881.84,564.649 883.411,564.364C885.9,563.912 884.522,562.991 884.275,560.619L884.718,559.5C890.034,543.709 894.41,544.245 899.5,536.947C907.152,525.973 914.183,519.694 901.002,518.081Z" style="fill-opacity:0.95;"/>
            <path d="M786.101,144.175C790.143,152.393 778.057,154.378 783.117,155.804C786.377,156.723 784.268,157.805 782.5,160.549L783.781,161.756C780.857,165.177 777.932,168.598 775.008,172.018C736.282,212.404 736.466,212.407 695.648,250.646C694.227,251.947 686.771,258.772 677.948,266.963C676.992,264.917 676.033,264.62 677.5,263.797C677.659,263.708 680.027,262.38 678.5,261.758C673.74,259.816 683.119,253.702 683.489,253.396C684.645,250.793 684.674,250.338 682.149,249.078L684.161,247.149C700.636,231.504 700.674,231.81 717.108,216.086L721.175,212.142C721.918,212.551 721.814,212.591 724.636,215.338C727.441,218.071 726.574,214.245 729.235,211.569C725.908,211.753 725.649,212.57 723.311,210.28C732.717,200.646 732.771,201.043 742.355,191.348C743.212,190.432 770.274,163.371 786.101,144.175Z" style="fill-opacity:0.93;"/>
            <path d="M545.645,605.663C537.613,613.661 492.051,659.027 439.835,699.905C440.143,699.302 438.192,698.979 438.5,698.376C438.789,697.809 444.849,693.438 444.252,692.5C442.811,690.236 444.824,689.866 443.439,687.5C443.118,686.952 442.528,686.595 442.207,686.047C443.515,685.045 444.824,684.043 446.132,683.041C447.723,681.755 461.505,670.619 466.115,667.08C509.621,630.946 521.069,618.164 525.335,613.401C526.057,613.412 526.778,613.422 527.5,613.432C527.872,613.561 541.671,618.342 532.353,612.595C530.499,611.451 530.818,610.901 532.465,609.445C536.702,605.703 537.05,606.501 542.5,605.293C544.14,604.929 543.953,605.464 545.645,605.663Z" style="fill-opacity:0.89;"/>
            <path d="M719.298,508.332C720.103,511.838 721.138,511.237 722.289,514.5C723.624,518.286 722.798,518.524 725.612,521.5C727.332,523.319 723.586,523.314 724.523,525.496C725.899,528.702 726.263,529.071 723.468,531.453C720.528,533.959 725.611,536.912 721.826,537.898C720.646,538.206 721.138,538.56 720.961,540.253C720.102,541.244 718.258,543.369 715.068,555.547C714.256,558.647 719.018,560.772 719.533,561.001C720.667,561.136 725.881,559.038 722.627,564.554C722.277,565.149 722.65,567.271 720.543,570.5C716.774,576.277 708.797,565.665 709.491,562.5C709.964,560.341 708.071,560.474 708.01,560.386C712.527,544.734 727.919,510.82 715.714,514.894C701.132,524.379 686.727,541.327 683.666,544.666C683.077,544.81 682.86,543.357 682.271,543.5C680.424,543.95 681.392,545.169 679.5,545.68C678.254,546.017 678.663,544.475 677.41,544.814C680.075,539.972 682.945,538.576 678.05,536.106C682.204,532.194 686.664,527.172 687.38,526.365C693.161,520.912 719.819,491.161 729.117,507.739C735.913,519.855 726.489,546.015 725.754,548.567C724.255,546.6 724.217,546.789 723.907,544.5C727.176,533.557 724.973,533.305 725.512,532.5C729.971,525.825 729.439,525.357 727.509,517.5C725.523,509.419 726.427,503.968 719.298,508.332Z" style="fill-opacity:0.94;"/>
            <path d="M140.249,695.125C143.162,696.972 143.504,699.112 145.598,696.513C147.699,693.904 147.789,696.445 149.838,698.989C147.518,700.659 145.198,702.329 142.877,703.999C138.415,700.286 137.14,699.903 133.799,704.577C133.34,705.218 136.211,706.499 134.541,707.5C132.81,708.538 132.72,708.104 131.547,709.5C129.876,711.487 131.754,711.341 131.823,711.952C53.818,768.486 13.281,787.215 4.318,794.254C2.793,795.451 0.979,792.974 2.677,791.734C11.078,785.595 12.7,788.149 109.676,717.792C125.093,706.606 124.815,706.456 140.249,695.125Z" style="fill-opacity:0.82;"/>
            <path d="M890.417,531.423C890.603,532.028 891.632,535.384 887.5,538.77C881.426,543.748 886.913,549.107 881.781,548.995C879.204,548.939 880.964,552.104 878.5,552.031C876.493,551.971 876.028,550.379 871.375,553.908C870.598,554.459 869.821,555.01 869.044,555.561C865.485,558.764 865.34,558.366 861.455,561.28C858.908,562.923 859.061,562.785 856.635,564.526C855.631,564.941 854.627,565.356 853.623,565.771L852.547,566.55L850.426,567.31C847.745,568.157 847.92,568.257 845.503,569.501C844.468,570.193 844.682,570.171 842.5,572.816C840.047,571.656 840.143,572.254 837.5,572.747C836.931,572.853 837.548,571.011 830.5,570.935C829.329,570.923 821.75,569.701 832.966,556.5C832.966,556.5 832.441,554.563 832.395,554.395L836.246,550.277C836.432,550.294 837.016,552.222 838.707,550.5C845.688,543.393 858.71,524.588 863.5,536.131C863.676,536.554 863.778,537.069 863.623,537.5C862.846,539.663 862.274,539.308 862.29,539.5C862.4,540.801 863.802,539.616 863.91,540.897C862.491,542.43 838.849,567.984 849.577,562.714C866.828,554.238 887.459,534.285 890.417,531.423Z" style="fill-opacity:0.98;"/>
            <path d="M500.25,133.224C504.281,135.652 501.645,138.072 501.336,138.356C499.261,140.261 500.954,140.532 502.653,143.658C490.075,155.15 490.137,154.999 477.926,166.934C477.667,166.673 477.678,166.78 474.478,163.887C471.999,165.194 473.048,166.245 470.396,167.42C467.766,168.587 468.381,169.451 470.5,171.573C465.086,171.078 464.137,173.069 466.757,177.736C457.745,186.956 457.85,186.901 451.887,192.887C449.549,191.255 449.871,190.457 446.492,190.619C449.654,187.062 451.269,188.828 453.343,184.448C453.565,183.978 456.056,178.716 455.954,178.5C455.639,177.834 454.483,177.864 454.169,177.198C480.314,151.643 479.622,151.12 500.25,133.224Z" style="fill-opacity:0.92;"/>
            <path d="M1013.982,565.934C1001.197,577.514 995.846,562.884 1004.929,554.954C1015.572,545.663 1025.525,549.195 1018.933,558.787C1014.33,565.485 1014.362,565.351 1013.982,565.934Z" style="fill-opacity:0.93;"/>
            <path d="M809.717,130.662C796.776,146.486 796.952,146.337 783.781,161.756L782.5,160.549C784.268,157.805 786.377,156.723 783.117,155.804C778.057,154.378 790.143,152.393 786.101,144.175L788.512,141.512C794.847,133.761 794.784,134 795.305,133.326C797.269,133.705 803.341,138.825 800.61,131.5C799.614,128.826 805.014,130 805.579,128.492C806.337,126.466 806.836,127.512 808.851,128.5C809.14,129.221 809.428,129.942 809.717,130.662Z" style="fill-opacity:0.91;"/>
            <path d="M863.91,540.897C863.802,539.616 862.4,540.801 862.29,539.5C862.274,539.308 862.846,539.663 863.623,537.5C863.778,537.069 863.676,536.554 863.5,536.131C858.71,524.588 845.688,543.393 838.707,550.5C837.016,552.222 836.432,550.294 836.246,550.277C838.305,547.725 869.147,509.508 871.578,529.493C871.954,532.585 864.674,540.107 863.91,540.897Z" style="fill-opacity:0.93;"/>
            <path d="M446.312,192.537C446.494,192.825 446.534,192.688 448.947,195.888C445.144,199.849 428.479,218.196 424.836,222.83C421.546,217.57 422.277,216.507 427.5,213.267C429.672,211.92 429.125,208.172 430.59,208.278C431.132,208.317 431.004,209.409 431.5,209.631C434.661,211.042 431.826,207.158 434.488,204.48C435.213,203.75 440.824,198.105 442.586,194.5C442.929,193.8 445.996,192.655 446.312,192.537Z" style="fill-opacity:0.91;"/>
            <path d="M776.679,548.6C777.417,552.281 778.537,551.492 779.856,552.836C769.065,564.292 768.853,563.914 756.813,573.922C756.304,571.92 756.185,571.924 757.518,570.5C758.868,569.059 757.822,569.083 756.702,567.491C756.375,567.027 755.331,565.544 762.569,563.5L763.431,562.5C765.201,562.5 765.82,563.341 766.105,561.5C766.766,557.221 767.835,557.817 776.679,548.6Z" style="fill-opacity:0.92;"/>
            <path d="M156.132,683.051C157.39,683.636 157.076,684.13 158.5,684.153C161.234,684.197 160.135,686.784 157.527,686.495C157.102,691.433 158.503,692.13 158.726,692.889L149.838,698.989C147.789,696.445 147.699,693.904 145.598,696.513C143.504,699.112 143.162,696.972 140.249,695.125C141.53,694.173 141.225,694.175 156.132,683.051Z" style="fill-opacity:0.91;"/>
            <path d="M556.502,364.51C557.431,363.905 558.867,360.853 559.952,364.467C560.65,366.792 560.795,366.644 562.94,367.955C554.912,376.083 554.452,375.383 541.887,385.967C540.901,383.681 537.352,381.877 539.365,379.327C543.26,381.555 545.434,380.048 543.554,376.101C544.608,375.235 545.662,374.369 546.716,373.502C548.61,375.041 548.636,376.35 551.368,374.5C552.161,373.945 552.118,374.229 552.797,373.5C554.797,371.353 552.654,370.694 552.637,370.367C552.447,369.761 552.257,369.154 552.068,368.548L552.418,367.501C555.454,367.197 556.509,367.69 556.502,364.51Z" style="fill-opacity:0.92;"/>
            <path d="M719.298,508.332C726.427,503.968 725.523,509.419 727.509,517.5C729.439,525.357 729.971,525.825 725.512,532.5C724.973,533.305 727.176,533.557 723.907,544.5C722.849,542.5 721.227,540.57 720.961,540.253C721.138,538.56 720.646,538.206 721.826,537.898C725.611,536.912 720.528,533.959 723.468,531.453C726.263,529.071 725.899,528.702 724.523,525.496C723.586,523.314 727.332,523.319 725.612,521.5C722.798,518.524 723.624,518.286 722.289,514.5C721.138,511.237 720.103,511.838 719.298,508.332Z" style="fill-opacity:0.98;"/>
            <path d="M164.422,676.423C164.473,677.058 165.949,676.865 166,677.5C166.012,677.661 163.703,683.941 163.497,684.5C162.159,688.139 170.224,692.238 163.083,695.437C163.084,695.139 163.097,691.717 163.097,691.717C162.788,691.529 162.781,691.802 158.726,692.889C158.503,692.13 157.102,691.433 157.527,686.495C160.135,686.784 161.234,684.197 158.5,684.153C157.076,684.13 157.39,683.636 156.132,683.051C156.491,682.801 156.472,682.801 164.422,676.423Z" style="fill-opacity:0.9;"/>
            <path d="M647.968,572.695C645.148,581.992 639.659,583.58 636.24,574.5C637.673,571.211 636.597,571.267 636.806,567.5C637.109,562.028 640.697,570.121 645.5,567.52C644.748,569.26 634.261,575.213 640.5,575.828C643.865,576.16 644.717,576.82 645.664,573.5C645.718,573.312 645.664,573.5 647.968,572.695Z" style="fill-opacity:0.99;"/>
            <path d="M925.758,555.438C926.184,553.919 925.661,554.111 924.5,553.191C925.504,551.444 925.674,551.787 927.5,551.253C929.045,550.8 929.393,550.316 930.168,551.791C934.034,559.148 936.233,558.16 935.705,558.625C929.054,564.485 926.258,562.897 925.5,562.466C925.93,558.924 925.743,559.051 925.758,555.438Z" style="fill-opacity:0.99;"/>
            <path d="M632.797,298.516C633.257,298.815 635.269,300.124 636.938,303.989C631.84,308.652 631.841,308.376 626.836,312.905C626.827,312.165 625.127,312.24 625.118,311.5C625.092,309.418 626.88,309.768 626.226,307.718C627.81,305.701 628.783,305.744 627.525,303.389L632.797,298.516Z" style="fill-opacity:0.93;"/>
            <path d="M667.095,474.673C664.503,474.165 662.516,475.92 653.929,483.969C654.043,483.421 652.998,483.049 653.112,482.5C653.145,482.344 663.897,471.487 667.5,464.174C668.095,464.21 668.029,464.223 671.5,464.753C670.985,465.098 666.62,468.028 667.684,471.5C668.2,473.184 667.41,472.974 667.095,474.673Z" style="fill-opacity:0.85;"/>
            <path d="M745.44,563.903C748.669,564.143 748.629,563.802 751.5,565.132C751.983,565.957 752.466,566.783 752.948,567.609C750.581,570.326 751.019,570.89 747.5,571.801C746.571,572.042 747.583,573.052 746.5,573.151C746.096,573.187 742.518,568.874 742.425,568.5C741.854,566.215 742.084,566.397 742.5,564.024C743.48,563.984 744.46,563.943 745.44,563.903Z" style="fill-opacity:0.99;"/>
            <path d="M995.119,664.003C1004.724,658.173 1001.583,668.067 999.104,670.071C999.065,670.103 982.551,676.803 995.119,664.003Z" style="fill-opacity:0.78;"/>
            <path d="M618.728,58.932C612.097,62.8 612.304,62.691 605.605,66.678C604.938,65.036 599.994,60.771 608.5,60.333C609.615,60.275 613.54,51.52 618.728,58.932Z" style="fill-opacity:0.88;"/>
            <path d="M396.953,255.91C386.927,269.022 386.785,268.729 385.952,269.882C384.109,266.41 381.534,265.072 385.5,264.031C387.762,263.437 386.275,261.796 388.5,260.854C389.52,260.422 389.574,261.316 390.5,260.766C393.801,258.806 388.723,254.93 392.507,254.857C394.888,254.811 394.714,254.942 396.953,255.91Z" style="fill-opacity:0.9;"/>
            <path d="M195.173,600.318C195.494,600.466 201.81,603.389 195.5,604.728C190.969,605.69 194.53,608.519 192.528,610.521C189.68,613.368 193.823,615.31 190.515,617.573C189.807,617.429 189.098,617.286 188.389,617.143C188.343,616.428 186.383,617.215 186.337,616.5C186.125,613.163 187.669,613.669 188.365,610.5C189.716,604.341 192.871,606.156 195.173,600.318Z" style="fill-opacity:0.98;"/>
            <path d="M735.277,244.402C736.082,244.218 741.39,243.01 745.53,245.586C738.927,248.589 739.099,248.415 732.624,251.728C729.546,247.954 729.518,248.129 729.278,247.793C731.744,246.347 731.538,246.471 734.124,245.131L735.277,244.402Z" style="fill-opacity:0.91;"/>
            <path d="M677.41,544.814C678.663,544.475 678.254,546.017 679.5,545.68C681.392,545.169 680.424,543.95 682.271,543.5C682.86,543.357 683.077,544.81 683.666,544.666C678.853,549.926 678.82,549.636 673.952,554.898C671.732,549.706 670.96,550.07 671.065,549.599C671.881,545.946 676.787,544.941 677.41,544.814Z" style="fill-opacity:0.91;"/>
            <path d="M214.311,559.5C213.51,563.449 211.818,561.724 209.426,563.316C208.869,563.687 207.85,567.625 205.5,565.624C204.882,565.098 207.923,557.21 208.197,556.5C208.354,556.092 210.317,551.001 212.681,553.365C213.844,554.528 212.32,554.158 211.319,555.5C210.339,556.815 211.308,556.674 214.311,559.5Z" style="fill-opacity:0.98;"/>
            <path d="M142.877,703.999C139.192,706.65 135.508,709.301 131.823,711.952C131.754,711.341 129.876,711.487 131.547,709.5C132.72,708.104 132.81,708.538 134.541,707.5C136.211,706.499 133.34,705.218 133.799,704.577C137.14,699.903 138.415,700.286 142.877,703.999Z" style="fill-opacity:0.87;"/>
            <path d="M244.517,485.502C247.248,487.71 248.634,487.938 246.5,490.655C243.665,494.265 243.88,494.196 242.5,498.655C241.56,501.693 240.482,499.949 237.391,499.086C240.128,496.077 243.377,487.975 244.517,485.502Z" style="fill-opacity:0.97;"/>
            <path d="M647.968,572.695C645.664,573.5 645.718,573.312 645.664,573.5C644.717,576.82 643.865,576.16 640.5,575.828C634.261,575.213 644.748,569.26 645.5,567.52C649.196,567.973 649.704,568.954 648.058,572.296L647.968,572.695Z" style="fill-opacity:1;"/>
            <path d="M798.619,543.401C804.3,548.117 800.533,552.693 797.795,557.5C796.857,557.167 795.92,556.833 794.982,556.5C795.989,553.55 799.523,554.299 797.5,552.018C795.494,549.756 797.837,549.41 797.411,546.484C797.153,544.705 797.98,545.032 798.619,543.401Z" style="fill-opacity:0.98;"/>
            <path d="M361.69,302.637C358.963,306.376 358.976,306.349 358.745,306.675C357.614,308.267 357.876,308.238 356.805,309.746C354.989,309.042 355.239,308.847 353.5,308.465C352.937,308.341 351.858,296.797 361.69,302.637Z" style="fill-opacity:0.91;"/>
            <path d="M474.478,163.887C477.678,166.78 477.667,166.673 477.926,166.934L471.736,172.789L470.5,171.573C468.381,169.451 467.766,168.587 470.396,167.42C473.048,166.245 471.999,165.194 474.478,163.887Z" style="fill-opacity:0.91;"/>
            <path d="M743.739,554.803C744.395,555.326 745.052,555.849 745.709,556.372C753.06,559.2 747.099,560.867 746.73,560.878C744.143,560.949 743.887,561.937 745.44,563.903C744.46,563.943 743.48,563.984 742.5,564.024C740.246,559.326 740.484,558.871 743.739,554.803Z" style="fill-opacity:0.98;"/>
            <path d="M869.044,555.561L869.472,556.516C873.868,561.028 868.117,560.085 863.702,564.5C862.057,566.146 862.218,564.617 862.23,564.5C862.419,562.712 862.348,562.884 861.455,561.28C865.34,558.366 865.485,558.764 869.044,555.561Z" style="fill-opacity:0.96;"/>
            <path d="M797.795,557.5C798.575,562.479 797.06,562.343 797.521,567.5C790.16,563.528 794.796,561.542 794.531,560.494C794.332,559.708 793.048,559.306 793.139,558.5C793.24,557.599 794.88,557.401 794.982,556.5C795.92,556.833 796.857,557.167 797.795,557.5Z" style="fill-opacity:0.98;"/>
            <path d="M401.191,495.244C401.76,497.119 401.635,497.025 401.76,497.119C405.776,500.157 398.95,504.023 396.928,501.246C396.452,500.659 395.977,500.072 395.501,499.485C398.299,497.26 398.088,497.213 401.191,495.244Z" style="fill-opacity:0.96;"/>
            <path d="M521.389,608.624C521.979,608.574 521.91,607.289 522.5,607.239C523.554,607.15 524.452,608.129 525.5,608.276C526.768,608.453 526.062,607.205 527.356,607.049C529.185,606.828 529.935,607.809 527.5,613.432C526.778,613.422 526.057,613.412 525.335,613.401C525.241,610.057 524.184,610.66 521.389,608.624Z" style="fill-opacity:0.81;"/>
            <path d="M572.448,351.016C572.898,351.473 573.349,351.929 573.799,352.385L572.394,353.5C571.813,354.107 567.771,358.331 564.496,360.42C553.081,367.702 571.701,351.659 572.448,351.016Z" style="fill-opacity:0.94;"/>
            <path d="M635.358,296.854C635.575,297.061 635.412,296.944 641.765,299.785C640.156,301.186 638.547,302.588 636.938,303.989C635.269,300.124 633.257,298.815 632.797,298.516C634.012,297.292 633.836,297.402 635.358,296.854Z" style="fill-opacity:0.91;"/>
            <path d="M813.863,124.771L809.717,130.662C809.428,129.942 809.14,129.221 808.851,128.5C809.5,125.991 809.578,126.183 809.5,125.991C808.543,123.635 807.753,124.532 807.746,124.34C807.729,123.85 807.863,119.66 813.863,124.771Z" style="fill-opacity:0.88;"/>
            <path d="M471.736,172.789C470.077,174.438 468.417,176.087 466.757,177.736C464.137,173.069 465.086,171.078 470.5,171.573L471.736,172.789Z" style="fill-opacity:0.88;"/>
            <path d="M585.391,340.356C588.901,342.477 578.59,348.326 576.452,347.485C580.842,343.768 580.657,343.77 585.391,340.356Z" style="fill-opacity:0.95;"/>
            <path d="M277.544,595.491L279.125,596.611C279.839,600.162 278.199,599.466 275.451,601.5C273.623,598.689 273.055,597.583 277.544,595.491Z" style="fill-opacity:0.95;"/>
            <path d="M604.797,322.747C604.685,324.458 604.869,324.307 606.121,325.571C606.728,328.059 606.045,327.921 603.994,329.5C602.845,327.882 603.003,327.9 601.472,326.507C602.755,324.042 602.281,323.697 604.797,322.747Z" style="fill-opacity:0.95;"/>
            <path d="M170.81,691.157C171.356,696.039 171.129,695.891 170.5,700.928C167.547,696.29 166.653,695.402 170.81,691.157Z" style="fill-opacity:0.98;"/>
            <path d="M723.311,210.28C725.649,212.57 725.908,211.753 729.235,211.569C726.574,214.245 727.441,218.071 724.636,215.338C721.814,212.591 721.918,212.551 721.175,212.142L723.311,210.28Z" style="fill-opacity:0.93;"/>
            <path d="M446.492,190.619C449.871,190.457 449.549,191.255 451.887,192.887L448.947,195.888C446.534,192.688 446.494,192.825 446.312,192.537C446.372,191.898 446.432,191.259 446.492,190.619Z" style="fill-opacity:0.84;"/>
            <path d="M883.517,566.474C887.17,567.23 887.323,567.176 888.781,570.5C886.757,570.737 883.871,573.183 883.517,566.474Z" style="fill-opacity:0.99;"/>
            <path d="M729.278,247.793C729.518,248.129 729.546,247.954 732.624,251.728L729.709,253.788C727.913,250.06 727.07,249.619 726.693,249.423C727.555,248.879 728.416,248.336 729.278,247.793Z" style="fill-opacity:0.86;"/>
            <path d="M321.472,769.595C320.963,772.896 319.807,771.936 313.401,774.68C313.586,774.389 314.76,772.54 315.5,770.911C316.016,770.957 316.024,771.93 321.472,769.595Z" style="fill-opacity:0.94;"/>
            <path d="M204.144,575.312C201.403,577.188 201.617,574.657 202.563,571.5C203.639,567.907 207.031,571.657 204.144,575.312Z" style="fill-opacity:0.98;"/>
            <path d="M526.488,390.391C530.083,392.755 526.096,392.781 523.421,395.963L522.378,395.727L521.304,394.477C523.788,392.071 523.449,391.9 526.488,390.391Z" style="fill-opacity:0.94;"/>
            <path d="M739.5,205.343C737.929,205.067 738.048,205.27 736.431,205.623C733.427,206.279 738.364,201.032 738.66,200.718C741.226,197.991 739.198,201.794 739.5,205.343Z" style="fill-opacity:0.95;"/>
            <path d="M211.712,645.838C212.264,646.695 213.726,646.643 214.279,647.5C214.38,647.657 212.768,649.316 212.5,649.279C211.815,649.185 211.399,648.169 210.71,648.23C210.373,648.259 211.454,649.693 207.365,650.82C203.616,651.853 211.287,646.154 211.712,645.838Z" style="fill-opacity:0.92;"/>
            <path d="M856.635,564.526C856.789,564.844 858.561,568.5 858.561,568.5C857.61,570.005 857.273,569.19 854.5,568.734C854.595,567.071 854.824,567.055 853.623,565.771C854.627,565.356 855.631,564.941 856.635,564.526Z" style="fill-opacity:0.96;"/>
            <path d="M395.501,499.485C395.977,500.072 396.452,500.659 396.928,501.246C393.701,504.392 393.806,504.503 393.443,504.644C385.578,507.692 395.159,499.769 395.501,499.485Z" style="fill-opacity:0.95;"/>
            <path d="M323.463,558.393C323.677,563.087 321.702,561.946 317.947,564.497C317.461,564.16 316.975,563.822 316.488,563.484C319.937,560.752 320.04,561.121 323.463,558.393Z" style="fill-opacity:0.95;"/>
            <path d="M503.484,409.25C505.292,410.268 506.748,410.181 505.24,411.477C500.676,415.4 499.419,413.762 499.107,413.355C499.47,413.041 499.237,413.06 503.484,409.25Z" style="fill-opacity:0.94;"/>
            <path d="M292.876,584.276L292.024,585.191C291.734,585.459 289.027,587.958 288.538,588.699C287.862,588.3 287.187,587.902 286.511,587.503C290.154,584.461 290.024,582.295 292.876,584.276Z" style="fill-opacity:0.94;"/>
            <path d="M281.268,787.792C284.289,785.934 284.875,786.436 286.5,789.552C283.39,789.493 282.821,790.47 281.268,787.792Z" style="fill-opacity:0.93;"/>
            <path d="M300.503,576.513C304.897,579.033 292.541,582.814 296.292,579.431C296.596,579.157 296.61,579.279 300.503,576.513Z" style="fill-opacity:0.94;"/>
            <path d="M450.358,454.081C450.603,456.726 450.77,456.594 450.603,456.726C448.966,458.03 449.193,457.946 447.496,459.414L446.438,459.566C445.664,457.163 446.818,457.474 450.358,454.081Z" style="fill-opacity:0.96;"/>
            <path d="M347.553,538.532C348.469,540.317 348.117,540.425 346.682,541.598C345.892,542.243 344.589,544.564 343.597,544.281C340.936,543.52 345.136,540.453 347.553,538.532Z" style="fill-opacity:0.95;"/>
            <path d="M314.295,565.008C314.432,566.888 314.576,566.883 313.498,568.424C312.778,569.113 312.058,569.803 311.338,570.492C310.052,570.903 310.094,570.662 309.415,569.412L314.295,565.008Z" style="fill-opacity:0.95;"/>
            <path d="M360.789,527.948L361.423,527.399C365.469,535.211 356.974,531.696 356.5,531.5C357.93,530.316 359.36,529.132 360.789,527.948Z" style="fill-opacity:0.96;"/>
            <path d="M648.466,284.494C653.251,280.89 652.903,280.482 653.408,280.386C653.876,280.297 656.331,281.735 650.482,285.567C649.81,285.209 649.138,284.852 648.466,284.494Z" style="fill-opacity:0.94;"/>
            <path d="M462.266,444.213C462.491,444.609 464.887,448.817 458.951,448.837C459.307,447.775 459.092,447.945 458.609,447.067C459.828,446.116 461.047,445.164 462.266,444.213Z" style="fill-opacity:0.95;"/>
            <path d="M531.625,385.934C531.869,385.781 541.776,379.579 535.139,386.704C533.489,388.476 533.066,387.973 531.625,385.934Z" style="fill-opacity:0.95;"/>
            <path d="M648.466,284.494C649.138,284.852 649.81,285.209 650.482,285.567C650.407,285.73 649.306,290.314 645.135,287.458C646.246,286.47 647.356,285.482 648.466,284.494Z" style="fill-opacity:0.95;"/>
            <path d="M421.273,478.049C420.994,478.655 422.865,478.951 422.587,479.557C422.36,480.051 422.164,479.816 416.798,483.112L416.506,482.398C418.095,480.948 419.684,479.499 421.273,478.049Z" style="fill-opacity:0.95;"/>
            <path d="M807.399,575.874L809.214,575.05C809.861,576.288 809.804,576.114 810.496,577.501C812.004,580.525 808.178,579.154 807.399,575.874Z" style="fill-opacity:0.97;"/>
            <path d="M495.842,415.242C495.604,416.134 497.435,416.847 494.632,419.769C493.68,420.761 493.522,420.396 492.514,421.447C492.203,420.804 491.891,420.161 491.58,419.518C493.919,417.449 493.799,417.651 495.842,415.242Z" style="fill-opacity:0.95;"/>
            <path d="M760.516,180.757C760.513,181.401 762.134,181.977 758.5,185.907C756.157,183.612 756.714,182.764 759.711,181.2L760.516,180.757Z" style="fill-opacity:0.95;"/>
            <path d="M546.716,373.502C548.728,371.389 548.962,372.935 551.368,374.5C548.636,376.35 548.61,375.041 546.716,373.502Z" style="fill-opacity:0.94;"/>
            <path d="M336.122,548.116C336.3,547.956 343.836,541.181 339.101,548.434L336.141,549.58L336.122,548.116Z" style="fill-opacity:0.95;"/>
            <path d="M667.101,552.844C667.104,552.635 665.395,551.961 667.135,550.5C667.35,550.32 670.373,547.782 670.5,549.5C670.729,552.626 667.482,552.821 667.101,552.844Z" style="fill-opacity:0.96;"/>
            <path d="M659.5,280.194C657.285,281.401 656.667,281.803 655.612,279.457C653.303,274.322 659.27,279.976 659.5,280.194Z" style="fill-opacity:0.93;"/>
            <path d="M354.485,533.347C354.939,533.629 355.393,533.912 355.847,534.194C353.321,536.482 352.544,538.416 350.729,535.294C353.685,533.86 353.619,533.984 354.485,533.347Z" style="fill-opacity:0.95;"/>
            <path d="M780.642,159.256C778.767,161.299 778.476,163.427 776.888,161.061C776.702,160.784 774.419,155.711 780.642,159.256Z" style="fill-opacity:0.93;"/>
            <path d="M718.68,508.63C717.286,509.986 717.528,510.628 715.556,510.211C713.414,509.758 715.386,504.008 718.68,508.63Z" style="fill-opacity:0.94;"/>
            <path d="M813.445,573.427C815.318,576.272 815.578,576.227 815.468,576.5C815.338,576.825 814.322,579.367 811.493,574.665L813.445,573.427Z" style="fill-opacity:0.97;"/>
            <path d="M368.436,522.696C367.757,525.474 368.825,526.729 366.096,526.779C365.72,526.786 362.35,524.881 368.436,522.696Z" style="fill-opacity:0.94;"/>
            <path d="M475.522,433.743C475.908,436.728 474.911,436.251 472.492,437.866C472.435,436.247 471.36,435.25 475.522,433.743Z" style="fill-opacity:0.94;"/>
            <path d="M458.609,447.067C459.092,447.945 459.307,447.775 458.951,448.837C457.494,449.758 455.453,451.666 455.168,451.934C453.412,449.083 455.533,449.545 458.609,447.067Z" style="fill-opacity:0.95;"/>
            <path d="M521.304,394.477L522.378,395.727C520.472,398.199 520.583,398.372 517.542,399.199C518.796,397.625 520.05,396.051 521.304,394.477Z" style="fill-opacity:0.95;"/>
            <path d="M620.419,309.277C621.025,309.391 621.63,309.504 622.235,309.618L622.558,310.495L621.161,311.364C619.119,312.532 619.22,312.433 617.052,312.203L620.419,309.277Z" style="fill-opacity:0.94;"/>
            <path d="M543.554,376.101C545.434,380.048 543.26,381.555 539.365,379.327C543.189,376.177 543.233,376.378 543.554,376.101Z" style="fill-opacity:0.95;"/>
            <path d="M438.473,464.055C437.409,465.249 437.869,465.347 438.419,466.772L437.488,467.49C436.854,468.112 436.219,468.734 435.585,469.356C433.334,465.256 438.003,464.165 438.473,464.055Z" style="fill-opacity:0.95;"/>
            <path d="M737.14,553.822C737.71,556.601 737.257,557.526 734.5,556.643C735.176,554.577 735.071,554.466 737.14,553.822Z" style="fill-opacity:0.96;"/>
            <path d="M822.205,572.5C822.087,572.292 815.83,561.144 823.251,569.701C824.636,571.297 823.972,571.542 822.205,572.5Z" style="fill-opacity:0.96;"/>
            <path d="M556.502,364.51C556.509,367.69 555.454,367.197 552.418,367.501L556.502,364.51Z" style="fill-opacity:0.94;"/>
            <path d="M627.525,303.389C628.783,305.744 627.81,305.701 626.226,307.718C624.053,304.761 625.746,304.655 627.525,303.389Z" style="fill-opacity:0.94;"/>
            <path d="M427.554,476.228C427.423,476.661 429.485,478.051 426.5,479.705C426.414,479.753 426.022,479.97 425.283,479.5C425.014,479.329 423.127,478.13 427.554,476.228Z" style="fill-opacity:0.97;"/>
            <path d="M306.598,778.318L307.522,778.46C307.5,780.502 307.537,780.946 305.5,780.927C300.812,780.882 306.391,778.41 306.598,778.318Z" style="fill-opacity:0.96;"/>
            <path d="M429.161,471.445C430.312,470.69 431.161,469.531 432.311,468.776C434.7,467.21 430.928,476.108 429.161,471.445Z" style="fill-opacity:0.95;"/>
            <path d="M911.277,564.423C914.93,568.575 912.556,568.919 912.189,568.973C912.189,568.973 909.68,566.533 909.462,566.32L911.277,564.423Z" style="fill-opacity:0.97;"/>
            <path d="M408.307,489.831C408.432,490.051 411.045,495.583 405.609,491.491C406.506,489.794 406.474,489.756 408.307,489.831Z" style="fill-opacity:0.94;"/>
            <path d="M384.49,508.641C386.188,511.085 383.657,513.275 382.368,510.448C383.075,509.845 383.783,509.243 384.49,508.641Z" style="fill-opacity:0.93;"/>
            <path d="M397.879,723.138L398.688,724.27C395.862,726.413 395.814,726.412 395.507,726.403C389.32,726.222 397.575,723.247 397.879,723.138Z" style="fill-opacity:0.95;"/>
            <path d="M292.572,784.104C288.806,785.604 288.849,785.659 288.505,785.724C286.265,786.144 289.377,781.182 292.572,784.104Z" style="fill-opacity:0.95;"/>
            <path d="M761.51,177.497L761.621,178.316C761.253,179.13 760.884,179.944 760.516,180.757L759.711,181.2C756.761,176.548 760.64,177.831 761.51,177.497Z" style="fill-opacity:0.95;"/>
            <path d="M313.498,568.424C313.687,568.571 317.003,572.739 311.338,570.492C312.058,569.803 312.778,569.113 313.498,568.424Z" style="fill-opacity:0.96;"/>
            <path d="M606.492,321.64C607.48,323.547 606.859,323.513 606.121,325.571C604.869,324.307 604.685,324.458 604.797,322.747C605.362,322.378 605.927,322.009 606.492,321.64Z" style="fill-opacity:0.94;"/>
            <path d="M244.539,620.595C244.532,620.798 246.128,621.144 243.507,623.698C242.605,624.578 241.539,624.16 241.538,624.16L241.772,622.598L244.539,620.595Z" style="fill-opacity:0.93;"/>
            <path d="M491.58,419.518C491.891,420.161 492.203,420.804 492.514,421.447C490.352,422.837 490.394,423.372 488.112,422.155C489.268,421.276 490.424,420.397 491.58,419.518Z" style="fill-opacity:0.95;"/>
            <path d="M252.871,616.376C252.962,616.751 253.052,617.125 253.142,617.5C252.185,618.478 252.344,618.355 251.5,619.179C251.392,619.284 245.002,624.65 249.656,618.786C250.489,617.737 252.039,617.425 252.871,616.376Z" style="fill-opacity:0.95;"/>
            <path d="M380.4,512.842C380.427,513.692 380.453,514.542 380.479,515.393L379.368,515.859L377.899,514.563C378.838,513.06 378.68,512.871 380.4,512.842Z" style="fill-opacity:0.93;"/>
            <path d="M277.544,595.491C278.565,593.618 278.099,593.068 279.574,593.256C281.955,593.561 279.984,594.414 279.125,596.611L277.544,595.491Z" style="fill-opacity:0.94;"/>
            <path d="M363.567,746.399C363.378,743.508 363.377,743.614 363.389,743.5C365.736,745.232 367.009,744.947 365.928,746.586C365.031,747.946 364.705,747.664 363.567,746.399Z" style="fill-opacity:0.93;"/>
            <path d="M306.598,778.318C306.474,774.444 310.922,775.424 309.458,777.503C309.358,777.644 309.458,777.503 307.522,778.46L306.598,778.318Z" style="fill-opacity:0.95;"/>
            <path d="M236.829,626.655C239.259,625.019 239.204,624.845 239.453,624.888C239.645,624.921 242.009,630.82 236.829,626.655Z" style="fill-opacity:0.93;"/>
            <path d="M342.013,760.903C341.399,761.258 340.785,761.613 340.171,761.968L338.594,761.375C339.109,760.462 339.228,757.696 342.013,760.903Z" style="fill-opacity:0.93;"/>
            <path d="M284.351,589.221C284.464,591.245 285.455,592.109 283.458,592.257C278.688,592.612 283.868,589.624 284.351,589.221Z" style="fill-opacity:0.95;"/>
            <path d="M198.571,655.572C200.022,659.302 200.518,659.203 200.343,659.5C200.164,659.806 199.838,660.36 196.462,657.354L198.571,655.572Z" style="fill-opacity:0.94;"/>
            <path d="M670.493,266.569C669.775,267.476 670.004,267.427 669.253,268.416C666.877,271.541 666.755,268.753 666.747,268.552C666.67,266.801 667.404,267.432 670.493,266.569Z" style="fill-opacity:0.95;"/>
            <path d="M389.641,729.421C389.451,727.247 389.783,726.56 391.768,727.372C398.082,729.957 389.877,729.436 389.641,729.421Z" style="fill-opacity:0.94;"/>
            <path d="M232.363,632.606C232.378,629.477 236.636,632.07 234.5,633.313C234.344,633.403 234.5,633.313 232.363,632.606Z" style="fill-opacity:0.95;"/>
            <path d="M696.476,241.545C696.676,241.292 698.746,238.69 699.441,238.816C702.556,239.377 697.29,241.789 697.003,241.92L696.476,241.545Z" style="fill-opacity:0.94;"/>
            <path d="M188.389,617.143C189.098,617.286 189.807,617.429 190.515,617.573C190.371,618.548 190.227,619.524 190.083,620.5C188.139,619.442 187.68,619.359 188.389,617.143Z" style="fill-opacity:0.97;"/>
            <path d="M400.245,721.8C400.472,722.355 400.7,722.911 400.927,723.466C400.181,723.734 399.434,724.002 398.688,724.27L397.879,723.138C398.911,722.046 398.866,722.259 400.245,721.8Z" style="fill-opacity:0.93;"/>
            <path d="M1011.5,556.5C1012.5,554.733 1012.351,554.798 1012.5,554.733C1014.665,553.794 1013.28,558.351 1011.5,556.5Z" style="fill-opacity:0.98;"/>
            <path d="M438.473,464.055C438.765,463.898 443.326,461.456 442.57,463.458C442.467,463.73 442.253,464.295 439.209,464.846L438.473,464.055Z" style="fill-opacity:0.95;"/>
            <path d="M595.836,334.191C593.781,335.369 593.28,336.335 592.258,334.26C592.131,334.003 592.074,331.975 595.836,334.191Z" style="fill-opacity:0.95;"/>
            <path d="M360.789,527.948C361.08,526.672 359.183,527.41 359.5,526.019C359.546,525.818 359.774,524.815 361.575,524.5C361.803,524.46 363.033,524.458 361.423,527.399L360.789,527.948Z" style="fill-opacity:0.97;"/>
            <path d="M853.623,565.771C854.824,567.055 854.595,567.071 854.5,568.734C852.903,568.08 852.836,568.198 852.547,566.55L853.623,565.771Z" style="fill-opacity:0.94;"/>
            <path d="M733.674,207.304C732.496,209.602 732.611,209.431 732.496,209.602C732.11,210.177 731.995,209.733 731.692,210.185C727.609,204.268 733.424,207.178 733.674,207.304Z" style="fill-opacity:0.94;"/>
            <path d="M672.517,263.064C673.268,265.035 673.468,265.319 671.609,266.333C671.226,264.489 671.118,264.476 672.517,263.064Z" style="fill-opacity:0.95;"/>
            <path d="M416.506,482.398L416.798,483.112C417.641,484.775 416.997,484.775 415.42,485.636C413.911,483.903 414.572,483.611 416.506,482.398Z" style="fill-opacity:0.93;"/>
            <path d="M328.15,554.384C329.288,555.376 329.149,555.266 330.626,555.53C329.295,555.62 327.964,555.71 326.633,555.801C327.139,555.328 327.645,554.856 328.15,554.384Z" style="fill-opacity:0.96;"/>
            <path d="M249.619,796.649C247.838,801.213 246.729,797.932 246.69,797.686C246.345,795.493 247.545,796.531 249.619,796.649Z" style="fill-opacity:0.95;"/>
            <path d="M845.503,569.501C845.15,572.356 845.292,573.257 842.5,572.816C844.682,570.171 844.468,570.193 845.503,569.501Z" style="fill-opacity:0.98;"/>
            <path d="M374.511,740.504C373.809,740.858 373.107,741.213 372.405,741.568C372.449,740.289 371.454,740.696 371.5,739.349C371.584,736.886 372.339,739.67 374.511,740.504Z" style="fill-opacity:0.94;"/>
            <path d="M637.354,294.37C643.111,292.85 638.681,296.444 638.498,296.506C636.95,297.025 637.628,296.046 637.354,294.37Z" style="fill-opacity:0.96;"/>
            <path d="M871.375,553.908C871.116,554.709 872.206,555.567 871.947,556.368C871.886,556.557 871.947,556.368 869.472,556.516L869.044,555.561C869.821,555.01 870.598,554.459 871.375,553.908Z" style="fill-opacity:0.95;"/>
            <path d="M749.67,192.344C747.499,194.503 747.743,194.488 747.499,194.503C746.181,194.582 746.528,189.253 749.67,192.344Z" style="fill-opacity:0.95;"/>
            <path d="M224.425,636.712L225.184,637.605C225.11,638.237 225.035,638.868 224.961,639.5C223.641,638.863 221.238,638.046 224.425,636.712Z" style="fill-opacity:0.93;"/>
            <path d="M791.764,147.5C789.682,148.259 789.793,148.397 789.682,148.259C789.114,147.556 790.412,142.646 791.764,147.5Z" style="fill-opacity:0.94;"/>
            <path d="M336.122,548.116L336.141,549.58C335.706,550.776 335.796,550.675 334.65,551.212C334.368,550.662 334.086,550.112 333.804,549.562L336.122,548.116Z" style="fill-opacity:0.95;"/>
            <path d="M793.677,537.765C794.556,537.676 795.435,537.588 796.313,537.499C795.804,538.499 795.296,539.499 794.787,540.5C794.13,539.978 793.473,539.457 792.817,538.935C793.104,538.545 793.39,538.155 793.677,537.765Z" style="fill-opacity:0.56;"/>
            <path d="M664.557,270.432C664.593,270.61 665.706,276.093 662.566,271.507C663.229,271.148 663.893,270.79 664.557,270.432Z" style="fill-opacity:0.94;"/>
            <path d="M328.15,554.384C329.766,552.908 330.504,553.31 330.626,555.53C329.149,555.266 329.288,555.376 328.15,554.384Z" style="fill-opacity:0.95;"/>
            <path d="M386.202,507.413C389.54,503.632 389.367,507.296 389.283,507.528C388.641,509.299 386.397,507.564 386.202,507.413Z" style="fill-opacity:0.95;"/>
            <path d="M1009.813,560.109C1009.636,560.269 1003.147,566.081 1006.855,560.5C1008.197,558.48 1009.7,560.054 1009.813,560.109Z" style="fill-opacity:0.97;"/>
            <path d="M286.511,587.503C287.187,587.902 287.862,588.3 288.538,588.699C286.456,589.374 286.579,589.628 284.351,589.221L286.511,587.503Z" style="fill-opacity:0.95;"/>
            <path d="M333.804,549.562C334.086,550.112 334.368,550.662 334.65,551.212C333.255,552.139 332.466,553.312 332.408,551.507C332.408,551.507 333.692,549.717 333.804,549.562Z" style="fill-opacity:0.96;"/>
            <path d="M336.668,762.791C334.754,763.539 332.95,764.242 334.273,762.5C335.05,761.478 335.121,761.487 335.231,761.5C336.413,761.643 335.585,762.66 336.668,762.791Z" style="fill-opacity:0.94;"/>
            <path d="M316.488,563.484C316.975,563.822 317.461,564.16 317.947,564.497C316.842,565.386 316.844,565.126 315.496,564.498L316.488,563.484Z" style="fill-opacity:0.94;"/>
            <path d="M350.864,754.874C350.717,754.978 340.854,760.414 348.642,754.524C348.642,754.524 350.686,754.846 350.864,754.874Z" style="fill-opacity:0.94;"/>
            <path d="M438.473,464.055L439.209,464.846C438.946,465.488 438.683,466.13 438.419,466.772C437.869,465.347 437.409,465.249 438.473,464.055Z" style="fill-opacity:0.94;"/>
            <path d="M460.327,676.541C460.259,676.698 458.34,681.127 458.451,677.577C458.499,676.041 458.944,676.503 460.327,676.541Z" style="fill-opacity:0.9;"/>
            <path d="M448.5,684.872C450.495,687.629 448.721,687.483 448.514,687.466C446.659,687.313 447.485,686.588 448.5,684.872Z" style="fill-opacity:0.91;"/>
            <path d="M704.521,516.364C706.353,518.674 706.533,518.606 706.5,518.859C706.332,520.132 704.725,519.996 704.521,516.364Z" style="fill-opacity:0.95;"/>
            <path d="M620.419,309.277C622.517,307.546 622.322,307.643 622.517,307.546C630.179,303.746 622.374,309.524 622.235,309.618C621.63,309.504 621.025,309.391 620.419,309.277Z" style="fill-opacity:0.95;"/>
            <path d="M787.264,537.408C787.351,538.348 788.338,537.425 788.437,538.5C788.449,538.639 788.522,539.423 787.5,539.968C785.587,540.99 786.62,539.33 787.264,537.408Z" style="fill-opacity:0.95;"/>
            <path d="M763.237,176.776C762.68,177.892 762.734,177.819 761.621,178.316L761.51,177.497C762.086,177.257 762.662,177.016 763.237,176.776Z" style="fill-opacity:0.94;"/>
            <path d="M795.299,141.748C795.343,141.288 794.713,140.933 794.757,140.473C794.773,140.309 794.971,138.245 796.535,139.423C796.703,139.549 796.535,139.423 795.299,141.748Z" style="fill-opacity:0.91;"/>
            <path d="M702.024,236.084C702.103,237.889 704.065,238.707 702.146,238.866C700.143,239.032 701.493,236.703 701.589,236.537C701.694,236.356 701.919,236.265 702.024,236.084Z" style="fill-opacity:0.95;"/>
            <path d="M225.461,635.431C226.432,636.37 225.94,636.391 225.184,637.605L224.425,636.712L225.461,635.431Z" style="fill-opacity:0.94;"/>
            <path d="M796.465,536.509L796.313,537.499C795.435,537.588 794.556,537.676 793.677,537.765C795.18,535.415 795.586,536.212 796.465,536.509Z" style="fill-opacity:0.71;"/>
            <path d="M387.572,730.604L387.1,731.543C386.315,732.565 386.449,732.639 385.28,732.668C386.044,731.98 386.808,731.292 387.572,730.604Z" style="fill-opacity:0.95;"/>
            <path d="M729.278,247.793C728.416,248.336 727.555,248.879 726.693,249.423C727.377,247.732 727.348,247.48 729.278,247.793Z" style="fill-opacity:0.93;"/>
            <path d="M647.887,544.402C647.062,542.5 646.967,542.635 647.062,542.5C649.167,539.516 647.929,544.241 647.887,544.402Z" style="fill-opacity:0.98;"/>
            <path d="M752.948,567.609C752.466,566.783 751.983,565.957 751.5,565.132C752.761,566.088 752.921,565.909 752.948,567.609Z" style="fill-opacity:0.98;"/>
            <path d="M659.323,510.738C659.5,508.589 659.327,508.589 659.5,508.589C661.065,508.589 659.45,509.195 659.323,510.738Z" style="fill-opacity:0.98;"/>
            <path d="M762.569,563.5C762.502,562.608 761.671,563.361 761.613,562.582C761.511,561.226 762.2,562.555 763.431,562.5L762.569,563.5Z" style="fill-opacity:0.95;"/>
            <path d="M363.48,293.5C363.482,293.657 363.5,295.461 363.5,295.461C362.028,295.821 363.494,294.9 363.48,293.5Z" style="fill-opacity:0.95;"/>
            <path d="M621.5,368.385C621.613,367.902 620.264,367.89 620.377,367.406C620.605,366.438 621.798,366.493 621.943,366.5C623.318,366.564 621.817,367.034 621.5,368.385Z" style="fill-opacity:0.96;"/>
            <path d="M700.353,271.5C700.719,272.964 702.287,273.318 700.853,273.5C699.727,273.643 699.53,272.856 699.5,272.736C699.268,271.808 700.581,272.409 700.353,271.5Z" style="fill-opacity:0.95;"/>
            <path d="M936.486,561.659C934.461,561.543 932.605,563.333 933.719,561.5C933.779,561.401 936.265,561.638 936.486,561.659Z" style="fill-opacity:0.98;"/>
            <path d="M427.033,703.523C426.689,704.356 427.431,704.964 426.585,704.608C423.863,703.461 426.939,703.521 427.033,703.523Z" style="fill-opacity:0.93;"/>
            <path d="M429.65,701.326C428.864,702.254 429.072,702.497 427.817,702.558C428.428,702.147 429.039,701.736 429.65,701.326Z" style="fill-opacity:0.93;"/>
            <path d="M257.5,458.987C257.334,458.948 255.419,458.5 255.419,458.5C255.118,456.896 255.935,458.621 257.5,458.987Z" style="fill-opacity:0.98;"/>
            <path d="M187.728,665.32C187.965,665.421 188.256,665.326 188.493,665.427C189.885,666.018 188.785,667.475 188.5,667.354C187.833,667.07 188.395,665.604 187.728,665.32Z" style="fill-opacity:0.93;"/>
            <path d="M387.572,730.604L388.183,730.188C387.904,731.177 388.29,731.557 387.1,731.543L387.572,730.604Z" style="fill-opacity:0.95;"/>
            <path d="M334.653,333.697L333.692,334.574C333.566,333.55 332.479,334.616 332.355,333.61C332.155,331.979 332.956,333.633 334.653,333.697Z" style="fill-opacity:0.95;"/>
            <path d="M405.742,720.183C407.5,720.457 407.449,720.324 407.5,720.457C408.47,722.991 405.841,720.285 405.742,720.183Z" style="fill-opacity:0.94;"/>
            <path d="M165.5,735.609C166.791,735.534 167.391,734.082 167.391,735.5C167.391,735.5 165.651,735.6 165.5,735.609Z" style="fill-opacity:0.98;"/>
            <path d="M877.468,557.367C878.791,557.472 878.799,557.309 879.452,558.498L877.468,557.367Z" style="fill-opacity:0.46;"/>
            <path d="M562.5,90.249C564.416,90.5 564.394,90.347 564.416,90.5C564.636,91.982 563.882,90.43 562.5,90.249Z" style="fill-opacity:0.93;"/>
            <path d="M511.431,403.67C510.755,403.93 510.08,404.191 509.405,404.452C509.492,404.296 510.5,402.505 510.5,402.505C510.995,402.543 510.935,403.631 511.431,403.67Z" style="fill-opacity:0.95;"/>
            <path d="M587.325,72.415C586.898,73.198 587.197,73.861 586.288,73.474L587.325,72.415Z" style="fill-opacity:0.9;"/>
            <path d="M261.013,453.646C261.505,451.633 261.616,450.918 263.519,451.796C263.745,451.901 262.707,451.422 261.013,453.646Z" style="fill-opacity:0.96;"/>
            <path d="M312.487,775.535C311.337,775.788 311.39,775.866 311.337,775.788C310.643,774.77 311.452,774.993 312.487,775.535Z" style="fill-opacity:0.95;"/>
            <path d="M486.511,426.507C487.723,426.331 488.861,425.211 487.887,426.308C487.368,426.891 487.316,426.39 486.511,426.507Z" style="fill-opacity:0.96;"/>
            <path d="M743.739,554.803L744.701,554.639C745.037,555.217 745.373,555.795 745.709,556.372C745.052,555.849 744.395,555.326 743.739,554.803Z" style="fill-opacity:0.98;"/>
            <path d="M406.5,238.147C407.369,239.073 408.69,238.554 407.771,239.5C406.87,240.427 407.378,239.081 406.5,238.147Z" style="fill-opacity:0.96;"/>
            <path d="M742.684,197.003C741.621,197.37 740.449,197.787 741.5,196.989C742.033,196.584 742.009,196.995 742.684,197.003Z" style="fill-opacity:0.95;"/>
            <path d="M737.394,560.06C738.444,559.384 738.581,559.468 739.291,560.521C738.659,560.367 738.026,560.213 737.394,560.06Z" style="fill-opacity:0.54;"/>
            <path d="M713.276,560.585C713.668,558.814 713.533,558.869 713.668,558.814C715.005,558.265 713.607,559.089 713.276,560.585Z" style="fill-opacity:0.98;"/>
            <path d="M708.518,512.654C707.884,513.255 707.251,513.855 706.617,514.456C707.291,513.146 707.221,513.352 708.518,512.654Z" style="fill-opacity:0.94;"/>
            <path d="M793.599,530.495C793.528,531.498 793.553,531.504 792.477,531.486L793.599,530.495Z" style="fill-opacity:0.95;"/>
            <path d="M180.5,653.657C182.029,652.892 182.5,650.83 182.5,652.657C182.5,652.657 180.66,653.577 180.5,653.657Z" style="fill-opacity:0.98;"/>
            <path d="M437.488,467.49C436.782,468.743 436.926,468.749 435.585,469.356C436.219,468.734 436.854,468.112 437.488,467.49Z" style="fill-opacity:0.95;"/>
            <path d="M260.487,608.355C261.272,607.949 261.493,607.764 261.472,608.646L260.487,608.355Z" style="fill-opacity:0.96;"/>
            <path d="M745.846,196.292C746.042,196.452 746.304,196.516 746.5,196.675C746.801,196.921 747.325,197.111 747.325,197.5C747.325,199.009 747.013,197.246 745.846,196.292Z" style="fill-opacity:0.95;"/>
            <path d="M573.799,352.385C573.731,353.513 573.328,353.063 572.394,353.5L573.799,352.385Z" style="fill-opacity:0.95;"/>
            <path d="M368.033,743.458C367.821,743.884 367.807,743.913 368.033,743.458Z" style="fill-opacity:0.95;"/>
            <path d="M446.438,459.566L447.496,459.414C447.004,460.105 447.042,459.984 446.438,459.566Z" style="fill-opacity:0.96;"/>
            <path d="M718.406,222.789C719.278,222.802 719.832,222.013 719.5,222.806C719.5,222.806 718.494,222.79 718.406,222.789Z" style="fill-opacity:0.94;"/>
            <path d="M622.558,310.495C622.469,311.586 622.11,311.173 621.161,311.364L622.558,310.495Z" style="fill-opacity:0.95;"/>
        </g>
    </g>
</svg>
